<svg width="53" height="35" viewBox="0 0 53 35" xmlns="http://www.w3.org/2000/svg"><title>Page 1</title><g fill="#E41B22" id="Page-1" fill-rule="evenodd"><path d="M52.75 17.5c0 1.273-1.051 2.25-2.324 2.25H2.574C1.301 19.75.25 18.773.25 17.5c0-1.273 1.051-2.25 2.324-2.25h47.774c1.351 0 2.402.977 2.402 2.25z" id="Fill-1"/><path d="M52.75 32.5c0 1.273-1.051 2.25-2.324 2.25H2.574C1.301 34.75.25 33.773.25 32.5c0-1.273 1.051-2.25 2.324-2.25h47.774c1.351 0 2.402.977 2.402 2.25z" id="Fill-2"/><path d="M52.75 2.5c0 1.273-1.051 2.25-2.324 2.25H2.574C1.301 4.75.25 3.773.25 2.5.25 1.227 1.301.25 2.574.25h47.774c1.351 0 2.402.977 2.402 2.25z" id="Fill-3"/></g></svg>