<svg xmlns="http://www.w3.org/2000/svg" width="24" height="23" viewBox="0 0 24 23">
    <path fill="#1870E6" fill-rule="evenodd" d="M5.235 7.159v14.85H.292V7.16h4.943zm.325-4.594c0 1.426-1.073 2.567-2.796 2.567h-.032C1.072 5.132 0 3.992 0 2.565 0 1.11 1.105 0 2.796 0 4.487 0 5.528 1.109 5.56 2.565zm17.5 10.93v8.515h-4.943v-7.945c0-1.996-.715-3.358-2.504-3.358-1.366 0-2.179.918-2.536 1.805-.13.318-.163.76-.163 1.204v8.294H7.971s.065-13.457 0-14.85h4.943v2.103c.656-1.011 1.83-2.453 4.455-2.453 3.253 0 5.691 2.123 5.691 6.685z"/>
</svg>
