<?xml version="1.0" encoding="UTF-8"?>
<svg width="24px" height="23px" viewBox="0 0 24 23" version="1.1" xmlns="http://www.w3.org/2000/svg" xmlns:xlink="http://www.w3.org/1999/xlink">
    <!-- Generator: Sketch 44 (41411) - http://www.bohemiancoding.com/sketch -->
    <title>Linkedin</title>
    <desc>Created with Sketch.</desc>
    <defs></defs>
    <g id="Symbols" stroke="none" stroke-width="1" fill="none" fill-rule="evenodd">
        <g id="Footer" transform="translate(-1296.000000, -49.000000)" fill="#1870E6">
            <path d="M1301.23492,56.1590312 L1301.23492,71.0096374 L1296.29227,71.0096374 L1296.29227,56.1590312 L1301.23492,56.1590312 Z M1301.56045,51.5651396 C1301.56045,52.9910714 1300.48712,54.1320534 1298.76369,54.1320534 L1298.73211,54.1320534 C1297.07275,54.1320534 1296,52.9910714 1296,51.5651396 C1296,50.1090471 1297.10542,49 1298.79627,49 C1300.48712,49 1301.52837,50.1090471 1301.56045,51.5651396 Z M1319.06,62.4947537 L1319.0598,71.0096374 L1314.11735,71.0096374 L1314.11735,63.0645547 C1314.11735,61.0689204 1313.40212,59.7071541 1311.61286,59.7071541 C1310.24735,59.7071541 1309.43401,60.6251833 1309.07679,61.511869 C1308.9461,61.8296408 1308.91402,62.2723923 1308.91402,62.716228 L1308.91402,71.0100316 L1303.97078,71.0100316 C1303.97078,71.0100316 1304.03592,57.5529296 1303.97078,56.1594255 L1308.91402,56.1594255 L1308.91402,58.2628893 C1309.57002,57.2517166 1310.74493,55.8103102 1313.36915,55.8103102 C1316.62164,55.8103102 1319.06,57.9332898 1319.06,62.4947537 Z" id="Linkedin"></path>
        </g>
    </g>
</svg>