<?xml version="1.0" encoding="UTF-8"?>
<svg width="223px" height="106px" viewBox="0 0 223 106" version="1.1" xmlns="http://www.w3.org/2000/svg" xmlns:xlink="http://www.w3.org/1999/xlink">
    <!-- Generator: Sketch 44.1 (41455) - http://www.bohemiancoding.com/sketch -->
    <title>VestedLogo</title>
    <desc>Created with Sketch.</desc>
    <defs></defs>
    <g id="CandidateDesign" stroke="none" stroke-width="1" fill="none" fill-rule="evenodd">
        <g id="Artboard" transform="translate(-44.000000, -22.000000)" fill-rule="nonzero">
            <g id="VestedLogo" transform="translate(44.000000, 22.000000)">
                <path d="M13.5491417,30.2320833 C21.9572655,12.8525 39.4456287,1.85058333 58.3093812,0.59625 C36.0041515,-1.10743685 14.9497636,11.0122462 5.36802395,31.07125 C5.21668663,31.3848333 5.08760479,31.7028333 4.92291417,32.0208333 C4.96650547,36.9876296 5.70655222,41.9242368 7.12175649,46.6885833 C8.15886228,42.8151667 10.0505788,37.45775 13.5491417,30.2320833 Z" id="Shape" fill="#1B94C0"></path>
                <path d="M30.5122754,92.8648333 C12.9883034,84.5438333 1.88281437,67.1995833 0.596447106,48.4640833 C-1.08953658,70.601598 11.1569329,91.4780658 31.3891417,100.956167 C31.7051697,101.106333 32.0256487,101.234417 32.3461277,101.37575 C37.34463,101.338033 42.313595,100.611163 47.1104192,99.216 C43.2023553,98.19575 37.8031737,96.3275 30.5122754,92.8648333 Z" id="Shape" fill="#166696"></path>
                <path d="M93.570978,55.3496667 L67.4074251,55.3496667 C67.5914039,58.3883333 68.5009115,60.7571389 70.1359481,62.4560833 C71.7709847,64.1550278 73.9460878,65.0059722 76.6612575,65.0089167 C79.0767199,65.0089167 81.0900998,64.5068889 82.7013972,63.5028333 C84.3126946,62.4987778 85.7162741,60.8793333 86.9121357,58.6445 L93.2282435,62.1380833 C91.3884564,65.4034722 89.110978,67.8341111 86.3958084,69.43 C83.6806387,71.0258889 80.4936527,71.8253056 76.8348503,71.82825 C71.5884897,71.82825 67.4118762,70.2411944 64.30501,67.0670833 C61.1981437,63.8929722 59.6447106,59.6573889 59.6447106,54.3603333 C59.6447106,49.2693889 61.2500732,45.0853333 64.4607984,41.8081667 C67.6715236,38.531 71.7962076,36.8924167 76.8348503,36.8924167 C82.1049501,36.8924167 86.2118297,38.3867222 89.155489,41.3753333 C92.0991484,44.3639444 93.570978,48.5538889 93.570978,53.9451667 L93.570978,55.3496667 Z M85.8038124,50.35 C85.5070725,48.0238889 84.616853,46.2483889 83.1331537,45.0235 C81.6494544,43.7986111 79.6019494,43.1876389 76.9906387,43.1905833 C74.5276979,43.1905833 72.5484431,43.7794722 71.0528743,44.95725 C69.5573054,46.1350278 68.5023952,47.9326111 67.8881437,50.35 L85.8038124,50.35 Z M97.6081238,64.5981667 L103.839661,61.2370833 C104.213229,62.7292671 105.115358,64.0382871 106.381238,64.925 C107.624578,65.7700556 109.224005,66.1925833 111.179521,66.1925833 C112.859069,66.1925833 114.176593,65.8112778 115.132096,65.0486667 C116.08497,64.288828 116.617027,63.1247334 116.565349,61.9128333 C116.565349,60.1461667 114.862063,58.6386111 111.455489,57.3901667 C110.304138,56.9779444 109.413919,56.6363889 108.78483,56.3655 C105.286267,54.9256667 102.841131,53.46375 101.449421,51.97975 C100.065617,50.5175978 99.3159388,48.5746306 99.3618563,46.5693333 C99.2914267,43.8016808 100.570959,41.1703147 102.798104,39.5026667 C105.085968,37.7006667 108.117166,36.7996667 111.891697,36.7996667 C114.143708,36.7460648 116.375669,37.2308134 118.399202,38.213 C120.128325,39.0611835 121.520266,40.4610224 122.351776,42.188 L117.037166,45.8185 C116.649506,44.7973825 115.926705,43.9354861 114.98521,43.3716667 C113.961361,42.7554407 112.781782,42.4413791 111.584571,42.46625 C110.364269,42.401723 109.157872,42.7488561 108.161677,43.4511667 C107.316635,44.0868853 106.833982,45.0891591 106.866407,46.1409167 C106.866407,47.8310278 108.795216,49.3724444 112.652834,50.7651667 C113.872435,51.198 114.816068,51.5528056 115.483733,51.8295833 C118.498609,53.0073611 120.655908,54.3485556 121.955629,55.8531667 C123.279305,57.4174853 123.973643,59.4120303 123.90521,61.4535 C123.90521,64.6923889 122.71825,67.2319722 120.344331,69.07225 C117.970413,70.9125278 114.706274,71.8311944 110.551916,71.82825 C107.353061,71.82825 104.695755,71.2393611 102.58,70.0615833 C100.390985,68.7971425 98.6532154,66.8875703 97.6081238,64.5981667 L97.6081238,64.5981667 Z M133.216906,70.49 L133.216906,44.5288333 L127.497246,44.5288333 L127.497246,38.0230833 L133.225808,38.0230833 L133.225808,25.7270833 L140.717006,25.7270833 L140.717006,38.0230833 L146.441118,38.0230833 L146.441118,44.5288333 L140.717006,44.5288333 L140.717006,70.49 L133.216906,70.49 Z M184.404531,55.3496667 L158.24988,55.3496667 C158.433859,58.3883333 159.343367,60.7571389 160.978403,62.4560833 C162.61344,64.1550278 164.788543,65.0059722 167.503713,65.0089167 C169.919175,65.0089167 171.932555,64.5068889 173.543852,63.5028333 C175.15515,62.4987778 176.558729,60.8793333 177.754591,58.6445 L184.070699,62.1380833 C182.230912,65.4034722 179.953433,67.8341111 177.238263,69.43 C174.523094,71.0258889 171.336108,71.8253056 167.677305,71.82825 C162.430945,71.82825 158.254331,70.2411944 155.147465,67.0670833 C152.040599,63.8929722 150.487166,59.6588611 150.487166,54.36475 C150.487166,49.2738056 152.092528,45.08975 155.303253,41.8125833 C158.513979,38.5354167 162.638663,36.8968333 167.677305,36.8968333 C172.947405,36.8968333 177.054285,38.3911389 179.997944,41.37975 C182.941603,44.3683611 184.413433,48.5583056 184.413433,53.9495833 L184.404531,55.3496667 Z M176.646267,50.35 C176.349528,48.0238889 175.459308,46.2483889 173.975609,45.0235 C172.49191,43.7986111 170.435502,43.1891111 167.806387,43.195 C165.343446,43.195 163.364192,43.7838889 161.868623,44.9616667 C160.373054,46.1394444 159.32853,47.9355556 158.73505,50.35 L176.646267,50.35 Z M215.508802,17.4060833 L223,17.4060833 L223,70.49 L215.508802,70.49 L215.508802,66.2765 C213.128858,69.8680297 209.035353,71.9700782 204.705988,71.8238333 C200.079814,71.8238333 196.438816,70.2544444 193.782994,67.1156667 C191.127172,63.9768889 189.791843,59.678 189.777006,54.219 C189.777006,49.0367778 191.134591,44.8527222 193.84976,41.6668333 C196.56493,38.4809444 200.108004,36.8894722 204.478982,36.8924167 C206.871506,36.8231877 209.238398,37.3969806 211.329222,38.5530833 C213.211665,39.6413562 214.674608,41.3214506 215.486547,43.3275 L215.508802,17.4060833 Z M215.718004,54.15275 C215.718004,50.7960833 214.93016,48.1814167 213.354471,46.30875 C211.778782,44.4360833 209.575489,43.5012222 206.744591,43.5041667 C203.913693,43.5041667 201.688144,44.4684722 200.067944,46.3970833 C198.447745,48.3256944 197.634677,51.0021944 197.628743,54.4265833 C197.628743,57.8745278 198.410652,60.5348333 199.974471,62.4075 C201.53829,64.2801667 203.747518,65.2165 206.602156,65.2165 C209.161935,65.2949508 211.609407,64.1723235 213.207585,62.1866667 C214.881198,60.1638333 215.718004,57.4858611 215.718004,54.15275 L215.718004,54.15275 Z" id="Shape" fill="#205595"></path>
                <path d="M90.8647106,81.07675 C81.735509,95.57225 65.853992,104.622 48.8374451,105.74825 C68.7247376,107.256189 87.8322597,97.7720854 98.5428543,81.07675 L90.8647106,81.07675 Z" id="Shape" fill="#06087F"></path>
                <path d="M92.5828343,25.2721667 L98.3692615,25.2721667 C92.9003858,16.6348118 85.047789,9.73665306 75.7443313,5.39716667 C75.4283034,5.247 75.1078244,5.11891667 74.7873453,4.97758333 C69.7888386,5.0152428 64.8198657,5.74211407 60.0230539,7.13733333 C63.9266667,8.15758333 69.3302994,10.0258333 76.6167465,13.4885 C82.6561342,16.3557955 88.0781582,20.3574848 92.5828343,25.2721667 L92.5828343,25.2721667 Z" id="Shape" fill="#30C8FF"></path>
                <path d="M50.1371657,38.0230833 C46.8255489,44.8335833 40.7498004,57.3283333 40.1711577,58.5605833 C39.1429541,56.1358333 30.4677645,38.0230833 30.4677645,38.0230833 L23.0210778,38.0230833 L40.1756088,72.4333333 L57.4458683,38.01425 L50.1371657,38.0230833 Z" id="Shape" fill="#30C8FF"></path>
            </g>
        </g>
    </g>
</svg>