<?xml version="1.0" encoding="UTF-8"?>
<svg width="93px" height="44px" viewBox="0 0 93 44" version="1.1" xmlns="http://www.w3.org/2000/svg" xmlns:xlink="http://www.w3.org/1999/xlink">
    <!-- Generator: Sketch 44.1 (41455) - http://www.bohemiancoding.com/sketch -->
    <title>SkymarkLogoWhite</title>
    <desc>Created with Sketch.</desc>
    <defs></defs>
    <g id="LandingPages" stroke="none" stroke-width="1" fill="none" fill-rule="evenodd">
        <g id="Desktop-HD-Copy-11" transform="translate(-134.000000, -38.000000)" fill-rule="nonzero" fill="#FFFFFF">
            <g id="SkymarkLogoWhite" transform="translate(134.000000, 38.000000)">
                <path d="M5.60569338,12.5491667 C9.08439074,5.335 16.3198603,0.768166667 24.1243703,0.2475 C14.8960161,-0.459690767 6.18517337,4.57112108 2.22091531,12.8975 C2.15830244,13.0276667 2.10489735,13.1596667 2.03675981,13.2916667 C2.05479486,15.3533557 2.36097479,17.4025134 2.94648798,19.3801667 C3.37557029,17.7723333 4.15823116,15.5485 5.60569338,12.5491667 Z" id="Shape"></path>
                <path d="M12.6238594,38.5476667 C5.37365745,35.0936667 0.778977759,27.8941667 0.246768368,20.1171667 C-0.45077453,29.3063237 4.6159636,37.9720273 12.9866458,41.9063333 C13.1173962,41.9686667 13.2499881,42.0218333 13.3825801,42.0805 C15.450613,42.0648441 17.5064254,41.7631244 19.491018,41.184 C17.8741327,40.7605 15.6403265,39.985 12.6238594,38.5476667 Z" id="Shape"></path>
                <path d="M38.7131689,22.9753333 L27.8885087,22.9753333 C27.9646263,24.2366667 28.3409174,25.2199444 29.0173819,25.9251667 C29.6938464,26.6303889 30.593753,26.9836111 31.7171015,26.9848333 C32.716452,26.9848333 33.5494487,26.7764444 34.2160916,26.3596667 C34.8827345,25.9428889 35.4634382,25.2706667 35.9582026,24.343 L38.5713692,25.7931667 C37.8101931,27.1486111 36.8679308,28.1575556 35.7445823,28.82 C34.6212337,29.4824444 33.3026804,29.8142778 31.7889222,29.8155 C29.6183427,29.8155 27.8903503,29.1567222 26.6049449,27.8391667 C25.3195395,26.5216111 24.6768368,24.7634444 24.6768368,22.5646667 C24.6768368,20.4514444 25.3410243,18.7146667 26.6693993,17.3543333 C27.9977743,15.994 29.7042819,15.3138333 31.7889222,15.3138333 C33.9693233,15.3138333 35.6684647,15.9341111 36.8863464,17.1746667 C38.1042281,18.4152222 38.7131689,20.1544444 38.7131689,22.3923333 L38.7131689,22.9753333 Z M35.4996555,20.9 C35.3768851,19.9344444 35.0085741,19.1974444 34.3947225,18.689 C33.7808708,18.1805556 32.9337555,17.9269444 31.8533766,17.9281667 C30.8343828,17.9281667 30.0155047,18.1726111 29.3967422,18.6615 C28.7779798,19.1503889 28.3415312,19.8965556 28.0873966,20.9 L35.4996555,20.9 Z M40.3834593,26.8143333 L42.9616363,25.4191667 C43.116193,26.0385637 43.4894312,26.5819305 44.0131641,26.95 C44.5275718,27.3007778 45.1893039,27.4761667 45.9983604,27.4761667 C46.6932405,27.4761667 47.2383408,27.3178889 47.6336612,27.0013333 C48.0278943,26.6859286 48.2480226,26.2027195 48.226642,25.6996667 C48.226642,24.9663333 47.5219402,24.3405556 46.1125368,23.8223333 C45.6361879,23.6512222 45.2678769,23.5094444 45.0076038,23.397 C43.5601416,22.7993333 42.5485141,22.1925 41.9727212,21.5765 C41.4001991,20.9695689 41.0900345,20.1630542 41.1090319,19.3306667 C41.0798931,18.1818298 41.6092744,17.0895646 42.5307124,16.3973333 C43.4772716,15.6493333 44.7313706,15.2753333 46.2930092,15.2753333 C47.2247352,15.2530835 48.1481653,15.4542999 48.9853626,15.862 C49.7007536,16.2140762 50.2766424,16.7951414 50.6206634,17.512 L48.4218468,19.019 C48.2614601,18.5951399 47.9624153,18.2373716 47.5728899,18.0033333 C47.1492926,17.7475414 46.6612649,17.6171762 46.1659419,17.6275 C45.6610657,17.6007152 45.1619426,17.7448082 44.7497861,18.0363333 C44.4001665,18.3002166 44.2004784,18.7162547 44.2138936,19.1528333 C44.2138936,19.8543889 45.0119008,20.4942222 46.6079151,21.0723333 C47.1125012,21.252 47.5029108,21.3992778 47.7791441,21.5141667 C49.0264907,22.0030556 49.919031,22.5597778 50.456765,23.1843333 C51.0044103,23.8336731 51.2916793,24.6615975 51.2633661,25.509 C51.2633661,26.8534444 50.7722848,27.9076111 49.7901221,28.6715 C48.8079595,29.4353889 47.4574858,29.8167222 45.7387012,29.8155 C44.415237,29.8155 43.3158287,29.5710556 42.4404762,29.0821667 C41.5348137,28.5573044 40.8158456,27.7646518 40.3834593,26.8143333 L40.3834593,26.8143333 Z M55.1158992,29.26 L55.1158992,18.4836667 L52.749501,18.4836667 L52.749501,15.7831667 L55.1195823,15.7831667 L55.1195823,10.6791667 L58.2189193,10.6791667 L58.2189193,15.7831667 L60.587159,15.7831667 L60.587159,18.4836667 L58.2189193,18.4836667 L58.2189193,29.26 L55.1158992,29.26 Z M76.2937815,22.9753333 L65.4728044,22.9753333 C65.548922,24.2366667 65.9252131,25.2199444 66.6016776,25.9251667 C67.2781421,26.6303889 68.1780487,26.9836111 69.3013972,26.9848333 C70.3007477,26.9848333 71.1337444,26.7764444 71.8003873,26.3596667 C72.4670302,25.9428889 73.0477339,25.2706667 73.5424983,24.343 L76.1556649,25.7931667 C75.3944888,27.1486111 74.4522265,28.1575556 73.328878,28.82 C72.2055294,29.4824444 70.886976,29.8142778 69.3732179,29.8155 C67.2026384,29.8155 65.4746459,29.1567222 64.1892406,27.8391667 C62.9038352,26.5216111 62.2611325,24.7640556 62.2611325,22.5665 C62.2611325,20.4532778 62.92532,18.7165 64.253695,17.3561667 C65.58207,15.9958333 67.2885776,15.3156667 69.3732179,15.3156667 C71.553619,15.3156667 73.2527604,15.9359444 74.470642,17.1765 C75.6885237,18.4170556 76.2974646,20.1562778 76.2974646,22.3941667 L76.2937815,22.9753333 Z M73.0839511,20.9 C72.9611808,19.9344444 72.5928698,19.1974444 71.9790182,18.689 C71.3651665,18.1805556 70.5143681,17.9275556 69.4266229,17.93 C68.4076292,17.93 67.5887511,18.1744444 66.9699886,18.6633333 C66.3512261,19.1522222 65.9190745,19.8977778 65.6735339,20.9 L73.0839511,20.9 Z M89.1625677,7.22516667 L92.2619048,7.22516667 L92.2619048,29.26 L89.1625677,29.26 L89.1625677,27.511 C88.1779121,29.0018237 86.484304,29.8743721 84.6931138,29.8136667 C82.7791243,29.8136667 81.2727323,29.1622222 80.1739378,27.8593333 C79.0751434,26.5564444 78.5226769,24.772 78.5165384,22.506 C78.5165384,20.3548889 79.0782126,18.6181111 80.2015612,17.2956667 C81.3249097,15.9732222 82.7907875,15.3126111 84.5991945,15.3138333 C85.5890545,15.2850968 86.5683101,15.523275 87.4333476,16.0031667 C88.2121718,16.4549026 88.8174359,17.1523003 89.1533599,17.985 L89.1625677,7.22516667 Z M89.2491208,22.4785 C89.2491208,21.0851667 88.9231656,19.9998333 88.2712551,19.2225 C87.6193446,18.4451667 86.7077749,18.0571111 85.536546,18.0583333 C84.365317,18.0583333 83.4445395,18.4586111 82.7742135,19.2591667 C82.1038875,20.0597222 81.7674968,21.1707222 81.7650413,22.5921667 C81.7650413,24.0233889 82.0885412,25.1276667 82.7355408,25.905 C83.3825405,26.6823333 84.2965656,27.071 85.4776162,27.071 C86.5366748,27.1035645 87.549269,26.6375683 88.2104838,25.8133333 C88.9029085,24.9736667 89.2491208,23.8620556 89.2491208,22.4785 L89.2491208,22.4785 Z" id="Shape"></path>
                <path d="M37.5935035,33.6545 C33.8164742,39.6715 27.245806,43.428 20.2055413,43.8955 C28.4335211,44.5214368 36.338886,40.5846392 40.7701858,33.6545 L37.5935035,33.6545 Z" id="Shape"></path>
                <path d="M38.3043437,10.4903333 L40.6983652,10.4903333 C38.4357244,6.90501624 35.1868655,4.04162957 31.3377412,2.24033333 C31.2069908,2.178 31.0743988,2.12483333 30.9418069,2.06616667 C28.8737721,2.0817989 26.8179564,2.38351905 24.833369,2.96266667 C26.4484127,3.38616667 28.6840605,4.16166667 31.698686,5.599 C34.1973649,6.78919811 36.4406217,8.45027673 38.3043437,10.4903333 L38.3043437,10.4903333 Z" id="Shape"></path>
                <path d="M20.7432754,15.7831667 C19.3731584,18.6101667 16.8594359,23.7966667 16.6200337,24.3081667 C16.1946345,23.3016667 12.6054439,15.7831667 12.6054439,15.7831667 L9.52452238,15.7831667 L16.6218753,30.0666667 L23.7671086,15.7795 L20.7432754,15.7831667 Z" id="Shape"></path>
            </g>
        </g>
    </g>
</svg>