<?xml version="1.0" encoding="UTF-8"?>
<svg width="26px" height="22px" viewBox="0 0 26 22" version="1.1" xmlns="http://www.w3.org/2000/svg" xmlns:xlink="http://www.w3.org/1999/xlink">
    <!-- Generator: Sketch 44 (41411) - http://www.bohemiancoding.com/sketch -->
    <title>Twitter</title>
    <desc>Created with Sketch.</desc>
    <defs></defs>
    <g id="Symbols" stroke="none" stroke-width="1" fill="none" fill-rule="evenodd">
        <g id="Footer" transform="translate(-1238.000000, -49.000000)" fill="#1870E6">
            <path d="M1250.61963,54.7134651 L1250.67597,55.6424461 L1249.73701,55.5286933 C1246.31919,55.092641 1243.3333,53.613855 1240.7981,51.1302529 L1239.55867,49.8979312 L1239.23943,50.8079534 C1238.56338,52.8365444 1238.9953,54.9788882 1240.40374,56.4197566 C1241.15491,57.216026 1240.98589,57.3297788 1239.69013,56.8558089 C1239.23943,56.7041386 1238.84506,56.5903858 1238.80751,56.6472622 C1238.67605,56.7799737 1239.12675,58.5052241 1239.48356,59.1877407 C1239.97182,60.1356804 1240.96711,61.0646614 1242.05631,61.6144664 L1242.97649,62.0505187 L1241.8873,62.0694775 C1240.83566,62.0694775 1240.7981,62.0884363 1240.91078,62.486571 C1241.28636,63.7188927 1242.76992,65.0270495 1244.42249,65.5958134 L1245.5868,65.9939481 L1244.57272,66.6006295 C1243.07039,67.4727341 1241.30514,67.9656627 1239.5399,68.0035803 C1238.69483,68.0225391 1238,68.0983743 1238,68.1552507 C1238,68.3448386 1240.29106,69.4065311 1241.62439,69.8236246 C1245.62436,71.0559463 1250.3755,70.5251 1253.94355,68.4206738 C1256.47874,66.922929 1259.01393,63.9463982 1260.19702,61.0646614 C1260.83552,59.528999 1261.47401,56.7230974 1261.47401,55.3770229 C1261.47401,54.5049184 1261.53035,54.3911656 1262.58198,53.3484319 C1263.2017,52.7417504 1263.78385,52.0781926 1263.89653,51.8886047 C1264.08432,51.5283876 1264.06554,51.5283876 1263.1078,51.8506871 C1261.51157,52.4194509 1261.28622,52.3436157 1262.07494,51.49047 C1262.6571,50.8837885 1263.35193,49.7841784 1263.35193,49.4618789 C1263.35193,49.4050025 1263.07024,49.4997965 1262.751,49.6704257 C1262.41297,49.8600136 1261.6618,50.1443955 1261.09843,50.3150247 L1260.08435,50.6373242 L1259.16417,50.011684 C1258.65713,49.6704257 1257.94352,49.2912498 1257.56793,49.177497 C1256.6102,48.9120739 1255.14542,48.9499915 1254.28157,49.2533322 C1251.93417,50.1064779 1250.45062,52.3056982 1250.61963,54.7134651 Z" id="Twitter"></path>
        </g>
    </g>
</svg>