<svg xmlns="http://www.w3.org/2000/svg" width="558" height="425" viewBox="0 0 558 425">
    <g fill="none" fill-rule="evenodd">
        <path stroke="#FFF" stroke-linecap="round" stroke-linejoin="round" stroke-width="2.7" d="M211.8 75.9L113.041 2.172M175.4 225.1L2.2 175.7M177.4 233.7L31.9 278.1M184.4 238.1L72 350M225 333.2v90.1"/>
        <path fill="#FFA30A" fill-rule="nonzero" d="M480.243 249.184l-6.224 6.22-6.221-6.223 6.224-6.221zM467.233 34.191l-6.224 6.221-6.22-6.224 6.223-6.221z"/>
        <path stroke="#FFF" stroke-linecap="round" stroke-linejoin="round" stroke-width="2.7" d="M294.2 134L448 43M295.6 147.3L463 242M484.6 256.3L652 351M486.3 247.1l189.9-30.8M476.3 34.1l199.9-.8"/>
        <path stroke="#FFF" stroke-linecap="round" stroke-linejoin="round" stroke-width="2" d="M185.577 211.19C176.6 193.054 159 175.156 159 149.196c0-30.108 21.26-55.83 49.727-62.231M219.476 255.523h-17.363c-6.26 0-11.34-3.793-11.34-8.416v-8.416M285.74 155.597c-3.544 30.938-31.42 49.548-31.42 74.915v13.631c0 6.283-5.079 11.38-11.339 11.38M235.304 86.728c20.788 4.267 37.915 18.965 45.829 38.05M212.271 318.11c-6.614-3.675-11.221-10.787-11.221-18.847M243.926 299.263c0 6.875-3.307 13.039-8.386 17.069"/>
        <path fill="#FF4242" fill-rule="nonzero" d="M229.377 86.605l-7.352 7.348-7.373-7.378 7.351-7.347z"/>
        <path fill="#FFA30A" fill-rule="nonzero" d="M291.946 139.958l-7.352 7.348-7.373-7.378 7.351-7.348z"/>
        <path fill="#0097D9" fill-rule="nonzero" d="M196.24 224.86l-7.353 7.348-7.373-7.378 7.351-7.348z"/>
        <path fill="#FF4242" fill-rule="nonzero" d="M238.782 255.511l-7.351 7.348-7.374-7.378 7.352-7.348z"/>
        <path fill="#0097D9" fill-rule="nonzero" d="M232.082 319.343l-7.351 7.347-7.374-7.378 7.352-7.347z"/>
        <path stroke="#FFF" stroke-linecap="round" stroke-linejoin="round" stroke-width="4" d="M244.635 255.523c3.07 0 5.67 2.608 5.67 5.69v2.963c0 3.082-2.6 5.69-5.67 5.69H200.34c-3.07 0-5.67-2.608-5.67-5.69v-2.963c0-3.082 2.6-5.69 5.67-5.69h18.072"/>
        <path stroke="#FFF" stroke-linecap="round" stroke-linejoin="round" stroke-width="4" d="M250.304 278.519c0 3.082-2.598 5.69-5.67 5.69h-44.293c-3.07 0-5.67-2.608-5.67-5.69v-2.964c0-3.082 2.6-5.69 5.67-5.69h44.294c3.07 0 5.67 2.608 5.67 5.69v2.964z"/>
        <path stroke="#FFF" stroke-linecap="round" stroke-linejoin="round" stroke-width="4" d="M250.304 292.743c0 3.082-2.598 5.69-5.67 5.69h-44.293c-3.07 0-5.67-2.608-5.67-5.69v-2.963c0-3.082 2.6-5.69 5.67-5.69h44.294c3.07 0 5.67 2.608 5.67 5.69v2.963zM223.138 113.398v19.085M223.138 165.554v19.084M259.636 148.01h-19.017M207.783 148.01h-19.135M199.042 123.83l13.465 13.513M235.776 160.694l13.465 13.513M249.241 123.83l-13.465 13.513M212.507 160.694l-13.465 13.513"/>
    </g>
</svg>
