<svg xmlns="http://www.w3.org/2000/svg" width="86" height="87" viewBox="0 0 86 87">
    <path fill="#7ED321" fill-rule="evenodd" d="M78.89 26.148l.25.063a2.872 2.872 0 0 0-.633-.164 7.977 7.977 0 0 0-3.035.203c-3.176.848-4.433 3.383-5.449 5.422l-.129.27-1.11 2.214-.765 1.527c-.437.871-.851 1.758-1.262 2.637-.832-1.098-1.789-2.371-2.84-3.664-3.788-4.684-6.449-7.59-13.155-8.356a55.588 55.588 0 0 0-3.672-.285c.422-.187.851-.343 1.246-.57 4.277-2.438 6.937-6.965 6.937-11.812C55.273 6.117 49.16 0 41.648 0c-7.515 0-13.633 6.117-13.633 13.633 0 5.309 3.133 10.16 7.977 12.367.129.059.25.098.379.148-1.383.106-2.73.239-3.98.41-4.137.57-8.114 1.434-11.216 5.739-4.11 6.39-9.05 15.773-11.637 20.805-1.945 3.824-1.66 6.062 1.172 9.223 0 0 1.266 1.43 2.989 3.359L1.589 81.215l.137-.152a3.265 3.265 0 0 0-.715 3.59 3.276 3.276 0 0 0 3.043 2.03H80.05c1.34 0 2.528-.796 3.043-2.03a3.3 3.3 0 0 0-.714-3.59l.132.152-13.359-17.16c-1.77-2.277-2.675-3.07-5.851-3.07h-3.68a402.5 402.5 0 0 1-.539-7.47 179.683 179.683 0 0 0 2.484 2.524l.461.473c.926.96 1.98 2.05 3.54 2.652 2.5.977 5.378.598 7.511-.984 1.742-1.297 2.703-2.535 7.36-12.31l2.199-4.616c.347-.723.699-1.496 1.094-2.368.992-2.199 2.832-6.296.015-9.863a7.763 7.763 0 0 0-4.855-2.875zM32.3 13.625c0-5.156 4.196-9.351 9.348-9.351 5.152 0 9.34 4.195 9.34 9.351 0 3.317-1.828 6.414-4.766 8.09a9.504 9.504 0 0 1-1.52.691c-1.085.38-2.081.563-3.058.563a9.68 9.68 0 0 1-1.894-.191c-.618-.122-1.262-.348-1.965-.672-3.336-1.52-5.485-4.848-5.485-8.48zm31 50.652c1.848 0 1.899.067 3.25 1.805l13.363 17.16.055.078.07.07v.004H4.054v-.004s0 .004-.008.004l.047-.043c.059-.062.098-.109.098-.109l11.734-15.051c3.363 3.781 7.113 8.004 7.113 8.004.852.926 1.813 1.59 2.895 2.012a7.734 7.734 0 0 0 5.969-.118 7.744 7.744 0 0 0 4.132-4.304c1.012-2.586.579-5.477-1.156-7.73-.476-.548-1.004-1.15-1.547-1.778h29.97zm16.535-27.152c-.379.84-.73 1.594-1.058 2.297-.008.004-2.192 4.602-2.192 4.602-4.379 9.172-5.156 10.047-6.054 10.719-.957.71-2.266.879-3.41.43-.684-.262-1.301-.899-2.008-1.637l-.516-.524a221.423 221.423 0 0 1-6.434-6.695L54.14 41.93l.316 5.95c.223 4.34.52 8.66.883 13.105H30.5c-.34-.399-.66-.782-.988-1.165-.356-.41-.688-.804-1.016-1.191l-.129-13.496L21.21 56.66l.934 1.102c.058.07 5.941 7.043 9.43 11.016.718.949.933 2.273.468 3.453a3.468 3.468 0 0 1-1.86 1.937 3.495 3.495 0 0 1-2.69.059 3.439 3.439 0 0 1-1.274-.887c.04.04-12.312-13.859-12.312-13.859-1.637-1.824-1.68-2.2-.547-4.422 2.54-4.957 7.41-14.199 11.36-20.344 1.89-2.617 4.085-3.336 8.26-3.906 1.802-.25 3.81-.395 5.856-.496l1.145 4.25-2.567 19.812 4.422 4.277 4.149-4.527-3.39-19.61 1.53-4.288c2.184.035 4.317.125 6.16.336 5.09.578 6.84 2.504 10.317 6.797 1.12 1.39 2.191 2.816 3.054 3.964.824 1.102 1.48 1.977 1.942 2.493l2.14 2.414c-.008.02 1.375-2.895 1.375-2.895l1.22-2.55c.487-1.051.995-2.137 1.522-3.18l.762-1.516 1.11-2.23.136-.27c.934-1.867 1.473-2.86 2.715-3.187a3.578 3.578 0 0 1 1.348-.09c.11.031.183.066.336.09a3.51 3.51 0 0 1 2.133 1.289c1.019 1.277.605 2.836-.56 5.433h.001z"/>
</svg>
