<svg xmlns="http://www.w3.org/2000/svg" width="100" height="116" viewBox="0 0 100 116">
    <path fill="#1870E6" fill-rule="evenodd" d="M50 .39a2.341 2.341 0 0 0-2.343 2.342v9.371A2.341 2.341 0 0 0 50 14.446a2.341 2.341 0 0 0 2.343-2.343v-9.37A2.341 2.341 0 0 0 50 .39zM16.873 14.117c-.6 0-1.19.238-1.647.695a2.32 2.32 0 0 0 0 3.295l6.625 6.625a2.32 2.32 0 0 0 3.295 0 2.32 2.32 0 0 0 0-3.294l-6.626-6.626a2.324 2.324 0 0 0-1.647-.695zm66.254 0c-.6 0-1.19.238-1.647.695l-6.626 6.626a2.32 2.32 0 0 0 0 3.294 2.32 2.32 0 0 0 3.295 0l6.625-6.625a2.32 2.32 0 0 0 0-3.295 2.324 2.324 0 0 0-1.647-.695zM50 19.13c-15.497 0-30.455 12.048-30.455 29.102 0 10.752 4.186 17.589 8.053 23.061 3.866 5.473 7.174 9.495 7.174 15.777v14.056c0 3.977 3.295 7.029 7.029 7.029h1.17c0 3.852 3.176 7.028 7.029 7.028 3.853 0 7.028-3.176 7.028-7.028H58.2c3.734 0 7.029-3.052 7.029-7.029V87.071c0-6.282 3.308-10.304 7.174-15.777 3.867-5.472 8.053-12.308 8.053-23.061C80.455 31.179 65.497 19.13 50 19.13zm0 4.686c13.072 0 25.77 10.117 25.77 24.416 0 9.585-3.427 15.05-7.175 20.352-3.363 4.763-7.16 9.471-7.906 16.142H39.31c-.745-6.67-4.543-11.384-7.906-16.142-3.748-5.303-7.175-10.767-7.175-20.352 0-14.3 12.698-24.416 25.77-24.416zm-6.882 4.795c-.32 0-.65.046-.988.147a22.192 22.192 0 0 0-14.02 16.874c-.22 1.208.696 2.526 1.903 2.746 1.208.22 2.49-.696 2.71-1.904a17.595 17.595 0 0 1 11.09-13.36c1.016-.38 1.689-1.529 1.501-2.6-.389-1.409-1.235-1.907-2.196-1.903zM3.146 47.244a2.341 2.341 0 0 0-2.343 2.342 2.341 2.341 0 0 0 2.343 2.343h9.37a2.341 2.341 0 0 0 2.343-2.343 2.341 2.341 0 0 0-2.342-2.342H3.146zm84.337 0a2.341 2.341 0 0 0-2.342 2.342 2.341 2.341 0 0 0 2.342 2.343h9.371a2.341 2.341 0 0 0 2.343-2.343 2.341 2.341 0 0 0-2.343-2.342h-9.37zM39.458 89.412h21.084v4.686H39.458v-4.686zm0 9.371h21.084v2.343c0 1.41-1.13 2.343-2.343 2.343H41.801c-1.213 0-2.343-.934-2.343-2.343v-2.343zm8.2 9.371h4.685c0 1.34-1.002 2.343-2.343 2.343-1.34 0-2.343-1.002-2.343-2.343z"/>
</svg>
