<svg xmlns="http://www.w3.org/2000/svg" width="62" height="81" viewBox="0 0 62 81">
    <path fill="#FFEB3B" fill-rule="evenodd" d="M46.237 3.553h14.04c.621 0 1.155.444 1.155 1.154V79.61c0 .622-.534 1.155-1.155 1.155H1.723A1.176 1.176 0 0 1 .568 79.61V4.707c0-.71.534-1.154 1.155-1.154h14.04V1.155c0-.622.533-1.155 1.155-1.155h28.168c.621 0 1.155.533 1.155 1.155v2.398h-.004zM15.76 5.863H2.875v72.593H59.12V5.862H46.235v2.31c0 .621-.534 1.154-1.155 1.154H16.912a1.176 1.176 0 0 1-1.155-1.154v-2.31h.003zm28.077-3.557h-25.68v4.71h25.68v-4.71zM12.292 51.443c-.71 0-1.154-.534-1.154-1.155 0-.622.445-1.155 1.154-1.155h37.41c.709 0 1.242.533 1.242 1.155 0 .621-.533 1.155-1.243 1.155H12.292zm0 18.747c-.71 0-1.154-.533-1.154-1.155 0-.71.445-1.155 1.154-1.155h37.41c.709 0 1.242.445 1.242 1.155 0 .622-.533 1.155-1.243 1.155H12.292zm0-9.418c-.71 0-1.154-.445-1.154-1.155 0-.621.445-1.154 1.154-1.154h37.41c.709 0 1.242.533 1.242 1.154 0 .71-.533 1.155-1.243 1.155H12.292zm22.925-31.72c3.82 1.688 6.31 5.42 6.31 9.598 0 .621-.533 1.155-1.155 1.155H21.625a1.176 1.176 0 0 1-1.155-1.155c0-4.177 2.49-7.907 6.31-9.598-.265-.265-.533-.445-.71-.621a7.024 7.024 0 0 1 0-9.951c2.666-2.754 7.197-2.754 9.863 0a7.024 7.024 0 0 1 0 9.95c-.177.177-.445.357-.71.622h-.006zm-4.177 1.423c-4.086 0-7.553 3.022-8.175 7.02h16.261c-.621-3.998-4.086-7.02-8.086-7.02zm3.287-10.396a4.832 4.832 0 0 0-6.663 0c-1.776 1.865-1.776 4.887 0 6.664a4.668 4.668 0 0 0 6.663 0c1.776-1.777 1.776-4.8 0-6.664z"/>
</svg>
