<svg xmlns="http://www.w3.org/2000/svg" width="63" height="64" viewBox="0 0 63 64">
    <path fill="#FE3824" fill-rule="evenodd" d="M31.253 1.098a30.911 30.911 0 0 0-24.27 11.617V2.156c0-.691-.558-1.25-1.25-1.25-.691 0-1.25.559-1.25 1.25v14.512a1.052 1.052 0 0 0 .05.387c.052.148.13.29.232.41.054.067.117.13.187.18.031.035.067.062.102.09h.078c.152.074.316.12.48.14h14.641a1.251 1.251 0 0 0 0-2.5H8.081A28.648 28.648 0 0 1 31.253 3.586a28.63 28.63 0 0 1 23.16 11.805 28.645 28.645 0 0 1 4.07 25.676A28.631 28.631 0 0 1 40.11 59.458a28.648 28.648 0 0 1-25.68-4.047A28.629 28.629 0 0 1 2.933 27.92a1.242 1.242 0 0 0-.211-.95 1.243 1.243 0 0 0-.828-.511 1.26 1.26 0 0 0-.946.238 1.266 1.266 0 0 0-.484.84 31.157 31.157 0 0 0 6.16 23.793 31.155 31.155 0 0 0 55.757-17.5 31.157 31.157 0 0 0-8.539-23.046A31.158 31.158 0 0 0 31.252 1.1l.001-.002z"/>
</svg>
