<svg xmlns="http://www.w3.org/2000/svg" width="72" height="86" viewBox="0 0 72 86">
    <g fill="#F5A623" fill-rule="evenodd">
        <path d="M62.926 54.949c5.41-5.777 8.746-13.551 8.746-22.102C71.672 14.98 57.203.495 39.356.495c-17.855 0-32.32 14.484-32.32 32.355 0 1.043.063 2.066.156 3.078-1.12 2.27-2.64 5.281-3.914 7.8a982.09 982.09 0 0 1-1.715 3.38c-.218.433-.398.785-.523 1.035-.062.125-.113.223-.148.297l-.047.09-.04.086-.007.011a5.39 5.39 0 0 0-.469 2.207 5.406 5.406 0 0 0 5.402 5.41h2.414l-.023 9.649v.004c.004 3.832 3.106 6.937 6.934 6.937L25.2 72.83l3.453 11.605c.113.383.375.704.726.895a1.5 1.5 0 0 0 1.145.113l36.69-11.16a1.502 1.502 0 0 0 1-1.87l-5.289-17.464zm-31.82 27.18l-3.344-11.23a1.494 1.494 0 0 0-1.437-1.07l-11.266.004a3.914 3.914 0 0 1-2.781-1.153 3.917 3.917 0 0 1-1.153-2.785v.004l.028-11.152c0-.398-.157-.777-.438-1.062a1.482 1.482 0 0 0-1.062-.442H5.73a2.415 2.415 0 0 1-2.2-3.387l.223-.437c.945-1.867 4.344-8.527 6.313-12.531.125-.258.175-.54.144-.824a30.137 30.137 0 0 1-.176-3.207c0-8.114 3.278-15.441 8.586-20.758C23.934 6.786 31.254 3.5 39.351 3.5c8.102 0 15.422 3.281 20.73 8.598a29.285 29.285 0 0 1 8.59 20.758c0 8.062-3.25 15.34-8.5 20.648-.387.39-.527.964-.367 1.492l5.117 16.855-33.815 10.277z"/>
        <path d="M46.828 36.488c-2.23 0-4.227.98-5.602 2.523l-6.289-3.644c.25-.75.395-1.547.395-2.383 0-.832-.145-1.633-.395-2.383l6.29-3.644a7.47 7.47 0 0 0 5.601 2.523 7.502 7.502 0 0 0 7.5-7.5 7.502 7.502 0 0 0-7.5-7.5 7.497 7.497 0 0 0-7.5 7.5c0 .832.14 1.633.395 2.383l-6.293 3.645a7.464 7.464 0 0 0-5.602-2.524 7.497 7.497 0 0 0-7.5 7.5c0 4.145 3.355 7.5 7.5 7.5 2.23 0 4.227-.98 5.602-2.523l6.293 3.644a7.507 7.507 0 0 0-.395 2.383c0 4.145 3.355 7.5 7.5 7.5a7.502 7.502 0 0 0 7.5-7.5 7.502 7.502 0 0 0-7.5-7.5zm-3.184-17.684a4.477 4.477 0 0 1 3.184-1.316 4.491 4.491 0 0 1 4.5 4.5 4.5 4.5 0 0 1-1.316 3.183 4.484 4.484 0 0 1-3.184 1.317c-1.246 0-2.363-.5-3.184-1.317a4.477 4.477 0 0 1-1.316-3.183c0-1.25.5-2.368 1.316-3.184zM27.828 37.488c-1.25 0-2.363-.5-3.183-1.316a4.477 4.477 0 0 1-1.317-3.184c0-1.25.5-2.363 1.317-3.184a4.477 4.477 0 0 1 3.183-1.316 4.491 4.491 0 0 1 4.5 4.5 4.5 4.5 0 0 1-1.316 3.184 4.524 4.524 0 0 1-3.184 1.316zm22.184 9.68a4.484 4.484 0 0 1-3.183 1.316c-1.246 0-2.364-.5-3.184-1.316a4.477 4.477 0 0 1-1.316-3.184c0-1.25.5-2.363 1.316-3.184a4.477 4.477 0 0 1 3.184-1.316 4.491 4.491 0 0 1 4.5 4.5c0 1.25-.504 2.367-1.317 3.184z"/>
    </g>
</svg>
