<svg xmlns="http://www.w3.org/2000/svg" width="55" height="78" viewBox="0 0 55 78">
    <g fill="#651FFF" fill-rule="evenodd">
        <path d="M50.294.618H5.154A4.546 4.546 0 0 0 .61 5.165V73.13a4.546 4.546 0 0 0 4.546 4.546h45.139a4.546 4.546 0 0 0 4.546-4.546V5.165A4.541 4.541 0 0 0 50.294.618zm.26 69.17a2.92 2.92 0 0 1-2.92 2.92l-39.816-.004a2.92 2.92 0 0 1-2.92-2.92V8.512a2.92 2.92 0 0 1 2.92-2.919h39.82a2.92 2.92 0 0 1 2.92 2.92l-.004 61.276z"/>
        <path d="M9.36 38.195h37.247v-4.46H9.36zM9.36 48.16h37.247V43.7H9.36zM9.36 58.133h37.247v-4.46H9.36zM9.36 68.098h37.247v-4.46H9.36zM19.804 14.071c0 5.378-8.067 5.378-8.067 0s8.067-5.378 8.067 0"/>
        <path d="M8.22 26.707a7.55 7.55 0 0 1 7.55-7.551 7.55 7.55 0 0 1 7.551 7.55M45.06 15.208H32.24a1.544 1.544 0 1 1 0-3.09h12.82a1.544 1.544 0 1 1 0 3.09zM45.06 21.058H32.24a1.544 1.544 0 1 1 0-3.09h12.82a1.544 1.544 0 1 1 0 3.09zM45.06 26.904H32.24a1.544 1.544 0 1 1 0-3.09h12.82a1.544 1.544 0 1 1 0 3.09z"/>
    </g>
</svg>
