<svg xmlns="http://www.w3.org/2000/svg" width="93" height="44" viewBox="0 0 93 44">
    <g fill="#FFF" fill-rule="nonzero">
        <path d="M5.606 12.55C9.084 5.334 16.32.767 24.124.246 14.896-.46 6.185 4.572 2.221 12.898c-.063.13-.116.263-.184.395.018 2.061.324 4.11.91 6.088.429-1.608 1.211-3.831 2.659-6.83zM12.624 38.548C5.374 35.094.779 27.894.247 20.118c-.698 9.188 4.369 17.854 12.74 21.788.13.063.263.116.396.175a22.412 22.412 0 0 0 6.108-.897c-1.617-.423-3.85-1.199-6.867-2.636zM38.713 22.975H27.89c.076 1.262.452 2.245 1.128 2.95.677.705 1.577 1.059 2.7 1.06 1 0 1.832-.209 2.5-.625.666-.417 1.246-1.09 1.741-2.017l2.613 1.45c-.76 1.356-1.703 2.365-2.826 3.027-1.124.662-2.442.994-3.956.995-2.17 0-3.899-.658-5.184-1.976-1.285-1.317-1.928-3.076-1.928-5.274 0-2.114.664-3.85 1.992-5.21 1.329-1.361 3.035-2.041 5.12-2.041 2.18 0 3.88.62 5.097 1.86 1.218 1.241 1.827 2.98 1.827 5.218v.583zM35.5 20.9c-.123-.966-.491-1.703-1.105-2.211-.614-.508-1.461-.762-2.542-.76-1.019 0-1.837.244-2.456.733-.619.488-1.055 1.235-1.31 2.238H35.5zm4.883 5.914l2.579-1.395c.154.62.527 1.163 1.051 1.531.515.35 1.176.526 1.985.526.695 0 1.24-.158 1.636-.475.394-.315.614-.798.593-1.301 0-.734-.705-1.36-2.114-1.878a20.026 20.026 0 0 1-1.105-.425c-1.448-.598-2.46-1.204-3.035-1.82a3.167 3.167 0 0 1-.864-2.246 3.556 3.556 0 0 1 1.422-2.934c.946-.748 2.2-1.122 3.762-1.122a5.832 5.832 0 0 1 2.692.587 3.553 3.553 0 0 1 1.636 1.65l-2.2 1.507a2.019 2.019 0 0 0-.848-1.016 2.617 2.617 0 0 0-1.407-.375 2.247 2.247 0 0 0-1.416.408c-.35.264-.55.68-.536 1.117 0 .701.798 1.341 2.394 1.92.505.179.895.326 1.171.441 1.247.49 2.14 1.046 2.678 1.67.547.65.835 1.478.806 2.325 0 1.344-.49 2.399-1.473 3.163-.982.763-2.333 1.145-4.051 1.143-1.324 0-2.423-.244-3.299-.733a5.03 5.03 0 0 1-2.057-2.268zm14.733 2.446V18.484H52.75v-2.7h2.37v-5.105h3.099v5.104h2.368v2.7H58.22V29.26h-3.103zm21.178-6.285H65.473c.076 1.262.452 2.245 1.129 2.95.676.705 1.576 1.059 2.7 1.06.999 0 1.832-.209 2.498-.625.667-.417 1.248-1.09 1.742-2.017l2.614 1.45c-.762 1.356-1.704 2.365-2.827 3.027-1.123.662-2.442.994-3.956.995-2.17 0-3.898-.658-5.184-1.976-1.285-1.317-1.928-3.075-1.928-5.272 0-2.114.664-3.85 1.993-5.21 1.328-1.361 3.035-2.041 5.12-2.041 2.18 0 3.879.62 5.097 1.86 1.218 1.241 1.826 2.98 1.826 5.218l-.003.581zm-3.21-2.075c-.123-.966-.491-1.703-1.105-2.211-.614-.508-1.465-.761-2.552-.759-1.02 0-1.838.244-2.457.733-.619.49-1.05 1.235-1.296 2.237h7.41zM89.163 7.225h3.099V29.26h-3.1v-1.749a5.147 5.147 0 0 1-4.469 2.303c-1.914 0-3.42-.652-4.52-1.955-1.098-1.303-1.65-3.087-1.656-5.353 0-2.151.561-3.888 1.685-5.21 1.123-1.323 2.589-1.983 4.397-1.982.99-.029 1.97.21 2.834.69a4.039 4.039 0 0 1 1.72 1.981l.01-10.76zm.086 15.254c0-1.394-.326-2.48-.978-3.256-.652-.778-1.563-1.166-2.734-1.165-1.172 0-2.092.4-2.763 1.201-.67.8-1.007 1.912-1.009 3.333 0 1.431.324 2.536.97 3.313.648.777 1.562 1.166 2.743 1.166a3.37 3.37 0 0 0 2.732-1.258c.693-.84 1.04-1.95 1.04-3.334zM37.594 33.654c-3.778 6.017-10.348 9.774-17.388 10.241 8.228.626 16.133-3.31 20.564-10.24h-3.176zM38.304 10.49h2.394a22.185 22.185 0 0 0-9.36-8.25c-.131-.062-.264-.115-.396-.174a22.41 22.41 0 0 0-6.109.897c1.615.423 3.851 1.199 6.866 2.636a21.427 21.427 0 0 1 6.605 4.891zM20.743 15.783c-1.37 2.827-3.884 8.014-4.123 8.525-.425-1.006-4.015-8.525-4.015-8.525h-3.08l7.097 14.284 7.145-14.287-3.024.003z"/>
    </g>
</svg>
