<?xml version="1.0" encoding="UTF-8"?>
<svg width="52px" height="45px" viewBox="0 0 52 45" version="1.1" xmlns="http://www.w3.org/2000/svg" xmlns:xlink="http://www.w3.org/1999/xlink">
    <!-- Generator: Sketch 44.1 (41455) - http://www.bohemiancoding.com/sketch -->
    <title>Employer1</title>
    <desc>Created with Sketch.</desc>
    <defs></defs>
    <g id="LandingPages" stroke="none" stroke-width="1" fill="none" fill-rule="evenodd">
        <g id="Desktop-HD-Copy-6" transform="translate(-854.000000, -662.000000)">
            <g id="Employer1" transform="translate(854.000000, 662.000000)">
                <g id="Group" transform="translate(7.000000, 0.000000)" fill-rule="nonzero" fill="#F0C28E">
                    <g id="Page-1">
                        <circle id="Oval-Copy" cx="22.5" cy="22.5" r="22.5"></circle>
                    </g>
                </g>
                <path d="M31.5242119,4.86317854 L2.47578603,4.86317854 C1.11377248,4.86317854 0,5.97695308 0,7.33896664 L0,39.5242119 C0,40.8862255 1.11377248,42 2.47578603,42 L31.5242119,42 C32.8862255,42 34,40.8862255 34,39.5242119 L34,7.33896664 C34,5.97695308 32.8862255,4.86317854 31.5242119,4.86317854 Z M12.4610562,38.6989492 L12.4610562,32.9221103 L21.5389459,32.9221103 L21.5389459,38.6989492 L12.4610562,38.6989492 Z M30.6989492,38.6989492 L24.8399967,38.6989492 L24.8399967,32.0968476 C24.8399967,30.7348341 23.7262221,29.6210595 22.3642086,29.6210595 L11.6357935,29.6210595 C10.2737799,29.6210595 9.16000539,30.7348341 9.16000539,32.0968476 L9.16000539,38.6989492 L3.30105286,38.6989492 L3.30105286,8.16422934 L30.6989492,8.16422934 L30.6989492,38.6989492 Z M8.74737404,13.1158055 C8.74737404,12.2083467 9.49044058,11.4652801 10.3978994,11.4652801 C11.3053583,11.4652801 12.0484248,12.2083467 12.0484248,13.1158055 C12.0484248,14.0232644 11.3053583,14.7663309 10.3978994,14.7663309 C9.49044058,14.7663309 8.74737404,14.0232644 8.74737404,13.1158055 Z M8.74737404,24.6694833 C8.74737404,23.7620245 9.49044058,23.0189579 10.3978994,23.0189579 C11.3053583,23.0189579 12.0484248,23.7620245 12.0484248,24.6694833 C12.0484248,25.5769422 11.3053583,26.3200087 10.3978994,26.3200087 C9.49044058,26.3200087 8.74737404,25.5769422 8.74737404,24.6694833 Z M8.74737404,18.8926444 C8.74737404,17.9851856 9.49044058,17.242119 10.3978994,17.242119 C11.3053583,17.242119 12.0484248,17.9851856 12.0484248,18.8926444 C12.0484248,19.8001033 11.3053583,20.5431698 10.3978994,20.5431698 C9.49044058,20.5431698 8.74737404,19.8001033 8.74737404,18.8926444 Z M15.3494756,13.1158055 C15.3494756,12.2083467 16.0925422,11.4652801 17.000001,11.4652801 C17.9074599,11.4652801 18.6505264,12.2083467 18.6505264,13.1158055 C18.6505264,14.0232644 17.9074599,14.7663309 17.000001,14.7663309 C16.0925422,14.7663309 15.3494756,14.0232644 15.3494756,13.1158055 Z M15.3494756,24.6694833 C15.3494756,23.7620245 16.0925422,23.0189579 17.000001,23.0189579 C17.9074599,23.0189579 18.6505264,23.7620245 18.6505264,24.6694833 C18.6505264,25.5769422 17.9074599,26.3200087 17.000001,26.3200087 C16.0925422,26.3200087 15.3494756,25.5769422 15.3494756,24.6694833 Z M15.3494756,18.8926444 C15.3494756,17.9851856 16.0925422,17.242119 17.000001,17.242119 C17.9074599,17.242119 18.6505264,17.9851856 18.6505264,18.8926444 C18.6505264,19.8001033 17.9074599,20.5431698 17.000001,20.5431698 C16.0925422,20.5431698 15.3494756,19.8001033 15.3494756,18.8926444 Z M21.9515772,13.1158055 C21.9515772,12.2083467 22.6946438,11.4652801 23.6021026,11.4652801 C24.5095615,11.4652801 25.252628,12.2083467 25.252628,13.1158055 C25.252628,14.0232644 24.5095615,14.7663309 23.6021026,14.7663309 C22.6946438,14.7663309 21.9515772,14.0232644 21.9515772,13.1158055 Z M21.9515772,24.6694833 C21.9515772,23.7620245 22.6946438,23.0189579 23.6021026,23.0189579 C24.5095615,23.0189579 25.252628,23.7620245 25.252628,24.6694833 C25.252628,25.5769422 24.5095615,26.3200087 23.6021026,26.3200087 C22.6946438,26.3200087 21.9515772,25.5769422 21.9515772,24.6694833 Z M21.9515772,18.8926444 C21.9515772,17.9851856 22.6946438,17.242119 23.6021026,17.242119 C24.5095615,17.242119 25.252628,17.9851856 25.252628,18.8926444 C25.252628,19.8001033 24.5095615,20.5431698 23.6021026,20.5431698 C22.6946438,20.5431698 21.9515772,19.8001033 21.9515772,18.8926444 Z" id="Page-1" fill="#293A56"></path>
            </g>
        </g>
    </g>
</svg>