<?xml version="1.0" encoding="UTF-8"?>
<svg width="57px" height="46px" viewBox="0 0 57 46" version="1.1" xmlns="http://www.w3.org/2000/svg" xmlns:xlink="http://www.w3.org/1999/xlink">
    <!-- Generator: Sketch 44.1 (41455) - http://www.bohemiancoding.com/sketch -->
    <title>Employer2</title>
    <desc>Created with Sketch.</desc>
    <defs></defs>
    <g id="LandingPages" stroke="none" stroke-width="1" fill="none" fill-rule="evenodd">
        <g id="Desktop-HD-Copy-6" transform="translate(-162.000000, -1205.000000)" fill-rule="nonzero">
            <g id="Group-7" transform="translate(162.000000, 1205.000000)">
                <g id="Employer2" transform="translate(28.500000, 23.000000) scale(-1, 1) translate(-28.500000, -23.000000) ">
                    <ellipse id="Oval" fill="#F9D015" cx="22.917079" cy="22.8188308" rx="22.9016585" ry="22.7471264"></ellipse>
                    <g id="XMLID_6_" transform="translate(15.776786, 0.505495)">
                        <g id="Group">
                            <polygon id="Shape" fill="#59D999" points="14.255242 5.24278681 14.255242 8.13431648 11.3440687 8.13431648 12.7843366 6.70371648"></polygon>
                            <path d="M40.7297063,20.3066747 L40.7297063,38.9946549 C40.7297063,39.8338769 40.0478438,40.5111385 39.2029205,40.5111385 L1.54220625,40.5111385 C0.890884554,40.5111385 0.31065,40.1016374 0.0969508929,39.484833 C0.0407651786,39.3283875 0.0154205357,39.166422 0.0154205357,39.0047699 L0.0154205357,38.99466 L0.0154205357,20.3066798 C0.0154205357,19.8465837 0.224183036,19.4117018 0.585471429,19.1236204 L6.13772946,14.7156073 L6.13772946,9.64559341 C6.13772946,9.24625275 6.29550241,8.86192527 6.58054821,8.57414725 L14.7030482,0.516362637 C14.9880533,0.233487912 15.3799232,0.071578022 15.7820277,0.071578022 L33.0806116,0.071578022 C33.9252804,0.071578022 34.6073973,0.74883956 34.6073973,1.58806154 L34.6073973,14.8876725 L40.1343056,19.1033956 C40.5107652,19.3914264 40.7297063,19.8364637 40.7297063,20.3066747 Z M37.6761348,36.2297567 L37.6761348,22.9047193 L27.8181375,28.4498424 L37.6761348,36.2297567 Z M34.6073973,21.1455934 L36.4495152,20.1143846 L34.6073973,18.709216 L34.6073973,21.1455934 Z M6.00031875,37.4831253 L34.3579205,37.4831253 L20.3623848,26.4382776 L6.00031875,37.4831253 Z M31.5538259,22.8642242 L31.5538259,3.09959121 L17.3088134,3.09959121 L17.3088134,9.64559341 C17.3088134,10.4848154 16.6269,11.1620769 15.7820277,11.1620769 L9.19130089,11.1620769 L9.19130089,23.001011 L15.257933,26.5290593 L19.4362366,23.3142154 C19.990867,22.8844945 20.7694259,22.8893978 21.3243107,23.3243253 L25.242908,26.4180022 L31.5538259,22.8642242 Z M14.255242,8.13431648 L14.255242,5.24278681 L12.7843366,6.70372154 L11.3440688,8.13431648 L14.255242,8.13431648 L14.255242,8.13431648 Z M3.06899196,35.9058813 L12.6571096,28.5308125 L3.06899196,22.9501532 L3.06899196,35.9058813 Z M6.13772946,21.221367 L6.13772946,18.5979011 L4.22924732,20.1143846 L6.13772946,21.221367 Z" id="Shape" fill="#293A56"></path>
                        </g>
                    </g>
                </g>
            </g>
        </g>
    </g>
</svg>