<?xml version="1.0" encoding="UTF-8"?>
<svg width="45px" height="53px" viewBox="0 0 45 53" version="1.1" xmlns="http://www.w3.org/2000/svg" xmlns:xlink="http://www.w3.org/1999/xlink">
    <!-- Generator: Sketch 44 (41411) - http://www.bohemiancoding.com/sketch -->
    <title>InterviewEmployer</title>
    <desc>Created with Sketch.</desc>
    <defs></defs>
    <g id="LandingPages" stroke="none" stroke-width="1" fill="none" fill-rule="evenodd">
        <g id="Desktop-HD-Copy-6" transform="translate(-164.000000, -1197.000000)" fill-rule="nonzero">
            <g id="Group-7" transform="translate(164.000000, 1197.000000)">
                <g id="InterviewEmployer">
                    <circle id="Oval" fill="#59D999" cx="22.5" cy="30.5" r="22.5"></circle>
                    <g id="Group" transform="translate(2.000000, 0.000000)" fill="#293A56">
                        <path d="M26,21.5 C26,20.67165 25.3231575,20 24.4883586,20 C23.6535899,20 22.9767172,20.67165 22.9767172,21.5 C22.9767172,26.959 18.50112,31.4004 12.9999849,31.4004 C7.49888003,31.4004 3.02328277,26.959 3.02328277,21.5 C3.02328277,20.67165 2.34641006,20 1.51164138,20 C0.676842468,20 0,20.67165 0,21.5 C0,28.1057 5.03016306,33.564445 11.4883435,34.310545 L11.4883435,37 L6.19759866,37 C5.36282998,37 4.68595728,37.671645 4.68595728,38.5 C4.68595728,39.328345 5.36282998,40 6.19759866,40 L19.8023711,40 C20.63717,40 21.3140125,39.328345 21.3140125,38.5 C21.3140125,37.671645 20.63717,37 19.8023711,37 L14.5116263,37 L14.5116263,34.310545 C20.9698369,33.564445 26,28.1057 26,21.5 Z" id="Shape"></path>
                        <path d="M13.5,29 C18.18701,29 22,25.2513814 22,20.6440678 L22,8.3559322 C22,3.74837288 18.18701,0 13.5,0 C8.81302,0 5,3.74837288 5,8.3559322 L5,20.6440678 C5,25.2513814 8.81302,29 13.5,29 Z M8,8.38297872 C8,5.41480426 10.467315,3 13.5,3 C16.532715,3 19,5.41480426 19,8.38297872 L19,20.6170213 C19,23.5854404 16.532715,26 13.5,26 C10.467315,26 8,23.5854404 8,20.6170213 L8,8.38297872 Z" id="Shape"></path>
                        <path d="M12.5,12 C12.894775,12 13.279815,11.8387664 13.559815,11.5570732 C13.839875,11.2751736 14,10.8875232 14,10.4898505 C14,10.0921778 13.839875,9.70452248 13.559815,9.4228796 C13,8.85904013 12,8.85904013 11.43997,9.4228796 C11.15991,9.70451744 11,10.0921778 11,10.4898505 C11,10.8875232 11.15991,11.2751786 11.43997,11.5570732 C11.71997,11.8387664 12.10501,12 12.5,12 Z" id="Shape"></path>
                        <path d="M12.5,17 C12.894775,17 13.279815,16.8387664 13.559815,16.5570732 C13.839875,16.2751736 14,15.8875232 14,15.4898505 C14,15.0921778 13.839875,14.7045225 13.559815,14.4228796 C13,13.8590401 12,13.8590401 11.43997,14.4228796 C11.15991,14.7045174 11,15.0921778 11,15.4898505 C11,15.8875232 11.15991,16.2751786 11.43997,16.5570732 C11.71997,16.8387664 12.10501,17 12.5,17 Z" id="Shape"></path>
                        <path d="M12.5,22 C12.894775,22 13.279815,21.8387664 13.559815,21.5570732 C13.839875,21.2751736 14,20.8875232 14,20.4898505 C14,20.0921778 13.839875,19.7045225 13.559815,19.4228796 C13.004915,18.8590401 11.994875,18.8590401 11.43997,19.4228796 C11.15991,19.7045174 11,20.0921778 11,20.4898505 C11,20.8875232 11.15991,21.2751786 11.43997,21.5570732 C11.71997,21.8387664 12.10501,22 12.5,22 Z" id="Shape"></path>
                    </g>
                </g>
            </g>
        </g>
    </g>
</svg>