<?xml version="1.0" encoding="UTF-8"?>
<svg width="59px" height="45px" viewBox="0 0 59 45" version="1.1" xmlns="http://www.w3.org/2000/svg" xmlns:xlink="http://www.w3.org/1999/xlink">
    <!-- Generator: Sketch 44 (41411) - http://www.bohemiancoding.com/sketch -->
    <title>PersonalizeCandidate</title>
    <desc>Created with Sketch.</desc>
    <defs></defs>
    <g id="LandingPages" stroke="none" stroke-width="1" fill="none" fill-rule="evenodd">
        <g id="Desktop-HD-Copy-5" transform="translate(-847.000000, -709.000000)">
            <g id="Group-7" transform="translate(848.000000, 709.000000)">
                <g id="PersonalizeCandidate">
                    <g id="Page-1">
                        <circle id="Oval-Copy" fill="#59D999" fill-rule="nonzero" cx="35.5" cy="22.5" r="22.5"></circle>
                        <path d="M47.22457,34.6122437 L44.9017797,34.6122437 L44.9017797,11.1257907 C44.9017797,9.15117266 44.1160165,7.36365274 42.854541,6.08028344 C41.5951596,4.79471629 39.84717,4 37.9333535,4 L10.0640575,4 C8.15024087,4 6.4044006,4.79246209 5.14286994,6.08028344 C3.88133928,7.36365274 3.09563124,9.15117266 3.09563124,11.1257907 L3.09563124,34.6122437 L0.772839772,34.6122437 C0.568330833,34.6122437 0.370275314,34.6958968 0.226040547,34.8433888 C0.0818057801,34.9908807 0,35.1956067 0,35.4025361 C0,39.0457653 2.88684574,41.9977458 6.45176793,42 L41.5482332,42 C45.1110061,42 47.9977956,39.0457653 48,35.4025361 C48,35.1934089 47.9181942,34.9908807 47.7739595,34.8433888 C47.6275754,34.6958968 47.4295199,34.6122437 47.2250109,34.6122437 L47.22457,34.6122437 Z M5.00224878,11.6132197 C5.00224878,10.0527333 5.61608274,8.65500686 6.60510222,7.63849928 C7.59634272,6.62421738 8.95843777,6 10.461512,6 L38.5407368,6 C40.043811,6 41.4059616,6.62421738 42.3971466,7.63849928 C43.3883871,8.65500686 44,10.0505647 44,11.6132197 L44,35.3971687 L30.3335187,35.3971687 C30.2792925,35.3971687 30.2272374,35.4038571 30.1773533,35.4127769 C29.8216461,35.4885699 29.5548574,35.8095813 29.5548574,36.1974715 C29.5548574,36.4092477 29.4702699,36.6121098 29.3271141,36.76147 C29.1817929,36.9108302 28.9952607,36.9977686 28.7740306,37 L20.2281071,37 C20.0068715,37 19.8203393,36.9108302 19.6750236,36.76147 C19.5318734,36.6121098 19.4472804,36.4114791 19.4472804,36.1974715 C19.4472804,35.7538537 19.0980752,35.3949715 18.6664813,35.3949715 L5,35.3949715 L5.00224878,11.6132197 Z M45.6199689,38.6089533 C44.7263619,39.4702758 43.4995839,40 42.1364357,40 L6.85964491,40 C5.49655211,40 4.26971873,39.4702811 3.37611167,38.6089533 C2.65775861,37.914471 2.16661316,37.0114519 2,36 L18.0437192,36 C18.1605589,36.3128267 18.3379786,36.5985425 18.5759839,36.8300366 C18.991409,37.2387923 19.5842483,37.4994795 20.2355241,37.4994795 L28.7644781,37.4994795 C29.4157539,37.4994795 30.006433,37.2387923 30.4240183,36.8300366 C30.6620236,36.5985478 30.8394434,36.312832 30.9562831,36 L47,36 C46.829072,37.0114519 46.3379232,37.914471 45.6195701,38.6089533 L45.6199689,38.6089533 Z" id="Fill-1" stroke="#293A56" stroke-width="0.699999988" fill="#293A56"></path>
                        <path d="M16.9002648,30.1018282 C17.4421675,30.6513615 18.189154,30.9884678 19.0074218,30.9976888 L19.0074218,31 L19.0441209,31 L28.964478,30.9815283 C29.7956789,30.9792172 30.5513261,30.6374945 31.1018675,30.0810572 C31.6502479,29.5269074 32,28.744182 32,27.8852647 C32,27.7513467 31.9892058,27.6174286 31.9719341,27.4835047 L31.9740951,27.4835047 L31.6696807,24.6319535 L31.6675196,24.6065543 C31.5250288,23.5583099 31.006881,22.6485585 30.2793108,22.0136064 C29.549585,21.3763489 28.6061314,21 27.5913798,21 L20.3891862,21.0023112 C19.3658126,21.0023112 18.4158924,21.3832884 17.6861666,22.027503 C16.9564409,22.6716762 16.4382875,23.5906486 16.3065798,24.6481731 L16.3044243,24.6712612 L16.0215982,27.5297281 L16.0237538,27.5297281 C16.008643,27.6567186 16.0000099,27.7814037 16.0000099,27.9037777 C15.9978489,28.7650003 16.349762,29.5500901 16.9002979,30.1019346 L16.9002648,30.1018282 Z M19.1317466,23.6779928 C19.5888102,23.25911 20.1938507,23 20.8599085,23 L28.1183446,23 C28.7800006,23 29.3828737,23.254238 29.8377587,23.6682612 C30.2926493,24.0847265 30.5951947,24.6464477 30.6800538,25.2856999 L30.9847666,28.25181 L30.9869396,28.278445 C30.9956484,28.3462442 31,28.4116137 31,28.4769894 C31,28.8668197 30.8498222,29.2299841 30.5842906,29.5133179 C30.3165804,29.7941847 29.9400744,29.978206 29.5025735,29.9806297 L19.5061352,30 L19.499605,30 C19.0621264,30 18.6856149,29.8159787 18.417888,29.5351119 C18.1501778,29.2518215 18,28.8861901 18,28.4963659 C18,28.4358313 18.0043572,28.3753028 18.0108874,28.3123446 L18.0130604,28.2857096 L18.296004,25.3099298 C18.3743552,24.6658429 18.6747164,24.0968818 19.13178,23.6779866 L19.1317466,23.6779928 Z" id="Fill-2" stroke="#293A56" stroke-width="0.699999988" fill="#293A56"></path>
                        <path d="M25.0011415,20 C27.7635654,20 30,17.760771 30,15 C30,12.2369453 27.7612823,10 25.0011415,10 C22.2387177,10 20.0022831,12.239229 20,15 C20.0022889,17.7607125 22.2387177,20 25.0011415,20 Z" id="Fill-3-Copy" stroke="#293A56" stroke-width="1.30000007" fill="#F1E474"></path>
                    </g>
                </g>
            </g>
        </g>
    </g>
</svg>