<?xml version="1.0" encoding="UTF-8"?>
<svg width="40px" height="54px" viewBox="0 0 40 54" version="1.1" xmlns="http://www.w3.org/2000/svg" xmlns:xlink="http://www.w3.org/1999/xlink">
    <!-- Generator: Sketch 50 (54983) - http://www.bohemiancoding.com/sketch -->
    <title>Company</title>
    <desc>Created with Sketch.</desc>
    <defs></defs>
    <g id="Resumes" stroke="none" stroke-width="1" fill="none" fill-rule="evenodd">
        <g id="Candidates" transform="translate(-744.000000, -1805.000000)" fill="#9ABFF1">
            <path d="M744.032488,1805.79497 L744.032488,1858.17364 L757.126526,1858.17364 L757.126526,1850.31671 L770.220564,1850.31671 L770.220564,1858.17364 L783.314602,1858.17364 L783.314602,1805.79497 L744.032488,1805.79497 Z M754.509227,1839.83997 L749.272114,1839.83997 L749.272114,1834.60286 L754.509227,1834.60286 L754.509227,1839.83997 Z M754.509227,1831.98305 L749.272114,1831.98305 L749.272114,1826.74593 L754.509227,1826.74593 L754.509227,1831.98305 Z M754.509227,1824.12612 L749.272114,1824.12612 L749.272114,1818.88901 L754.509227,1818.88901 L754.509227,1824.12612 Z M754.509227,1816.2692 L749.272114,1816.2692 L749.272114,1811.03208 L754.509227,1811.03208 L754.509227,1816.2692 Z M762.366153,1839.83997 L757.12904,1839.83997 L757.12904,1834.60286 L762.366153,1834.60286 L762.366153,1839.83997 Z M762.366153,1831.98305 L757.12904,1831.98305 L757.12904,1826.74593 L762.366153,1826.74593 L762.366153,1831.98305 Z M762.366153,1824.12612 L757.12904,1824.12612 L757.12904,1818.88901 L762.366153,1818.88901 L762.366153,1824.12612 Z M762.366153,1816.2692 L757.12904,1816.2692 L757.12904,1811.03208 L762.366153,1811.03208 L762.366153,1816.2692 Z M770.223078,1839.83997 L764.985966,1839.83997 L764.985966,1834.60286 L770.223078,1834.60286 L770.223078,1839.83997 Z M770.223078,1831.98305 L764.985966,1831.98305 L764.985966,1826.74593 L770.223078,1826.74593 L770.223078,1831.98305 Z M770.223078,1824.12612 L764.985966,1824.12612 L764.985966,1818.88901 L770.223078,1818.88901 L770.223078,1824.12612 Z M770.223078,1816.2692 L764.985966,1816.2692 L764.985966,1811.03208 L770.223078,1811.03208 L770.223078,1816.2692 Z M778.080004,1839.83997 L772.842892,1839.83997 L772.842892,1834.60286 L778.080004,1834.60286 L778.080004,1839.83997 Z M778.080004,1831.98305 L772.842892,1831.98305 L772.842892,1826.74593 L778.080004,1826.74593 L778.080004,1831.98305 Z M778.080004,1824.12612 L772.842892,1824.12612 L772.842892,1818.88901 L778.080004,1818.88901 L778.080004,1824.12612 Z M778.080004,1816.2692 L772.842892,1816.2692 L772.842892,1811.03208 L778.080004,1811.03208 L778.080004,1816.2692 Z" id="Company"></path>
        </g>
    </g>
</svg>