<?xml version="1.0" encoding="UTF-8"?>
<svg width="41px" height="52px" viewBox="0 0 41 52" version="1.1" xmlns="http://www.w3.org/2000/svg" xmlns:xlink="http://www.w3.org/1999/xlink">
    <!-- Generator: Sketch 50 (54983) - http://www.bohemiancoding.com/sketch -->
    <title>StandApart</title>
    <desc>Created with Sketch.</desc>
    <defs></defs>
    <g id="Resumes" stroke="none" stroke-width="1" fill="none" fill-rule="evenodd">
        <g id="Candidates" transform="translate(-114.000000, -1806.000000)" fill="#9ABFF1">
            <g id="StandApart" transform="translate(113.500000, 1806.173638)">
                <path d="M0.570913695,0.343097173 L0.570913695,51.8076731 L28.592346,51.8076731 L28.592346,39.799272 L40.600747,39.799272 L40.600747,0.343097173 L0.570913695,0.343097173 Z M9.14834301,6.06046846 C10.306296,6.06046846 11.3489683,6.75736743 11.7912891,7.82686994 C12.233562,8.89369629 11.9896405,10.1240427 11.1721085,10.9415747 C10.3545766,11.7591066 9.12423014,12.0057249 8.05472763,11.5607553 C6.98790128,11.1184825 6.29100231,10.0757621 6.29100231,8.92048531 C6.29100231,7.34168937 7.56958823,6.06042728 9.14838418,6.06042728 L9.14834301,6.06046846 Z M9.14834301,13.2092411 C10.2875629,13.2092411 11.3784746,13.6622392 12.1826258,14.4663492 C12.9867769,15.2704592 13.4370577,16.3614121 13.4370577,17.4979558 L4.85962835,17.4979558 C4.85962835,15.1284581 6.78152147,13.2092411 9.14834301,13.2092411 Z M36.3092876,36.0814711 L4.85962835,36.0814711 L4.85962835,34.6528144 L36.3092876,34.6528144 L36.3092876,36.0814711 Z M36.3092876,30.3640998 L4.85962835,30.3640998 L4.85962835,28.9354431 L36.3092876,28.9354431 L36.3092876,30.3640998 Z M36.3092876,24.6467285 L4.85962835,24.6467285 L4.85962835,23.2153957 L36.3092876,23.2153957 L36.3092876,24.6467285 Z M36.3092876,17.4979558 L16.2943709,17.4979558 L16.2970539,16.0692992 L36.3119706,16.0692992 L36.3092876,17.4979558 Z M36.3092876,11.7805845 L16.2943709,11.7805845 L16.2970539,10.3492517 L36.3119706,10.3492517 L36.3092876,11.7805845 Z" id="Fill-1"></path>
                <polygon id="Fill-2" points="30.0052201 51.8076731 40.600747 41.2121462 30.0052201 41.2121462"></polygon>
                <path d="M19.1571737,17.8815384 C17.7901374,17.0908367 16.0397928,17.5598848 15.2517672,18.9268869 L20.2025222,18.9268869 C19.9505585,18.4926563 19.5913838,18.133509 19.1571737,17.8815384 Z" id="Fill-3"></path>
            </g>
        </g>
    </g>
</svg>