<?xml version="1.0" standalone="no"?>
<!DOCTYPE svg PUBLIC "-//W3C//DTD SVG 20010904//EN"
 "http://www.w3.org/TR/2001/REC-SVG-20010904/DTD/svg10.dtd">
<svg version="1.0" xmlns="http://www.w3.org/2000/svg"
 width="848.000000pt" height="848.000000pt" viewBox="0 0 848.000000 848.000000"
 preserveAspectRatio="xMidYMid meet">
<metadata>
Created by potrace 1.11, written by Peter Selinger 2001-2013
</metadata>
<g transform="translate(0.000000,848.000000) scale(0.100000,-0.100000)"
fill="#000000" stroke="none">
<path d="M4447 8443 c-1 -1 -49 -4 -107 -7 -58 -4 -118 -8 -135 -10 -16 -2
-61 -7 -98 -11 -37 -3 -78 -8 -90 -11 -12 -2 -41 -7 -63 -10 -23 -2 -53 -7
-65 -10 -34 -6 -91 -16 -114 -20 -11 -1 -20 -3 -20 -4 0 -1 -10 -3 -23 -6
-144 -26 -390 -95 -552 -154 -63 -22 -119 -42 -125 -44 -5 -2 -21 -8 -35 -13
-14 -6 -48 -20 -75 -31 -28 -11 -85 -36 -128 -56 -43 -20 -83 -36 -88 -36 -5
0 -9 -5 -9 -10 0 -6 -3 -9 -7 -8 -12 3 -219 -105 -305 -159 -21 -13 -42 -23
-48 -23 -5 0 -10 -4 -10 -10 0 -5 -6 -10 -13 -10 -7 0 -22 -8 -33 -17 -11 -10
-35 -27 -54 -37 -29 -17 -203 -137 -235 -163 -5 -5 -39 -31 -75 -58 -94 -73
-101 -78 -119 -95 -9 -9 -47 -43 -85 -75 -123 -106 -373 -364 -474 -490 -208
-260 -376 -520 -517 -802 l-73 -144 4 -77 c5 -124 13 -253 19 -302 2 -25 7
-67 11 -95 8 -77 14 -119 19 -145 5 -23 10 -53 20 -124 2 -15 7 -37 11 -48 3
-11 7 -30 9 -41 1 -12 8 -44 15 -72 6 -27 13 -57 15 -65 23 -106 49 -190 57
-182 5 5 10 16 11 23 2 8 6 20 10 27 5 6 5 17 2 22 -3 6 -1 10 6 10 7 0 10 3
6 6 -3 3 3 30 13 60 11 30 16 54 13 54 -3 0 -1 6 4 13 6 6 14 26 18 42 10 37
9 34 24 69 6 16 13 36 15 45 3 14 14 45 33 91 3 8 7 20 8 25 3 12 102 262 115
290 5 11 34 79 65 150 31 72 86 190 121 263 35 73 64 137 64 142 0 6 4 10 10
10 5 0 9 3 8 8 -4 15 97 195 235 416 16 26 11 20 127 176 92 125 142 189 180
230 8 9 44 49 80 90 89 101 290 297 381 370 23 19 47 40 53 45 63 61 434 325
456 325 5 0 10 5 10 10 0 6 4 10 9 10 9 0 119 63 139 80 6 6 12 7 12 3 0 -4 4
-3 8 2 4 6 25 20 47 32 64 34 215 112 218 112 1 -1 33 14 71 31 38 18 74 33
80 34 6 1 25 9 41 18 67 35 469 172 565 193 8 2 42 10 75 18 33 9 71 18 85 21
14 2 45 9 70 15 25 5 59 12 75 15 17 3 41 8 55 11 14 3 43 7 65 10 22 2 51 7
65 10 40 8 187 25 243 27 29 2 38 18 10 19 -42 2 -405 4 -406 2z"/>
<path d="M6207 8083 c-2 -1 -61 -5 -132 -8 -71 -3 -141 -7 -155 -10 -14 -2
-56 -7 -95 -10 -75 -6 -107 -11 -195 -25 -95 -16 -114 -19 -155 -26 -22 -3
-42 -7 -45 -9 -3 -2 -25 -6 -50 -10 -24 -4 -52 -11 -62 -16 -10 -5 -18 -8 -18
-5 0 2 -39 -6 -87 -20 -49 -13 -93 -26 -100 -27 -26 -6 -22 -15 9 -22 18 -4
35 -9 38 -10 3 -1 19 -5 35 -9 17 -4 41 -11 55 -16 14 -4 45 -14 70 -21 25 -7
51 -17 58 -22 6 -5 12 -7 12 -4 0 3 57 -15 128 -40 173 -62 186 -67 272 -103
41 -17 82 -33 91 -35 9 -2 25 -8 35 -13 11 -5 30 -14 44 -20 14 -5 50 -22 81
-36 31 -14 59 -26 62 -26 10 0 102 -43 322 -150 171 -84 235 -118 360 -193 42
-25 284 -187 302 -201 10 -8 63 -50 118 -93 55 -43 110 -87 121 -98 12 -11 48
-42 79 -70 32 -27 108 -101 170 -163 l113 -114 193 0 c107 0 211 1 232 1 l38
1 -62 93 c-34 50 -65 94 -68 97 -4 3 -24 29 -45 59 -45 63 -38 55 -116 151
-112 137 -144 173 -285 315 -131 132 -207 203 -286 268 -19 15 -45 37 -59 48
-14 12 -59 47 -100 78 -41 31 -77 59 -80 62 -5 5 -110 77 -191 129 -39 25
-177 109 -234 142 -55 32 -321 165 -346 172 -25 8 -68 13 -72 9z"/>
<path d="M2420 6101 c0 -3 45 -96 101 -208 55 -111 101 -206 102 -210 0 -4 5
-12 9 -18 15 -19 108 -209 108 -221 0 -7 3 -14 8 -16 7 -3 162 -312 162 -323
0 -3 5 -11 10 -18 10 -11 183 -356 185 -367 0 -3 4 -12 10 -20 10 -15 98 -192
100 -200 0 -3 19 -39 40 -80 21 -41 40 -77 40 -80 5 -19 21 -49 39 -75 12 -16
20 -32 20 -35 -2 -5 110 -233 136 -280 8 -14 15 -27 15 -30 0 -3 231 -465 511
-1028 376 -752 514 -1019 521 -1010 6 7 184 360 396 783 955 1909 1213 2420
1220 2423 4 2 7 8 7 12 0 15 124 264 135 272 5 4 6 8 2 8 -5 0 0 12 10 28 11
15 28 47 38 72 10 25 24 52 30 60 7 8 18 31 25 50 7 19 17 40 21 45 12 16 229
455 229 463 0 5 -713 8 -871 3 -23 -1 -32 -15 -89 -133 -35 -73 -64 -135 -65
-138 -6 -20 -72 -146 -80 -152 -5 -4 -7 -8 -3 -8 4 0 -15 -44 -41 -97 -27 -54
-59 -120 -72 -148 -13 -27 -27 -51 -31 -53 -5 -2 -8 -9 -8 -16 0 -7 -22 -57
-49 -112 -27 -54 -87 -178 -134 -274 -46 -96 -116 -241 -156 -322 -39 -81 -71
-152 -71 -158 0 -5 -4 -10 -10 -10 -5 0 -10 -9 -10 -20 0 -11 -4 -20 -10 -20
-5 0 -10 -7 -10 -16 0 -9 -9 -29 -21 -45 -11 -16 -18 -29 -15 -29 3 0 -28 -66
-68 -147 -40 -82 -81 -166 -92 -188 -10 -22 -23 -43 -28 -47 -6 -4 -8 -8 -4
-8 4 0 -19 -53 -51 -117 -32 -65 -73 -149 -91 -186 -18 -37 -36 -70 -39 -72
-4 -2 -13 11 -21 28 -7 18 -38 83 -67 145 -29 62 -53 115 -53 118 0 2 -22 50
-49 106 -86 183 -133 282 -166 353 -18 39 -56 120 -85 180 -77 162 -136 289
-139 297 -1 4 -27 58 -58 120 -65 132 -146 301 -148 308 0 3 -20 46 -44 95
-130 268 -154 321 -153 328 1 4 -3 7 -8 7 -5 0 -9 3 -8 8 1 4 -20 52 -46 107
-87 180 -136 285 -136 290 2 28 -37 30 -478 30 -248 0 -452 -2 -452 -4z"/>
<path d="M320 4498 c-4 -94 -1 -401 4 -483 7 -107 14 -192 20 -235 3 -19 8
-53 10 -75 3 -22 8 -51 10 -65 2 -14 10 -59 17 -100 7 -41 13 -77 14 -80 8
-35 16 -70 19 -90 3 -14 10 -43 16 -65 6 -22 12 -49 14 -60 2 -11 9 -40 16
-65 7 -25 13 -49 15 -55 1 -5 4 -17 7 -25 3 -8 29 -86 57 -173 45 -137 80
-230 148 -387 40 -92 163 -328 229 -437 41 -68 74 -125 74 -128 0 -3 7 -13 15
-22 8 -10 47 -66 88 -124 41 -59 79 -113 86 -120 6 -8 32 -41 58 -74 26 -33
52 -65 58 -71 5 -6 26 -30 45 -54 105 -130 316 -341 474 -475 32 -28 63 -55
70 -60 26 -24 186 -145 251 -190 210 -146 332 -219 580 -344 l130 -66 115 0
c133 1 316 14 425 30 22 3 54 8 70 10 61 8 102 15 180 31 44 8 89 17 100 18
11 1 26 5 33 9 6 5 12 6 12 4 0 -3 42 6 93 19 50 14 103 27 116 30 56 12 50
21 -31 43 -46 13 -90 26 -98 29 -8 3 -19 6 -25 7 -5 0 -14 3 -20 6 -9 6 -66
21 -72 20 -2 0 -19 7 -40 15 -20 9 -44 17 -52 19 -33 7 -363 135 -526 205
-174 74 -259 112 -401 181 -45 21 -86 39 -92 39 -6 0 -12 3 -14 8 -1 4 -25 18
-53 32 -67 34 -347 200 -363 216 -7 7 -30 23 -52 35 -22 13 -40 26 -40 31 0 4
-5 8 -10 8 -8 0 -223 160 -240 179 -3 4 -32 28 -65 55 -161 133 -549 550 -609
655 -5 9 -15 21 -21 26 -11 9 -84 111 -110 154 -5 9 -26 41 -46 71 -51 79 -72
112 -85 135 -6 11 -28 49 -49 85 -42 73 -176 338 -179 354 -1 6 -12 31 -24 56
-57 120 -188 497 -208 597 -2 12 -9 34 -14 48 -5 14 -7 25 -4 25 2 0 0 9 -6
19 -5 11 -12 37 -15 58 -2 21 -11 69 -20 106 -8 37 -17 80 -19 95 -3 15 -8 43
-12 62 -3 19 -6 42 -6 50 -1 8 -5 21 -11 28 -6 8 -6 12 2 12 7 0 8 8 1 24 -5
13 -9 33 -8 43 0 10 -3 38 -7 63 -4 25 -8 62 -10 83 -5 57 -12 55 -15 -5z"/>
<path d="M7551 1990 c-4 -3 -41 -54 -81 -115 -66 -97 -125 -180 -140 -195 -3
-3 -43 -51 -88 -108 -168 -207 -404 -439 -612 -602 -36 -28 -74 -59 -85 -68
-31 -27 -312 -222 -321 -222 -2 0 -28 -15 -57 -34 -127 -83 -441 -241 -627
-315 -129 -52 -210 -80 -210 -74 0 3 -6 1 -12 -4 -11 -9 -103 -42 -133 -49 -5
-1 -77 -21 -160 -44 -82 -23 -157 -42 -165 -42 -8 0 -40 -6 -70 -14 -50 -12
-128 -26 -220 -38 -19 -3 -44 -7 -56 -10 -19 -4 -47 -8 -161 -21 -23 -3 -60
-6 -82 -7 -47 -2 -47 -9 1 -14 43 -5 405 -4 483 0 119 8 266 22 325 31 19 3
55 8 79 10 24 3 63 10 85 15 23 5 59 11 81 14 52 8 59 9 190 40 281 66 581
171 855 298 41 19 79 35 84 36 5 0 12 4 15 9 3 4 44 28 91 52 47 25 107 57
133 73 26 15 50 28 53 28 3 0 10 5 17 10 24 21 138 90 147 90 6 0 10 4 10 9 0
5 14 14 30 21 17 7 30 16 30 20 0 3 24 22 53 40 28 19 54 37 57 40 3 4 32 26
64 50 56 41 82 61 110 85 6 6 43 37 81 70 173 148 395 372 487 490 12 17 33
41 46 55 12 14 41 51 65 83 23 31 45 57 49 57 5 0 8 7 8 15 0 8 3 15 8 15 4 1
23 25 42 55 19 30 38 55 43 55 4 0 7 5 7 11 0 6 14 30 30 55 17 24 30 44 28
45 -12 4 -601 3 -607 -1z"/>
</g>
</svg>
