<?xml version="1.0" encoding="UTF-8"?>
<svg width="54px" height="58px" viewBox="0 0 54 58" version="1.1" xmlns="http://www.w3.org/2000/svg" xmlns:xlink="http://www.w3.org/1999/xlink">
    <!-- Generator: Sketch 44.1 (41455) - http://www.bohemiancoding.com/sketch -->
    <title>Professional2</title>
    <desc>Created with Sketch.</desc>
    <defs></defs>
    <g id="LandingPages" stroke="none" stroke-width="1" fill="none" fill-rule="evenodd">
        <g id="Desktop-HD-Copy-5" transform="translate(-165.000000, -1272.000000)" fill-rule="nonzero">
            <g id="Professional2" transform="translate(165.000000, 1272.000000)">
                <ellipse id="Oval" fill="#F84D43" cx="23.8050774" cy="23.5880252" rx="23.7887952" ry="23.5133829"></ellipse>
                <g id="Group" transform="translate(13.216071, 15.675676)" fill="#293A56">
                    <path d="M38.6069444,5.29921441 L26.4277537,5.29921441 L19.4403061,0.36587027 C18.957079,0.0247675676 18.3213279,-0.0209009009 17.7929123,0.247727928 C17.2645285,0.51667027 16.9325937,1.05424144 16.9325937,1.64155676 L16.9325937,5.29921441 L12.7034511,5.29921441 C11.8276432,5.29921441 11.1175226,6.00111892 11.1175226,6.86678198 L11.1175226,11.7103045 L1.60195165,11.7103045 C0.726143791,11.7103045 0.0160231642,12.412209 0.0160231642,13.2778721 L0.0160231642,34.3015135 C0.0160231642,35.1671818 0.726143791,35.8690811 1.60195165,35.8690811 L15.6788591,35.8690811 L23.7734434,41.5841712 C24.0475923,41.7772955 24.3704873,41.8757962 24.6955022,41.8757962 C24.9432718,41.8757962 25.192104,41.8183658 25.4208055,41.7023187 C25.949221,41.4333816 26.2811558,40.8952879 26.2811558,40.3082286 L26.2811558,35.8690811 L32.7918786,35.8690811 C33.6676865,35.8690811 34.3778071,35.1671818 34.3778071,34.3015135 L34.3778071,26.7226378 L38.6069497,26.7226378 C39.4827576,26.7226378 40.1928782,26.0207333 40.1928782,25.1550703 L40.1928782,6.86678198 C40.1928729,6.00111892 39.4827523,5.29921441 38.6069444,5.29921441 Z M31.2059448,32.7339459 L24.695222,32.7339459 C23.8193666,32.7339459 23.1092935,33.4358557 23.1092935,34.3015135 L23.1092935,37.2621261 L17.1088855,33.0263495 C16.8399173,32.8359946 16.5177624,32.7339459 16.1870857,32.7339459 L3.18787486,32.7339459 L3.18787486,14.8454396 L31.2059448,14.8454396 L31.2059448,32.7339459 Z M37.021016,23.5875027 L34.3778018,23.5875027 L34.3778018,13.2778721 C34.3778018,12.412209 33.6676812,11.7103045 32.7918733,11.7103045 L14.2893743,11.7103045 L14.2893743,8.43434955 L18.5185169,8.43434955 C19.3943248,8.43434955 20.1044454,7.73244505 20.1044454,6.86678198 L20.1044454,4.68765405 L24.9977167,8.14272973 C25.2667008,8.33256216 25.5888399,8.43434955 25.9195165,8.43434955 L37.021016,8.43434955 L37.021016,23.5875027 Z" id="Shape"></path>
                    <path d="M9.53158881,25.0558432 C9.94922193,25.0558432 10.3563192,24.8889495 10.6521002,24.5958144 C10.9481877,24.303416 11.1175173,23.9008124 11.1175173,23.4882757 C11.1175173,23.0754306 10.9481877,22.6730883 10.6521002,22.3804234 C10.0602316,21.7951512 8.99749567,21.7951512 8.41080258,22.3804234 C8.11471501,22.6730883 7.94566032,23.0754306 7.94566032,23.4882757 C7.94566032,23.9008124 8.11471501,24.303416 8.41080258,24.5958144 C8.70685842,24.8889495 9.11396098,25.0558432 9.53158881,25.0558432 Z" id="Shape"></path>
                    <path d="M17.4294651,25.0558432 C17.8471458,25.0558432 18.2593762,24.8889495 18.5502831,24.5958144 C18.846064,24.303416 19.0153936,23.9008124 19.0153936,23.4882757 C19.0153936,23.0754306 18.846064,22.6730883 18.5502831,22.3804234 C17.9632886,21.7951512 16.9008223,21.7951512 16.3086789,22.3804234 C16.018031,22.6730883 15.8435366,23.0754306 15.8435366,23.4882757 C15.8435366,23.9008124 16.0126442,24.303416 16.3086789,24.5958144 C16.6047717,24.8889495 17.0170127,25.0558432 17.4294651,25.0558432 Z" id="Shape"></path>
                    <path d="M25.3325062,25.0558432 C25.7501869,25.0558432 26.1572525,24.8889495 26.4533401,24.5958144 C26.74938,24.303416 26.9184347,23.9008124 26.9184347,23.4882757 C26.9184347,23.0754306 26.74938,22.6730883 26.4533401,22.3804234 C25.8611491,21.7951512 24.7987356,21.8005332 24.2119949,22.3804234 C23.9159549,22.6730883 23.7465778,23.0754306 23.7465778,23.4882757 C23.7465778,23.9008124 23.9159549,24.3087928 24.2119949,24.5958144 C24.5080983,24.8889495 24.915148,25.0558432 25.3325062,25.0558432 Z" id="Shape"></path>
                </g>
            </g>
        </g>
    </g>
</svg>