<?xml version="1.0" encoding="UTF-8"?>
<svg width="57px" height="51px" viewBox="0 0 57 51" version="1.1" xmlns="http://www.w3.org/2000/svg" xmlns:xlink="http://www.w3.org/1999/xlink">
    <!-- Generator: Sketch 44 (41411) - http://www.bohemiancoding.com/sketch -->
    <title>Walkie_talkie</title>
    <desc>Created with Sketch.</desc>
    <defs></defs>
    <g id="LandingPages" stroke="none" stroke-width="1" fill="none" fill-rule="evenodd">
        <g id="Desktop-HD-Copy-5" transform="translate(-164.000000, -1272.000000)" fill-rule="nonzero">
            <g id="Group-8" transform="translate(164.000000, 1272.000000)">
                <g id="Walkie_talkie">
                    <circle id="Oval" fill="#F84D43" cx="23.5" cy="23.5" r="23.5"></circle>
                    <g id="Group" transform="translate(16.000000, 9.000000)" fill="#293A56">
                        <path d="M40.5525719,8.78444152 C40.2662224,8.49058895 39.8777136,8.32529493 39.4727976,8.32529493 L38.4380146,8.32529493 L38.4380146,7.26392038 C38.4380146,6.39819155 37.7541764,5.69670672 36.9108173,5.69670672 C36.0673972,5.69670672 35.3836201,6.39819155 35.3836201,7.26392038 L35.3836201,8.32529493 L29.9098906,8.32582256 C29.9171295,8.26407956 29.9280693,8.20389334 29.9280693,8.14036372 C29.9280693,7.42895842 29.4630021,6.83513594 28.8301163,6.64383662 L28.8301163,1.56721366 C28.8301163,0.701740812 28.1463392,0 27.302919,0 C26.45956,0 25.7757217,0.701740812 25.7757217,1.56721366 L25.7757217,6.64383662 C25.1429021,6.83513072 24.6778298,7.42895842 24.6778298,8.14036372 C24.6778298,8.20389334 24.6887646,8.26460197 24.6961918,8.32582256 L24.5271973,8.32582256 C23.6837771,8.32582256 23,9.02756337 23,9.89303622 L23,34.4327863 C23,34.8485681 23.1607935,35.2470009 23.447423,35.5408534 C23.7337725,35.834706 24.1222813,36 24.5271973,36 L39.4728027,35.9997283 C40.3161618,35.9997283 41,35.2980346 41,34.4325147 L41,9.89250859 C40.9999949,9.47725443 40.8391709,9.07829408 40.5525719,8.78444152 Z M38,31.9997335 L26,32 L26,11.0005176 L38,11 L38,31.9997335 Z" id="Shape"></path>
                        <path d="M29.5972267,18 L35.4027733,18 C36.2848683,18 37,17.32834 37,16.5 C37,15.671585 36.2848683,15 35.4027733,15 L29.5972267,15 C28.7151955,15 28,15.671585 28,16.5 C28,17.32834 28.7151955,18 29.5972267,18 Z" id="Shape"></path>
                        <path d="M29.5972267,23 L35.4027733,23 C36.2848683,23 37,22.328355 37,21.5 C37,20.6716 36.2848683,20 35.4027733,20 L29.5972267,20 C28.7151955,20 28,20.6716 28,21.5 C28,22.328355 28.7151955,23 29.5972267,23 Z" id="Shape"></path>
                        <path d="M32.4369525,28 L31.5630475,28 C30.699891,28 30,28.6714 30,29.5 C30,30.328155 30.699891,31 31.5630475,31 L32.4369525,31 C33.3001403,31 34,30.328155 34,29.5 C34,28.6714 33.3001403,28 32.4369525,28 Z" id="Shape"></path>
                        <path d="M16.4728053,14.3258854 L15.4377746,14.3258854 L15.4377746,13.2634528 C15.4377746,12.3979264 14.7539375,11.6962273 13.9105799,11.6962273 C13.0671612,11.6962273 12.3833853,12.3979264 12.3833853,13.2634528 L12.3833853,14.3258854 L6.90990937,14.3261414 C6.91714828,14.2643979 6.92808808,14.2039552 6.92808808,14.1404251 C6.92808808,13.4290145 6.46298603,12.8351875 5.83013692,12.6440957 L5.83013692,7.56722548 C5.83013692,6.70169909 5.14636096,6 4.30294225,6 C3.45955409,6 2.77574758,6.70169909 2.77574758,7.56722548 L2.77574758,12.6440957 C2.14292902,12.8351823 1.67782697,13.4290145 1.67782697,14.1404251 C1.67782697,14.2039552 1.68879732,14.2643927 1.69621949,14.3261414 L1.52719467,14.3261414 C0.683837048,14.3261414 0,15.0275845 0,15.8933668 L0,40.4327745 C0,40.8485594 0.16082378,41.2469952 0.447422223,41.5408499 C0.733771223,41.8347047 1.12230991,42 1.52719467,42 L16.4728053,41.999744 C17.316163,41.999744 18,41.2979822 18,40.4325185 L18,15.8931109 C18,15.4770543 17.8391762,15.0786186 17.5525778,14.7847638 C17.2662288,14.490909 16.8776901,14.3258854 16.4728053,14.3258854 Z M15,37.9997489 L3,38 L3,17.0002511 L15,17 L15,37.9997489 Z" id="Shape"></path>
                        <path d="M6.59718044,23 L12.4028196,22.9995401 C13.2851499,22.9995401 14,22.328258 14,21.499985 C14,20.671757 13.2848891,20 12.4028196,20 L6.59718044,20.0004599 C5.71488199,20.0004599 5,20.672002 5,21.50023 C5,22.3287479 5.71514287,23 6.59718044,23 Z" id="Shape"></path>
                        <path d="M6.59718044,29 L12.4028196,28.999755 C13.2851499,28.999755 14,28.3281649 14,27.4996175 C14,26.6715452 13.2848891,26 12.4028196,26 L6.59718044,26.000245 C5.71488199,26.000245 5,26.6720501 5,27.5001225 C5,28.3286548 5.71514287,29 6.59718044,29 Z" id="Shape"></path>
                        <path d="M9.43695251,34 L9.43644192,34 L8.56253689,34.0002 C7.69934917,34.000705 6.99974477,34.6723052 7.00000007,35.500605 C7.00025537,36.3292097 7.69989102,37 8.56304749,37 L8.56355808,37 L9.43743185,36.9998 C10.3006508,36.999555 11.0002552,36.3279548 10.9999999,35.499395 C10.9997446,34.6713152 10.300109,34 9.43695251,34 Z" id="Shape"></path>
                    </g>
                </g>
            </g>
        </g>
    </g>
</svg>