<?xml version="1.0" encoding="UTF-8"?>
<svg width="64px" height="85px" viewBox="0 0 64 85" version="1.1" xmlns="http://www.w3.org/2000/svg" xmlns:xlink="http://www.w3.org/1999/xlink">
    <!-- Generator: Sketch 44.1 (41455) - http://www.bohemiancoding.com/sketch -->
    <title>Accounting</title>
    <desc>Created with Sketch.</desc>
    <defs></defs>
    <g id="LandingPages" stroke="none" stroke-width="1" fill="none" fill-rule="evenodd">
        <g id="Desktop-HD-Copy-10" transform="translate(-289.000000, -1322.000000)" fill="#FFFFFF">
            <g id="Group-8" transform="translate(252.000000, 1322.000000)">
                <path d="M96.84,2.27373675e-13 L41.08,2.27373675e-13 C38.769088,2.27373675e-13 37,1.769088 37,4.08 L37,80.24 C37,82.550912 38.769088,84.32 41.08,84.32 L96.84,84.32 C99.150912,84.32 100.92,82.550912 100.92,80.24 L100.92,4.08 C100.92,1.769088 99.150912,2.27373675e-13 96.84,2.27373675e-13 Z M98.2,80.24 C98.2,81.0581216 97.6581216,81.6 96.84,81.6 L41.08,81.6 C40.2618784,81.6 39.72,81.0581216 39.72,80.24 L39.72,4.08 C39.72,3.2618784 40.2618784,2.72 41.08,2.72 L96.84,2.72 C97.6581216,2.72 98.2,3.2618784 98.2,4.08 L98.2,80.24 Z M92.76,6.8 L45.16,6.8 C44.3418784,6.8 43.8,7.3418784 43.8,8.16 L43.8,21.76 C43.8,22.5781216 44.3418784,23.12 45.16,23.12 L92.76,23.12 C93.5781216,23.12 94.12,22.5781216 94.12,21.76 L94.12,8.16 C94.12,7.3418784 93.5781216,6.8 92.76,6.8 Z M91.4,20.4 L46.52,20.4 L46.52,9.52 L91.4,9.52 L91.4,20.4 Z M92.76,27.2 L45.16,27.2 C44.3418784,27.2 43.8,27.7418784 43.8,28.56 L43.8,76.16 C43.8,76.9781216 44.3418784,77.52 45.16,77.52 L92.76,77.52 C93.5781216,77.52 94.12,76.9781216 94.12,76.16 L94.12,28.56 C94.12,27.7418784 93.5781216,27.2 92.76,27.2 Z M59.71064,74.8 L46.519728,74.8 L46.519728,61.609088 L59.71064,61.609088 L59.71064,74.8 Z M59.71064,58.88936 L46.519728,58.88936 L46.519728,45.698448 L59.71064,45.698448 L59.71064,58.88936 Z M59.71064,43.11064 L46.519728,43.11064 L46.519728,29.919728 L59.71064,29.919728 L59.71064,43.11064 Z M75.48936,74.8 L62.298448,74.8 L62.298448,61.609088 L75.48936,61.609088 L75.48936,74.8 Z M75.48936,58.88936 L62.298448,58.88936 L62.298448,45.698448 L75.48936,45.698448 L75.48936,58.88936 Z M75.48936,43.11064 L62.298448,43.11064 L62.298448,29.919728 L75.48936,29.919728 L75.48936,43.11064 Z M91.4,74.8 L78.209088,74.8 L78.209088,45.83064 L91.4,45.83064 L91.4,74.8 Z M91.4,43.11064 L78.209088,43.11064 L78.209088,29.919728 L91.4,29.919728 L91.4,43.11064 Z" id="Accounting"></path>
            </g>
        </g>
    </g>
</svg>