<?xml version="1.0" encoding="UTF-8"?>
<svg width="558px" height="425px" viewBox="0 0 558 425" version="1.1" xmlns="http://www.w3.org/2000/svg" xmlns:xlink="http://www.w3.org/1999/xlink">
    <!-- Generator: Sketch 44.1 (41455) - http://www.bohemiancoding.com/sketch -->
    <title>Bulb</title>
    <desc>Created with Sketch.</desc>
    <defs></defs>
    <g id="LandingPages" stroke="none" stroke-width="1" fill="none" fill-rule="evenodd">
        <g id="Desktop-HD-Copy-11" transform="translate(-882.000000, -138.000000)">
            <g id="Bulb" transform="translate(884.000000, 140.000000)">
                <path d="M209.8,73.9 L111.040954,0.171720451" id="Shape" stroke="#FFFFFF" stroke-width="2.70000005" stroke-linecap="round" stroke-linejoin="round"></path>
                <path d="M173.4,223.1 L0.2,173.7" id="Shape" stroke="#FFFFFF" stroke-width="2.70000005" stroke-linecap="round" stroke-linejoin="round"></path>
                <path d="M175.4,231.7 L29.9,276.1" id="Shape" stroke="#FFFFFF" stroke-width="2.70000005" stroke-linecap="round" stroke-linejoin="round"></path>
                <path d="M182.4,236.1 L70,348" id="Shape" stroke="#FFFFFF" stroke-width="2.70000005" stroke-linecap="round" stroke-linejoin="round"></path>
                <path d="M223,331.2 L223,421.3" id="Shape" stroke="#FFFFFF" stroke-width="2.7" stroke-linecap="round" stroke-linejoin="round"></path>
                <rect id="Rectangle-path" fill="#FFA30A" fill-rule="nonzero" transform="translate(472.020120, 247.182240) rotate(135.016206) translate(-472.020120, -247.182240) " x="467.620162" y="242.782282" width="8.79991596" height="8.79991596"></rect>
                <rect id="Rectangle-path" fill="#FFA30A" fill-rule="nonzero" transform="translate(459.010920, 32.189640) rotate(135.016206) translate(-459.010920, -32.189640) " x="454.610962" y="27.789682" width="8.79991596" height="8.79991596"></rect>
                <path d="M292.2,132 L446,41" id="Shape" stroke="#FFFFFF" stroke-width="2.69999981" stroke-linecap="round" stroke-linejoin="round"></path>
                <path d="M293.6,145.3 L461,240" id="Shape" stroke="#FFFFFF" stroke-width="2.69999981" stroke-linecap="round" stroke-linejoin="round"></path>
                <path d="M482.6,254.3 L650,349" id="Shape" stroke="#FFFFFF" stroke-width="2.69999981" stroke-linecap="round" stroke-linejoin="round"></path>
                <path d="M484.3,245.1 L674.2,214.3" id="Shape" stroke="#FFFFFF" stroke-width="2.69999981" stroke-linecap="round" stroke-linejoin="round"></path>
                <path d="M474.3,32.1 L674.2,31.3" id="Shape" stroke="#FFFFFF" stroke-width="2.69999981" stroke-linecap="round" stroke-linejoin="round"></path>
                <g id="Group-11" transform="translate(157.000000, 77.000000)">
                    <g id="Group" transform="translate(0.000000, 7.372139)" stroke="#FFFFFF" stroke-width="2" stroke-linecap="round" stroke-linejoin="round">
                        <path d="M26.5768116,124.818294 C17.6,106.682303 0.000724637681,88.7833831 0.000724637681,62.8240227 C0.000724637681,32.7159062 21.2615942,6.99361763 49.7275362,0.59267946" id="Shape"></path>
                    </g>
                    <path d="M60.476087,176.522857 L43.1130435,176.522857 C36.8528986,176.522857 31.773913,172.729709 31.773913,168.106809 C31.773913,163.483909 31.773913,159.69076 31.773913,159.69076" id="Shape" stroke="#FFFFFF" stroke-width="2" stroke-linecap="round" stroke-linejoin="round"></path>
                    <path d="M126.73913,76.5971002 C123.195652,107.534968 95.3202899,126.145103 95.3202899,151.511784 L95.3202899,165.143412 C95.3202899,171.425814 90.2413043,176.522857 83.9811594,176.522857" id="Shape" stroke="#FFFFFF" stroke-width="2" stroke-linecap="round" stroke-linejoin="round"></path>
                    <g id="Group" transform="translate(75.949275, 7.372139)" stroke="#FFFFFF" stroke-width="2" stroke-linecap="round" stroke-linejoin="round">
                        <path d="M0.354347826,0.355607676 C21.1427536,4.62289979 38.2695652,19.3213504 46.1833333,38.405629" id="Shape"></path>
                    </g>
                    <path d="M53.2710145,239.109808 C46.6565217,235.435195 42.05,228.323042 42.05,220.262601" id="Shape" stroke="#FFFFFF" stroke-width="2" stroke-linecap="round" stroke-linejoin="round"></path>
                    <path d="M84.926087,220.262601 C84.926087,227.137683 81.6188406,233.301549 76.5398551,237.33177" id="Shape" stroke="#FFFFFF" stroke-width="2" stroke-linecap="round" stroke-linejoin="round"></path>
                    <rect id="Rectangle-path" fill="#FF4242" fill-rule="nonzero" transform="translate(63.014670, 7.590257) rotate(135.016206) translate(-63.014670, -7.590257) " x="57.8176184" y="2.37472776" width="10.3941036" height="10.4310589"></rect>
                    <rect id="Rectangle-path" fill="#FFA30A" fill-rule="nonzero" transform="translate(125.583271, 60.943416) rotate(135.016206) translate(-125.583271, -60.943416) " x="120.38622" y="55.7278868" width="10.3941036" height="10.4310589"></rect>
                    <rect id="Rectangle-path" fill="#0097D9" fill-rule="nonzero" transform="translate(29.876132, 145.844737) rotate(135.016206) translate(-29.876132, -145.844737) " x="24.6790806" y="140.629208" width="10.3941036" height="10.4310589"></rect>
                    <rect id="Rectangle-path" fill="#FF4242" fill-rule="nonzero" transform="translate(72.419900, 176.496044) rotate(135.016206) translate(-72.419900, -176.496044) " x="67.2228483" y="171.280515" width="10.3941036" height="10.4310589"></rect>
                    <rect id="Rectangle-path" fill="#0097D9" fill-rule="nonzero" transform="translate(65.719443, 240.328144) rotate(135.016206) translate(-65.719443, -240.328144) " x="60.5223908" y="235.112614" width="10.3941036" height="10.4310589"></rect>
                    <path d="M85.6347826,176.522857 C88.7057971,176.522857 91.3043478,179.130647 91.3043478,182.21258 L91.3043478,185.175977 C91.3043478,188.25791 88.7057971,190.8657 85.6347826,190.8657 L41.3413043,190.8657 C38.2702899,190.8657 35.6717391,188.25791 35.6717391,185.175977 L35.6717391,182.21258 C35.6717391,179.130647 38.2702899,176.522857 41.3413043,176.522857 L59.4130435,176.522857" id="Shape" stroke="#FFFFFF" stroke-width="4" stroke-linecap="round" stroke-linejoin="round"></path>
                    <path d="M91.3043478,199.51882 C91.3043478,202.600753 88.7057971,205.208543 85.6347826,205.208543 L41.3413043,205.208543 C38.2702899,205.208543 35.6717391,202.600753 35.6717391,199.51882 L35.6717391,196.555423 C35.6717391,193.47349 38.2702899,190.8657 41.3413043,190.8657 L85.6347826,190.8657 C88.7057971,190.8657 91.3043478,193.47349 91.3043478,196.555423 L91.3043478,199.51882 Z" id="Shape" stroke="#FFFFFF" stroke-width="4" stroke-linecap="round" stroke-linejoin="round"></path>
                    <path d="M91.3043478,213.743127 C91.3043478,216.82506 88.7057971,219.43285 85.6347826,219.43285 L41.3413043,219.43285 C38.2702899,219.43285 35.6717391,216.82506 35.6717391,213.743127 L35.6717391,210.77973 C35.6717391,207.697797 38.2702899,205.090007 41.3413043,205.090007 L85.6347826,205.090007 C88.7057971,205.090007 91.3043478,207.697797 91.3043478,210.77973 L91.3043478,213.743127 Z" id="Shape" stroke="#FFFFFF" stroke-width="4" stroke-linecap="round" stroke-linejoin="round"></path>
                    <path d="M64.1376812,34.3983227 L64.1376812,53.4826013" id="Shape" stroke="#FFFFFF" stroke-width="4" stroke-linecap="round" stroke-linejoin="round"></path>
                    <path d="M64.1376812,86.5541151 L64.1376812,105.638394" id="Shape" stroke="#FFFFFF" stroke-width="4" stroke-linecap="round" stroke-linejoin="round"></path>
                    <path d="M100.635507,69.0108031 L81.6188406,69.0108031" id="Shape" stroke="#FFFFFF" stroke-width="4" stroke-linecap="round" stroke-linejoin="round"></path>
                    <path d="M48.7826087,69.0108031 L29.6478261,69.0108031" id="Shape" stroke="#FFFFFF" stroke-width="4" stroke-linecap="round" stroke-linejoin="round"></path>
                    <path d="M40.042029,44.8294812 L53.5072464,58.3425729" id="Shape" stroke="#FFFFFF" stroke-width="4" stroke-linecap="round" stroke-linejoin="round"></path>
                    <path d="M76.776087,81.6941436 L90.2413043,95.2072353" id="Shape" stroke="#FFFFFF" stroke-width="4" stroke-linecap="round" stroke-linejoin="round"></path>
                    <path d="M90.2413043,44.8294812 L76.776087,58.3425729" id="Shape" stroke="#FFFFFF" stroke-width="4" stroke-linecap="round" stroke-linejoin="round"></path>
                    <path d="M53.5072464,81.6941436 L40.042029,95.2072353" id="Shape" stroke="#FFFFFF" stroke-width="4" stroke-linecap="round" stroke-linejoin="round"></path>
                </g>
            </g>
        </g>
    </g>
</svg>