<svg xmlns="http://www.w3.org/2000/svg" width="49" height="53" viewBox="0 0 49 53">
    <g fill="none" fill-rule="nonzero">
        <path fill="#68B9D8" d="M24.585 25.256h-.02c-5.484.075-10.115 4.57-10.115 9.815v2.93c0 .423.343.766.766.766h18.718a.766.766 0 0 0 .766-.766v-2.93c0-5.245-4.632-9.74-10.115-9.815z"/>
        <path fill="#3695B2" d="M24.585 25.256h-.02c-.467.007-.927.046-1.38.114 4.86.732 8.737 4.903 8.737 9.702v2.93a.766.766 0 0 1-.766.766h2.777A.766.766 0 0 0 34.7 38v-2.93c0-5.245-4.632-9.74-10.115-9.815z"/>
        <g fill="#465A65">
            <path d="M29.58 4.73L24.999.24a.767.767 0 0 0-1.303.547V2.13C17.6 2.348 11.9 4.834 7.576 9.177A23.831 23.831 0 0 0 .59 26.098 24.02 24.02 0 0 0 12.93 47.07a.766.766 0 0 0 1.048-.309l2.347-4.39a.766.766 0 0 0-.3-1.03 17.512 17.512 0 0 1-8.926-15.243c0-4.649 1.806-9.024 5.083-12.32a17.356 17.356 0 0 1 11.513-5.132v1.123a.766.766 0 0 0 1.303.547l4.581-4.491a.766.766 0 0 0 0-1.095zM45.36 14.123a24.137 24.137 0 0 0-8.42-8.58.766.766 0 0 0-1.072.295l-2.35 4.398a.766.766 0 0 0 .27 1.012 17.601 17.601 0 0 1 5.992 6.231 17.472 17.472 0 0 1 2.27 8.62c0 4.601-1.774 8.945-4.995 12.23a17.367 17.367 0 0 1-11.321 5.204V42.5a.766.766 0 0 0-1.303-.547l-4.581 4.492a.767.767 0 0 0 0 1.094l4.581 4.492a.767.767 0 0 0 1.303-.547v-1.431c6.038-.287 11.671-2.802 15.933-7.13a23.84 23.84 0 0 0 6.893-16.825c0-4.21-1.107-8.35-3.2-11.975z"/>
        </g>
        <path fill="#F2464F" d="M27.724 33.946l-1.28-5.552a.787.787 0 0 0-.766-.61h-2.206a.787.787 0 0 0-.767.61l-1.28 5.552a.787.787 0 0 0 .236.758l2.383 2.18a.785.785 0 0 0 1.062 0l2.382-2.18c.21-.192.3-.481.236-.758z"/>
        <path fill="#D3333C" d="M22.639 28.672h3.872l1.433-2.798a10.248 10.248 0 0 0-3.38-.618c-1.186.017-2.333.24-3.402.633l1.477 2.783z"/>
        <path fill="#AF273B" d="M25.826 25.35l-1.71 3.322h2.395l1.433-2.798a10.297 10.297 0 0 0-2.118-.523z"/>
        <path fill="#D3333C" d="M24.044 36.884a.785.785 0 0 0 1.062 0l2.382-2.18c.21-.192.3-.481.236-.758l-1.216-5.275h-2.392l1.246 5.408-2.192 2.006.874.799z"/>
        <path fill="#FFC89F" d="M24.575 12.47a5.245 5.245 0 0 0-5.24 5.239v3.849a5.245 5.245 0 0 0 5.24 5.238 5.245 5.245 0 0 0 5.239-5.238v-3.85a5.245 5.245 0 0 0-5.24-5.238z"/>
        <path fill="#F7B081" d="M24.575 12.47c-.488 0-.96.068-1.409.194a5.247 5.247 0 0 1 3.83 5.045v3.849c0 2.4-1.623 4.428-3.83 5.045a5.245 5.245 0 0 0 6.647-5.045v-3.85a5.245 5.245 0 0 0-5.238-5.238z"/>
        <path fill="#000" d="M29.814 19.635V17.71a5.245 5.245 0 0 0-5.24-5.24 5.245 5.245 0 0 0-5.238 5.24v1.927h.758c3.911 0 5.336-2.64 5.336-2.64s.996 2.627 3.613 2.64h.77z"/>
    </g>
</svg>
