<?xml version="1.0" encoding="UTF-8"?>
<svg width="54px" height="54px" viewBox="0 0 54 54" version="1.1" xmlns="http://www.w3.org/2000/svg" xmlns:xlink="http://www.w3.org/1999/xlink">
    <!-- Generator: Sketch 44 (41411) - http://www.bohemiancoding.com/sketch -->
    <title>FinanceSpecific</title>
    <desc>Created with Sketch.</desc>
    <defs></defs>
    <g id="LandingPages" stroke="none" stroke-width="1" fill="none" fill-rule="evenodd">
        <g id="Desktop-HD-Copy-7" transform="translate(-327.000000, -1051.000000)" fill-rule="nonzero">
            <g id="FinanceSpecific" transform="translate(327.000000, 1051.000000)">
                <ellipse id="Oval" fill="#59D999" cx="22.7414279" cy="30.6386779" rx="22.7261256" ry="22.9245283"></ellipse>
                <rect id="Rectangle-path" fill="#F9D015" x="31.0743406" y="15.3551547" width="13.6356754" height="5.09433962"></rect>
                <path d="M53.0429287,7.71364528 L53.0429287,39.2985509 C53.0429287,40.1443132 52.3662911,40.8268528 51.5278537,40.8268528 L14.1560026,40.8268528 C13.3175601,40.8268528 12.6409276,40.1443132 12.6409276,39.2985509 L12.6409276,9.75138113 C12.6409276,9.36431321 12.7873798,8.98723019 13.0500433,8.7071434 L20.6254185,0.5562 C20.9131767,0.245241509 21.3121515,0.0721358491 21.7313778,0.0721358491 L47.9926786,0.0721358491 C48.831116,0.0721358491 49.5077536,0.754675472 49.5077536,1.60043774 L49.5077536,6.1853434 L51.5278537,6.1853434 C52.3662911,6.1853434 53.0429287,6.86788302 53.0429287,7.71364528 Z M50.0127786,37.7702491 L50.0127786,9.24194717 L25.0998442,9.24194717 L25.0998442,17.2247264 C25.0998442,18.0654962 24.4180099,18.7530283 23.5847691,18.7530283 L15.6710777,18.7530283 L15.6710777,37.7702491 L50.0127786,37.7702491 Z M46.4776035,6.1853434 L46.4776035,3.12873962 L22.3878094,3.12873962 L15.6710777,10.3575566 L15.6710777,13.5313302 L22.5140656,6.63359434 C22.7969251,6.34851509 23.18084,6.1853434 23.5847641,6.1853434 L46.4776035,6.1853434 Z M22.0696941,15.6964245 L22.0696941,11.4020491 L17.8124847,15.6964245 L22.0696941,15.6964245 Z" id="Shape" fill="#293A56"></path>
                <path d="M47.7401661,13.8268528 L47.7401661,21.9777962 C47.7401661,22.8235585 47.0635285,23.5060981 46.225091,23.5060981 L29.5592656,23.5060981 C28.7208129,23.5060981 28.0441905,22.8235585 28.0441905,21.9777962 L28.0441905,13.8268528 C28.0441905,12.9810906 28.7208129,12.2985509 29.5592656,12.2985509 L46.225091,12.2985509 C47.0635285,12.2985509 47.7401661,12.9810906 47.7401661,13.8268528 Z M44.710016,20.4494943 L44.710016,15.3551547 L31.0743406,15.3551547 L31.0743406,20.4494943 L44.710016,20.4494943 Z" id="Shape" fill="#293A56"></path>
                <path d="M46.225091,26.5627019 C47.0635285,26.5627019 47.7401661,27.2452415 47.7401661,28.0910038 C47.7401661,28.936766 47.0635285,29.6193057 46.225091,29.6193057 L19.4587653,29.6193057 C18.6203228,29.6193057 17.9436902,28.936766 17.9436902,28.0910038 C17.9436902,27.2452415 18.6203228,26.5627019 19.4587653,26.5627019 L46.225091,26.5627019 L46.225091,26.5627019 Z" id="Shape" fill="#293A56"></path>
                <path d="M46.225091,32.1664755 C47.0635285,32.1664755 47.7401661,32.8490151 47.7401661,33.6947774 C47.7401661,34.5405396 47.0635285,35.2230792 46.225091,35.2230792 L19.4587653,35.2230792 C18.6203228,35.2230792 17.9436902,34.5405396 17.9436902,33.6947774 C17.9436902,32.8490151 18.6203228,32.1664755 19.4587653,32.1664755 L46.225091,32.1664755 Z" id="Shape" fill="#293A56"></path>
            </g>
        </g>
    </g>
</svg>