<?xml version="1.0" encoding="UTF-8"?>
<svg width="80px" height="65px" viewBox="0 0 80 65" version="1.1" xmlns="http://www.w3.org/2000/svg" xmlns:xlink="http://www.w3.org/1999/xlink">
    <!-- Generator: Sketch 44.1 (41455) - http://www.bohemiancoding.com/sketch -->
    <title>Finance</title>
    <desc>Created with Sketch.</desc>
    <defs></defs>
    <g id="LandingPages" stroke="none" stroke-width="1" fill="none" fill-rule="evenodd">
        <g id="Desktop-HD-Copy-10" transform="translate(-691.000000, -1333.000000)" fill="#FFFFFF">
            <path d="M691.000579,1335.26921 L691.000579,1395.24599 C691.000579,1396.47385 691.994117,1397.46736 693.221941,1397.46736 L768.748261,1397.46736 C769.342653,1397.47603 769.915364,1397.24609 770.340533,1396.82958 C770.761381,1396.40873 771,1395.84039 771,1395.24597 C771,1394.65156 770.761381,1394.0832 770.340533,1393.66236 C769.915353,1393.24586 769.342653,1393.01591 768.748261,1393.02459 L695.443304,1393.02459 L695.443304,1335.26917 C695.456321,1334.63139 695.196,1334.01532 694.723094,1333.58149 C694.250188,1333.15196 693.616755,1332.94371 692.978991,1333.01313 C691.83359,1333.13901 690.974478,1334.11953 691.000579,1335.26921 Z M749.228594,1350.43239 C748.829438,1350.86624 748.625528,1351.44328 748.651562,1352.03332 C748.677597,1352.62336 748.937907,1353.17866 749.376104,1353.5735 C749.809958,1353.97266 750.387002,1354.17657 750.97704,1354.15053 L758.751808,1354.15053 L738.725116,1372.26797 L723.557654,1359.11306 C722.707294,1358.3755 721.440474,1358.38852 720.607463,1359.14777 L700.615202,1376.91867 C700.177005,1377.31348 699.912352,1377.86882 699.877643,1378.45885 C699.847266,1379.0489 700.055529,1379.62595 700.450332,1380.06411 C700.849489,1380.50665 701.404829,1380.76696 701.994845,1380.793 C702.584895,1380.82337 703.161949,1380.61511 703.600113,1380.21597 L722.099618,1363.76456 L737.302622,1376.91947 C738.152982,1377.65702 739.419803,1377.64401 740.252813,1376.88476 L762.084362,1357.13573 L762.084362,1365.25759 C762.075688,1365.85198 762.305632,1366.42469 762.722138,1366.84986 C763.142986,1367.27071 763.711333,1367.50933 764.305747,1367.50933 C764.900161,1367.50933 765.468519,1367.27071 765.889356,1366.84986 C766.305862,1366.42468 766.535806,1365.85198 766.527131,1365.25759 L766.527131,1351.92942 C766.527131,1350.70156 765.533594,1349.70805 764.305769,1349.70805 L750.977595,1349.70805 C750.908178,1349.70371 750.83876,1349.70371 750.769342,1349.70805 C750.178727,1349.73388 749.623442,1349.99419 749.228594,1350.43239 Z" id="Finance"></path>
        </g>
    </g>
</svg>