<?xml version="1.0" encoding="UTF-8"?>
<svg width="54px" height="44px" viewBox="0 0 54 44" version="1.1" xmlns="http://www.w3.org/2000/svg" xmlns:xlink="http://www.w3.org/1999/xlink">
    <!-- Generator: Sketch 44 (41411) - http://www.bohemiancoding.com/sketch -->
    <title>OpportunitiesBest</title>
    <desc>Created with Sketch.</desc>
    <defs></defs>
    <g id="LandingPages" stroke="none" stroke-width="1" fill="none" fill-rule="evenodd">
        <g id="Desktop-HD-Copy-7" transform="translate(-829.000000, -1060.000000)">
            <g id="OpportunitiesBest" transform="translate(801.000000, 1044.000000)">
                <g id="XMLID_5_" transform="translate(0.000000, 0.193187)">
                    <g id="Group"></g>
                </g>
                <ellipse id="Oval" fill="#F9D015" fill-rule="nonzero" cx="50.1471323" cy="37.8670228" rx="21.6521609" ry="21.7185607"></ellipse>
                <polygon id="Shape" fill="#59D999" fill-rule="nonzero" points="56.8738946 21.568359 56.8738946 24.3291413 54.1215528 24.3291413 55.4832407 22.9632293"></polygon>
                <path d="M81.9039316,35.9510972 L81.9039316,53.7940557 C81.9039316,54.5953303 81.2592711,55.2419678 80.4604462,55.2419678 L44.8544727,55.2419678 C44.2386866,55.2419678 43.6901093,54.8509833 43.4880694,54.2620692 C43.4349492,54.1126977 43.4109873,53.9580559 43.4109873,53.8037133 L43.4109873,53.7940606 L43.4109873,35.9511021 C43.4109873,35.5118104 43.6083599,35.0965926 43.9499366,34.8215376 L49.1992676,30.6128432 L49.1992676,25.7720822 C49.1992676,25.3907987 49.3484325,25.0238495 49.6179265,24.749084 L57.2972689,17.0556514 C57.5667243,16.7855676 57.9372141,16.6309788 58.31738,16.6309788 L74.672166,16.6309788 C75.4707502,16.6309788 76.1156514,17.2776164 76.1156514,18.0788909 L76.1156514,30.7771282 L81.3410156,34.8022273 C81.6969358,35.077234 81.9039316,35.502148 81.9039316,35.9510972 Z M79.0169608,51.154179 L79.0169608,38.431665 L69.6968085,43.7260521 L79.0169608,51.154179 Z M76.1156514,36.7520822 L77.8572646,35.767502 L76.1156514,34.4258715 L76.1156514,36.7520822 Z M49.0693539,52.3508735 L75.8797859,52.3508735 L62.6478362,41.805445 L49.0693539,52.3508735 Z M73.2286805,38.393001 L73.2286805,19.5220731 L59.7608654,19.5220731 L59.7608654,25.7720822 C59.7608654,26.5733567 59.1161567,27.2199943 58.31738,27.2199943 L52.0862384,27.2199943 L52.0862384,38.5236026 L57.8218796,41.8921218 L61.772218,38.8226447 C62.2965881,38.4123547 63.0326694,38.4170363 63.5572802,38.8322975 L67.2620817,41.7860864 L73.2286805,38.393001 Z M56.8738946,24.3291413 L56.8738946,21.568359 L55.4832407,22.9632341 L54.1215528,24.3291413 L56.8738946,24.3291413 L56.8738946,24.3291413 Z M46.2979581,50.8449484 L55.3629551,43.803361 L46.2979581,38.4750445 L46.2979581,50.8449484 Z M49.1992676,36.8244295 L49.1992676,34.3195899 L47.3949108,35.767502 L49.1992676,36.8244295 Z" id="Shape" fill="#293A56" fill-rule="nonzero"></path>
            </g>
        </g>
    </g>
</svg>