<svg xmlns="http://www.w3.org/2000/svg" width="49" height="39" viewBox="0 0 49 39">
    <g fill="#2D2D2D" fill-opacity=".1" fill-rule="evenodd">
        <path d="M18.693 19.432H5.426v-.019c0-3.648 1.81-7.025 4.843-9.05l8.322-5.55a2.362 2.362 0 0 0 .653-3.285 2.372 2.372 0 0 0-3.293-.653L7.628 6.426a15.586 15.586 0 0 0-6.94 12.988v18.025c0 .522.419.952.95.952h17.056a.95.95 0 0 0 .951-.952V20.384a.944.944 0 0 0-.951-.952zM47.13 19.432H33.865v-.019c0-3.648 1.81-7.025 4.842-9.05l8.322-5.55a2.362 2.362 0 0 0 .654-3.285 2.372 2.372 0 0 0-3.294-.653l-8.322 5.551a15.561 15.561 0 0 0-6.951 12.988v18.025c0 .522.42.952.952.952H47.13a.95.95 0 0 0 .952-.952V20.384a.95.95 0 0 0-.952-.952z"/>
    </g>
</svg>
