<svg width="49" height="39" xmlns="http://www.w3.org/2000/svg">
  <g transform="rotate(180 24.439037322998047,19.669631958007812) " stroke="null" id="svg_12">
   <g stroke="null" transform="matrix(0.9777950130206793,0,0,0.9777950130206793,-70.79832338310852,-56.95684507250682) " id="svg_10"   fill-opacity="0.1" fill="#2D2D2D">
    <path stroke="null" id="svg_11" d="m91.70691,78.366607l-13.267,0l0,-0.019c0,-3.648 1.81,-7.025 4.843,-9.05l8.322,-5.55a2.362,2.362 0 0 0 0.653,-3.285a2.372,2.372 0 0 0 -3.293,-0.653l-8.323,5.551a15.586,15.586 0 0 0 -6.94,12.988l0,18.025c0,0.522 0.419,0.952 0.95,0.952l17.056,0a0.95,0.95 0 0 0 0.951,-0.952l0,-17.055a0.944,0.944 0 0 0 -0.951,-0.952l-0.001,0zm28.437,0l-13.265,0l0,-0.019c0,-3.648 1.81,-7.025 4.842,-9.05l8.322,-5.55a2.362,2.362 0 0 0 0.654,-3.285a2.372,2.372 0 0 0 -3.294,-0.653l-8.322,5.551a15.561,15.561 0 0 0 -6.951,12.988l0,18.025c0,0.522 0.42,0.952 0.952,0.952l17.062,0a0.95,0.95 0 0 0 0.952,-0.952l0,-17.055a0.95,0.95 0 0 0 -0.952,-0.952z"/>
   </g>
  </g>
</svg>