<?xml version="1.0" encoding="UTF-8"?>
<svg width="62px" height="48px" viewBox="0 0 62 48" version="1.1" xmlns="http://www.w3.org/2000/svg" xmlns:xlink="http://www.w3.org/1999/xlink">
    <!-- Generator: Sketch 44 (41411) - http://www.bohemiancoding.com/sketch -->
    <title>SinglePersonalized</title>
    <desc>Created with Sketch.</desc>
    <defs></defs>
    <g id="LandingPages" stroke="none" stroke-width="1" fill="none" fill-rule="evenodd">
        <g id="Desktop-HD-Copy-7" transform="translate(-584.000000, -1058.000000)" fill-rule="nonzero">
            <g id="SinglePersonalized" transform="translate(584.000000, 1058.000000)">
                <ellipse id="Oval" fill="#B6C6AD" cx="38.1256121" cy="23.8113547" rx="23.8425721" ry="23.7362637"></ellipse>
                <path d="M25.8918241,25.3985407 L16.4499537,25.3985407 C16.6142661,23.9268396 17.2077289,22.9986462 18.3944532,22.407782 L20.3709547,23.5789187 C20.879591,23.8794831 21.5046319,23.8794831 22.0080917,23.5789187 L23.9525276,22.407782 C25.1340648,22.9986409 25.7275276,23.9322778 25.8918241,25.3985407 Z" id="Shape" fill="#F9D015"></path>
                <path d="M42.3642916,4.32074374 L42.3642916,36.4651305 C42.3642916,37.3351332 41.6544135,38.0475481 40.7747868,38.0475481 L28.609782,38.0475481 L31.0577148,42.5784844 C31.3226322,43.0688703 31.3065782,43.6596976 31.0204144,44.1397503 C30.7343141,44.6144229 30.2150706,44.9098549 29.6588499,44.9098549 L12.7147392,44.9098549 C12.1585185,44.9098549 11.639063,44.6144229 11.3531588,44.1397503 C11.0670585,43.6596976 11.0510045,43.0688703 11.315922,42.5784844 L13.7638071,38.0475481 L1.59884997,38.0475481 C1.18022739,38.0475481 0.772259785,37.8785934 0.475499237,37.5834831 C0.178791673,37.2877767 0.00934516259,36.8818866 0.00934516259,36.4651305 L0.00934516259,4.32074374 C0.00934516259,3.4450233 0.724680607,2.73832615 1.59884997,2.73832615 L40.7747974,2.73832615 C41.1985594,2.73832615 41.6013876,2.90726505 41.8980952,3.20243868 C42.1948557,3.49809758 42.3642916,3.89886593 42.3642916,4.32074374 Z M39.185282,34.882713 L39.185282,28.5633758 L3.18834418,28.5633758 L3.18834418,34.882713 L39.185282,34.882713 L39.185282,34.882713 Z M39.185282,25.3985407 L39.185282,5.90316132 L21.186678,5.90316132 L3.18834418,5.90316132 L3.18834418,25.3985407 L13.2603474,25.3985407 C13.5040661,22.2656281 15.0935709,20.160902 17.9970717,19.1481969 C18.1667831,19.0848053 18.341671,19.0585371 18.5217142,19.0585371 C18.8024155,19.0585371 19.0885263,19.1322303 19.3376653,19.2800651 L21.1814803,20.3772185 L22.9989254,19.2851868 C23.406893,19.0426022 23.8994911,18.9900765 24.3447114,19.1482022 C27.2481963,20.1609073 28.8377011,22.2656334 29.0814358,25.3985459 L39.185282,25.3985459 L39.185282,25.3985407 Z M26.9990785,41.7450198 L25.0016061,38.0527121 L17.372036,38.0527121 L15.3796924,41.7450198 L26.9990785,41.7450198 Z M16.4499537,25.3985407 L25.8918241,25.3985407 C25.7275276,23.9322778 25.1340648,22.9986462 23.9525276,22.407782 L22.0080917,23.5789187 C21.5046266,23.8794831 20.879591,23.8794831 20.3709547,23.5789187 L18.3944532,22.407782 C17.2077236,22.9986409 16.6142661,23.9268396 16.4499537,25.3985407 Z" id="Shape" fill="#293A56"></path>
                <path d="M21.186678,6.93183297 C24.4029403,6.93183297 27.0148623,9.53210901 27.0148623,12.7340308 C27.0148623,15.9359525 24.4029403,18.5362286 21.186678,18.5362286 C20.3867332,18.5362286 19.6183719,18.3726646 18.9242881,18.0823859 C16.8315938,17.1964431 15.3584937,15.1339305 15.3584937,12.7340308 C15.3584937,9.53210901 17.9760902,6.93183297 21.186678,6.93183297 Z M23.8358527,12.7340308 C23.8358527,11.2783121 22.649139,10.0966681 21.186678,10.0966681 C19.7244395,10.0966681 18.5375033,11.2783121 18.5375033,12.7340308 C18.5375033,14.1897495 19.7244395,15.3713934 21.186678,15.3713934 C22.649139,15.3713934 23.8358527,14.1897495 23.8358527,12.7340308 Z" id="Shape" fill="#293A56"></path>
                <path d="M22.3099916,30.6098585 C22.6067469,30.9001371 22.7761828,31.3114549 22.7761828,31.728211 C22.7761828,32.1449196 22.6067469,32.5513424 22.3099916,32.846516 C22.0132205,33.1419007 21.6052529,33.3106286 21.186678,33.3106286 C20.7683309,33.3106286 20.3603474,33.1418954 20.0636399,32.846516 C19.7668846,32.5513424 19.5971732,32.1449196 19.5971732,31.728211 C19.5971732,31.3114549 19.7668846,30.9001371 20.0636399,30.6098585 C20.6568431,30.0193002 21.7165129,30.0193002 22.3099916,30.6098585 Z" id="Shape" fill="#293A56"></path>
            </g>
        </g>
    </g>
</svg>