<?xml version="1.0" encoding="UTF-8"?>
<svg width="66px" height="79px" viewBox="0 0 66 79" version="1.1" xmlns="http://www.w3.org/2000/svg" xmlns:xlink="http://www.w3.org/1999/xlink">
    <!-- Generator: Sketch 44.1 (41455) - http://www.bohemiancoding.com/sketch -->
    <title>Tax</title>
    <desc>Created with Sketch.</desc>
    <defs></defs>
    <g id="LandingPages" stroke="none" stroke-width="1" fill="none" fill-rule="evenodd">
        <g id="Desktop-HD-Copy-10" transform="translate(-1107.000000, -1329.000000)" fill="#FFFFFF">
            <g id="Tax" transform="translate(1107.000000, 1329.000000)">
                <path d="M65.496,79 L0.687,79 L0.6831,0.137 L65.4921,0.137 L65.496,79 Z M4.441,75.2422 L61.742,75.2422 L61.73809,3.8902 L4.43709,3.8902 L4.441,75.2422 Z" id="Fill-1"></path>
                <polygon id="Fill-2" points="12.23 15.9768 54.273 15.9768 54.273 11.594 12.23 11.594"></polygon>
                <polygon id="Fill-5" points="12.23 26.1949 54.273 26.1949 54.273 21.816 12.23 21.816"></polygon>
                <polygon id="Fill-6" points="12.23 36.4218 54.273 36.4218 54.273 32.039 12.23 32.039"></polygon>
                <polygon id="Fill-7" points="12.23 46.6448 54.273 46.6448 54.273 42.262 12.23 42.262"></polygon>
                <polygon id="Fill-8" points="12.23 56.8629 54.273 56.8629 54.273 52.484 12.23 52.484"></polygon>
                <polygon id="Fill-9" points="12.23 67.0898 54.273 67.0898 54.273 62.707 12.23 62.707"></polygon>
            </g>
        </g>
    </g>
</svg>