<svg xmlns="http://www.w3.org/2000/svg" width="90" height="91" viewBox="0 0 90 91">
    <g fill="none" fill-rule="nonzero" transform="translate(0 .52)">
        <circle cx="45" cy="45" r="45" fill="#F7F8F8"/>
        <g transform="translate(17.25 19.5)">
            <path fill="#E6E9EE" d="M43.13 34.761l-4.918 2.38v9.995l2.855 3.067a12.866 12.866 0 0 0 4.02 0l2.855-3.067V37.088l-4.812-2.327z"/>
            <circle cx="43.13" cy="35.978" r="3.173" fill="#F9B54C"/>
            <path fill="#F1543F" d="M44.452 39.15h-2.644l.529 1.534h1.639z"/>
            <path fill="#FF7058" d="M41.015 50.15a14.955 14.955 0 0 0 4.336 0l-1.322-9.466h-1.64l-1.374 9.466z"/>
            <g fill="#324A5E">
                <path d="M54.658 44.439l-1.586-4.918-6.187-2.962c0 2.116-.16 7.457-2.697 13.75 4.283-.37 8.038-2.592 10.47-5.87zM42.125 50.256c-2.538-6.293-2.697-11.581-2.697-13.75l-6.187 3.015-1.587 4.918a14.174 14.174 0 0 0 10.471 5.817z"/>
            </g>
            <g fill="#FFF">
                <path d="M46.197 35.343s.37 2.168-3.067 3.86c0 0 2.591.212 3.331 2.644.053.053 1.428-5.235-.264-6.504zM40.063 35.343s-.37 2.168 3.067 3.86c0 0-2.591.212-3.332 2.644 0 .053-1.428-5.235.265-6.504z"/>
            </g>
            <path fill="#FFD05B" d="M48.26 29.42c0 3.332-2.274 7.51-5.13 7.51S38 32.804 38 29.42c0-3.384 2.274-4.653 5.13-4.653s5.13 1.322 5.13 4.653z"/>
            <path fill="#324A5E" d="M41.385 24.079s4.125-1.64 6.24 2.115c2.274 4.02-.582 8.356-1.164 8.726 0 0 .16-.688.582-2.01 0 0 1.005-2.961-2.01-3.437 0 0-2.96-.423-3.172-1.058 0 0 .211 1.058 1.533 1.27 0 0-3.014-.053-3.966-1.164 0 0-1.27 4.284.582 6.558 0 0-3.279-2.592-2.856-6.61 0 0-.158-5.5 4.23-4.39z"/>
            <path fill="#E6E9EE" d="M11.718 34.761L6.8 37.088v9.995l2.855 3.067a12.866 12.866 0 0 0 4.02 0l2.855-3.067v-9.995l-4.812-2.327z"/>
            <circle cx="11.718" cy="35.978" r="3.173" fill="#F9B54C"/>
            <path fill="#F1543F" d="M13.04 39.15h-2.644l.476 1.534h1.64z"/>
            <path fill="#FF7058" d="M9.55 50.15a14.955 14.955 0 0 0 4.336 0l-1.322-9.466h-1.64L9.55 50.15z"/>
            <g fill="#324A5E">
                <path d="M23.193 44.439l-1.586-4.918-6.187-2.962c0 2.116-.16 7.457-2.697 13.75 4.336-.37 8.09-2.592 10.47-5.87zM10.66 50.256c-2.538-6.293-2.697-11.581-2.697-13.75l-6.187 2.962-1.587 4.918c2.433 3.331 6.188 5.552 10.471 5.87z"/>
            </g>
            <g fill="#FFF">
                <path d="M14.785 35.343s.37 2.168-3.067 3.86c0 0 2.591.212 3.331 2.644 0 .053 1.428-5.235-.264-6.504zM8.65 35.343s-.37 2.168 3.068 3.86c0 0-2.591.212-3.332 2.644-.053.053-1.428-5.235.265-6.504z"/>
            </g>
            <path fill="#FFD05B" d="M16.847 29.42c0 3.332-2.274 7.51-5.13 7.51-2.855 0-5.129-4.125-5.129-7.51 0-3.384 2.274-4.653 5.13-4.653 2.803 0 5.13 1.322 5.13 4.653z"/>
            <path fill="#324A5E" d="M9.92 24.079s4.125-1.64 6.24 2.115c2.274 4.02-.582 8.356-1.163 8.726 0 0 .158-.688.581-2.01 0 0 1.005-2.961-2.01-3.437 0 0-2.96-.423-3.172-1.058 0 0 .211 1.058 1.533 1.27 0 0-3.014-.053-3.966-1.164 0 0-1.269 4.284.582 6.558 0 0-3.279-2.592-2.856-6.61 0 0-.158-5.5 4.23-4.39z"/>
            <ellipse cx="27.424" cy="2.292" fill="#2B3B4E" rx="2.75" ry="1.851"/>
            <path fill="#324A5E" d="M31.76 10.806c.265-1.058.423-2.169.423-3.173 0-3.755-2.115-5.236-4.76-5.236-2.643 0-4.759 1.481-4.759 5.236 0 1.004.16 2.115.424 3.173h8.672z"/>
            <circle cx="27.424" cy="14.507" r="3.173" fill="#F9B54C"/>
            <path fill="#FF7058" d="M37.313 18.05l-6.187-2.96-3.702-1.799-3.702 1.798-6.187 2.961-1.216 3.755a13.52 13.52 0 0 0 3.543 3.173c2.274 1.428 4.918 2.062 7.562 2.062h.053c2.644 0 5.288-.687 7.509-2.062a13.52 13.52 0 0 0 3.543-3.173l-1.216-3.755z"/>
            <g fill="#FFF">
                <path d="M30.491 13.873s.37 2.168-3.067 3.86c0 0 2.591.212 3.331 2.644.053.053 1.428-5.235-.264-6.504zM24.357 13.873s-.37 2.168 3.067 3.86c0 0-2.591.212-3.332 2.644 0 .053-1.428-5.235.265-6.504z"/>
            </g>
            <path fill="#FFD05B" d="M32.025 9.695a.514.514 0 0 0-.476-.053c.105-1.692-.952-1.956-.952-1.956-1.058-.424-1.48-1.428-1.64-2.169-.476.476-1.163 1.005-2.38 1.534-3.33 1.375-3.172 2.644-3.172 2.644l-.053-.053c-.159-.053-.37-.053-.476.053-.317.264-.317.952 0 1.587.317.581.793.899 1.163.687.74 2.01 2.01 3.543 3.49 3.543 1.428 0 2.698-1.586 3.49-3.543.318.212.847-.106 1.164-.687.159-.635.159-1.375-.158-1.587z"/>
            <g fill="#F1543F">
                <path d="M35.568 24.608l-1.058-2.274s.264 1.586-.423 3.173c.529-.317 1.005-.582 1.48-.9zM19.333 24.608c.476.317.952.634 1.428.899-.688-1.534-.423-3.173-.423-3.173l-1.005 2.274z"/>
            </g>
            <path fill="#324A5E" d="M46.038 30.213H40.274a.835.835 0 0 0-.846.846v.74c0 .477.37.847.846.847h1.692c.212 0 .424-.106.582-.212a.114.114 0 0 0 .106-.105c.106-.265.317-.423.529-.423.211 0 .423.158.529.423 0 .053.052.105.105.105.159.16.37.212.582.212h1.692c.476 0 .846-.37.846-.846v-.74c-.052-.476-.423-.847-.899-.847zm-5.764 2.01a.474.474 0 0 1-.476-.476v-.74c0-.265.212-.476.476-.476h1.64c.264 0 .476.211.476.476v.74c0 .053 0 .106-.053.159 0 .052-.053.052-.053.105a.48.48 0 0 1-.37.159h-1.64v.053zm2.856-.74a.98.98 0 0 0-.37.105v-.476c0-.158-.053-.317-.106-.476h1.005c-.106.106-.106.265-.106.476v.476c-.159-.053-.264-.105-.423-.105zm3.384.317a.474.474 0 0 1-.476.476h-1.692a.48.48 0 0 1-.37-.159c0-.053-.053-.053-.053-.106s-.053-.105-.053-.158v-.74c0-.265.212-.477.476-.477h1.692c.265 0 .476.212.476.476v.688z"/>
        </g>
    </g>
</svg>
