<svg xmlns="http://www.w3.org/2000/svg" width="347" height="101" viewBox="0 0 347 101">
  <path fill-rule="evenodd" d="M937.554688,3743.42969 L951.007812,3741.78906 L951.007812,3687.86719 L937.390625,3687.86719 L937.390625,3678.73438 L966.921875,3673.375 L966.921875,3741.78906 L980.375,3743.42969 L980.375,3753 L937.554688,3753 L937.554688,3743.42969 Z M1010.00719,3750.86719 C1010.00719,3754.58596 1008.95902,3758.52342 1006.86266,3762.67969 C1004.76629,3766.83596 1002.20512,3770.24478 999.179062,3772.90625 L991.304062,3768.64062 C992.725944,3766.08853 993.819683,3763.45444 994.585312,3760.73828 C995.350941,3758.02212 995.733749,3754.987 995.733749,3751.63281 L995.733749,3739.71094 L1010.06187,3739.71094 L1010.00719,3750.86719 Z M1079.45187,3721.99219 C1079.45187,3732.5287 1077.03653,3740.52211 1072.20578,3745.97266 C1067.37503,3751.4232 1060.83994,3754.14844 1052.60031,3754.14844 C1044.28777,3754.14844 1037.70711,3751.4232 1032.85812,3745.97266 C1028.00914,3740.52211 1025.58469,3732.5287 1025.58469,3721.99219 L1025.58469,3704.4375 C1025.58469,3693.93745 1028.00003,3685.94404 1032.83078,3680.45703 C1037.66153,3674.97002 1044.21485,3672.22656 1052.49094,3672.22656 C1060.73056,3672.22656 1067.28388,3674.97002 1072.15109,3680.45703 C1077.0183,3685.94404 1079.45187,3693.93745 1079.45187,3704.4375 L1079.45187,3721.99219 Z M1063.53781,3702.79688 C1063.53781,3696.48955 1062.5899,3691.8685 1060.69406,3688.93359 C1058.79822,3685.99868 1056.06387,3684.53125 1052.49094,3684.53125 C1048.88154,3684.53125 1046.1472,3685.98957 1044.28781,3688.90625 C1042.42843,3691.82293 1041.49875,3696.45309 1041.49875,3702.79688 L1041.49875,3723.52344 C1041.49875,3729.94014 1042.43754,3734.60676 1044.31516,3737.52344 C1046.19277,3740.44012 1048.95446,3741.89844 1052.60031,3741.89844 C1056.17325,3741.89844 1058.88936,3740.44012 1060.74875,3737.52344 C1062.60813,3734.60676 1063.53781,3729.94014 1063.53781,3723.52344 L1063.53781,3702.79688 Z M1148.07625,3721.99219 C1148.07625,3732.5287 1145.66091,3740.52211 1140.83015,3745.97266 C1135.9994,3751.4232 1129.46431,3754.14844 1121.22469,3754.14844 C1112.91214,3754.14844 1106.33148,3751.4232 1101.4825,3745.97266 C1096.63352,3740.52211 1094.20906,3732.5287 1094.20906,3721.99219 L1094.20906,3704.4375 C1094.20906,3693.93745 1096.6244,3685.94404 1101.45515,3680.45703 C1106.28591,3674.97002 1112.83923,3672.22656 1121.11531,3672.22656 C1129.35494,3672.22656 1135.90826,3674.97002 1140.77547,3680.45703 C1145.64268,3685.94404 1148.07625,3693.93745 1148.07625,3704.4375 L1148.07625,3721.99219 Z M1132.16219,3702.79688 C1132.16219,3696.48955 1131.21428,3691.8685 1129.31844,3688.93359 C1127.42259,3685.99868 1124.68825,3684.53125 1121.11531,3684.53125 C1117.50592,3684.53125 1114.77157,3685.98957 1112.91219,3688.90625 C1111.0528,3691.82293 1110.12312,3696.45309 1110.12312,3702.79688 L1110.12312,3723.52344 C1110.12312,3729.94014 1111.06192,3734.60676 1112.93953,3737.52344 C1114.81714,3740.44012 1117.57883,3741.89844 1121.22469,3741.89844 C1124.79762,3741.89844 1127.51374,3740.44012 1129.37312,3737.52344 C1131.23251,3734.60676 1132.16219,3729.94014 1132.16219,3723.52344 L1132.16219,3702.79688 Z M1216.70062,3721.99219 C1216.70062,3732.5287 1214.28528,3740.52211 1209.45453,3745.97266 C1204.62378,3751.4232 1198.08868,3754.14844 1189.84906,3754.14844 C1181.53652,3754.14844 1174.95586,3751.4232 1170.10687,3745.97266 C1165.25789,3740.52211 1162.83344,3732.5287 1162.83344,3721.99219 L1162.83344,3704.4375 C1162.83344,3693.93745 1165.24878,3685.94404 1170.07953,3680.45703 C1174.91028,3674.97002 1181.4636,3672.22656 1189.73969,3672.22656 C1197.97931,3672.22656 1204.53263,3674.97002 1209.39984,3680.45703 C1214.26705,3685.94404 1216.70062,3693.93745 1216.70062,3704.4375 L1216.70062,3721.99219 Z M1200.78656,3702.79688 C1200.78656,3696.48955 1199.83865,3691.8685 1197.94281,3688.93359 C1196.04697,3685.99868 1193.31262,3684.53125 1189.73969,3684.53125 C1186.13029,3684.53125 1183.39594,3685.98957 1181.53656,3688.90625 C1179.67718,3691.82293 1178.7475,3696.45309 1178.7475,3702.79688 L1178.7475,3723.52344 C1178.7475,3729.94014 1179.68629,3734.60676 1181.5639,3737.52344 C1183.44152,3740.44012 1186.20321,3741.89844 1189.84906,3741.89844 C1193.42199,3741.89844 1196.13811,3740.44012 1197.9975,3737.52344 C1199.85688,3734.60676 1200.78656,3729.94014 1200.78656,3723.52344 L1200.78656,3702.79688 Z M1263.77812,3708.59375 L1283.41093,3708.59375 L1283.41093,3722.375 L1263.77812,3722.375 L1263.77812,3745.01562 L1248.62968,3745.01562 L1248.62968,3722.375 L1228.83281,3722.375 L1228.83281,3708.59375 L1248.62968,3708.59375 L1248.62968,3687.04688 L1263.77812,3687.04688 L1263.77812,3708.59375 Z" transform="translate(-937 -3672)"/>
</svg>
