<svg xmlns="http://www.w3.org/2000/svg" width="191" height="83" viewBox="0 0 191 83">
  <path fill-rule="evenodd" d="M178.992188,3753 L178.992188,3742.55469 L204.75,3714.9375 C208.468769,3710.67185 211.111971,3707.07163 212.679688,3704.13672 C214.247404,3701.20181 215.03125,3698.47658 215.03125,3695.96094 C215.03125,3692.60675 214.128915,3689.86329 212.324219,3687.73047 C210.519522,3685.59765 207.95835,3684.53125 204.640625,3684.53125 C200.958315,3684.53125 198.160166,3685.77994 196.246094,3688.27734 C194.332022,3690.77475 193.375,3694.10154 193.375,3698.25781 L177.84375,3698.25781 L177.734375,3697.92969 C177.552082,3690.74736 179.912736,3684.66799 184.816406,3679.69141 C189.720077,3674.71482 196.328083,3672.22656 204.640625,3672.22656 C212.843791,3672.22656 219.296851,3674.35935 224,3678.625 C228.703149,3682.89065 231.054688,3688.57809 231.054688,3695.6875 C231.054688,3700.50002 229.733086,3704.9479 227.089844,3709.03125 C224.446601,3713.1146 220.062531,3718.43747 213.9375,3725 L199.773438,3740.47656 L199.882812,3740.75 L220.554688,3740.75 L221.210938,3732.875 L233.351562,3732.875 L233.351562,3753 L178.992188,3753 Z M300.718124,3721.99219 C300.718124,3732.5287 298.302784,3740.52211 293.472031,3745.97266 C288.641277,3751.4232 282.106186,3754.14844 273.866562,3754.14844 C265.55402,3754.14844 258.973357,3751.4232 254.124374,3745.97266 C249.275392,3740.52211 246.850937,3732.5287 246.850937,3721.99219 L246.850937,3704.4375 C246.850937,3693.93745 249.266277,3685.94404 254.097031,3680.45703 C258.927784,3674.97002 265.481104,3672.22656 273.757187,3672.22656 C281.996811,3672.22656 288.550131,3674.97002 293.417343,3680.45703 C298.284555,3685.94404 300.718124,3693.93745 300.718124,3704.4375 L300.718124,3721.99219 Z M284.804062,3702.79688 C284.804062,3696.48955 283.856155,3691.8685 281.960312,3688.93359 C280.064469,3685.99868 277.330121,3684.53125 273.757187,3684.53125 C270.147794,3684.53125 267.413446,3685.98957 265.554062,3688.90625 C263.694678,3691.82293 262.764999,3696.45309 262.764999,3702.79688 L262.764999,3723.52344 C262.764999,3729.94014 263.703792,3734.60676 265.581406,3737.52344 C267.459019,3740.44012 270.22071,3741.89844 273.866562,3741.89844 C277.439496,3741.89844 280.155615,3740.44012 282.014999,3737.52344 C283.874384,3734.60676 284.804062,3729.94014 284.804062,3723.52344 L284.804062,3702.79688 Z M347.795624,3708.59375 L367.428436,3708.59375 L367.428436,3722.375 L347.795624,3722.375 L347.795624,3745.01562 L332.647186,3745.01562 L332.647186,3722.375 L312.850311,3722.375 L312.850311,3708.59375 L332.647186,3708.59375 L332.647186,3687.04688 L347.795624,3687.04688 L347.795624,3708.59375 Z" transform="translate(-177 -3672)"/>
</svg>
