<svg xmlns="http://www.w3.org/2000/svg" width="187" height="83" viewBox="0 0 187 83">
  <path fill-rule="evenodd" d="M60.8359375,70.40625 L69.8046875,70.40625 C73.5963731,70.40625 76.4036367,69.4127704 78.2265625,67.4257812 C80.0494883,65.4387921 80.9609375,62.677101 80.9609375,59.140625 C80.9609375,55.9322756 80.0494883,53.3619888 78.2265625,51.4296875 C76.4036367,49.4973862 73.760434,48.53125 70.296875,48.53125 C67.3072767,48.53125 64.7916769,49.4062412 62.75,51.15625 C60.7083231,52.9062588 59.6875,55.2031108 59.6875,58.046875 L44.2109375,58.046875 L44.1015625,57.71875 C43.8828114,51.4843438 46.2708084,46.3437702 51.265625,42.296875 C56.2604416,38.2499798 62.4582963,36.2265625 69.859375,36.2265625 C78.0989995,36.2265625 84.6705484,38.1952928 89.5742188,42.1328125 C94.4778891,46.0703322 96.9296875,51.6848594 96.9296875,58.9765625 C96.9296875,62.4401215 95.8359484,65.7304532 93.6484375,68.8476562 C91.4609266,71.9648593 88.4531441,74.3984287 84.625,76.1484375 C89.0364804,77.7161537 92.399728,80.1223796 94.7148438,83.3671875 C97.0299595,86.6119954 98.1875,90.3853952 98.1875,94.6875 C98.1875,101.979203 95.5351828,107.712219 90.2304688,111.886719 C84.9257547,116.061219 78.135458,118.148438 69.859375,118.148438 C62.4582963,118.148438 56.1054953,116.188822 50.8007812,112.269531 C45.4960672,108.350241 42.9348949,102.817744 43.1171875,95.671875 L43.2265625,95.34375 L58.703125,95.34375 C58.703125,98.4062653 59.7968641,100.93098 61.984375,102.917969 C64.1718859,104.904958 66.9426916,105.898438 70.296875,105.898438 C73.9791851,105.898438 76.8867081,104.877614 79.0195312,102.835938 C81.1523544,100.794261 82.21875,98.023455 82.21875,94.5234375 C82.21875,90.3307082 81.1705834,87.2591243 79.0742188,85.3085938 C76.9778541,83.3580632 73.8880413,82.3828125 69.8046875,82.3828125 L60.8359375,82.3828125 L60.8359375,70.40625 Z M142.366562,36.2265625 C145.35616,36.2265625 148.117851,36.5091118 150.651718,37.0742188 C153.185585,37.6393257 155.728528,38.4687445 158.280624,39.5625 L155.491562,51.2109375 C153.194675,50.4088502 151.080113,49.7981792 149.147812,49.3789062 C147.215511,48.9596333 144.991574,48.75 142.475937,48.75 C137.73633,48.75 133.935587,50.4817535 131.073593,53.9453125 C128.2116,57.4088715 126.762395,62.5129871 126.725937,69.2578125 L126.889999,69.53125 C128.676467,67.6718657 130.945975,66.213547 133.698593,65.15625 C136.451211,64.098953 139.522795,63.5703125 142.913437,63.5703125 C150.022847,63.5703125 155.600917,66.0950268 159.647812,71.1445312 C163.694707,76.1940357 165.718124,82.6379816 165.718124,90.4765625 C165.718124,98.4974359 163.220754,105.114557 158.225937,110.328125 C153.23112,115.541693 146.77806,118.148438 138.866562,118.148438 C130.481103,118.148438 123.645234,115.295601 118.358749,109.589844 C113.072265,103.884086 110.429062,95.9818213 110.429062,85.8828125 L110.429062,71.8828125 C110.429062,60.6171312 113.409501,51.8581042 119.370468,45.6054688 C125.331435,39.3528333 132.996723,36.2265625 142.366562,36.2265625 Z M138.702499,75.65625 C135.74936,75.65625 133.23376,76.1302036 131.155624,77.078125 C129.077489,78.0260464 127.473338,79.3203043 126.343124,80.9609375 L126.343124,86.265625 C126.343124,92.5729482 127.482436,97.421858 129.761093,100.8125 C132.03975,104.203142 135.074876,105.898438 138.866562,105.898438 C142.147828,105.898438 144.781917,104.394546 146.768906,101.386719 C148.755895,98.3788912 149.749374,94.7422088 149.749374,90.4765625 C149.749374,86.0650821 148.74678,82.4922012 146.741562,79.7578125 C144.736344,77.0234238 142.056683,75.65625 138.702499,75.65625 Z M210.279999,72.59375 L229.912811,72.59375 L229.912811,86.375 L210.279999,86.375 L210.279999,109.015625 L195.131561,109.015625 L195.131561,86.375 L175.334686,86.375 L175.334686,72.59375 L195.131561,72.59375 L195.131561,51.046875 L210.279999,51.046875 L210.279999,72.59375 Z" transform="translate(-43 -36)"/>
</svg>
