<svg xmlns="http://www.w3.org/2000/svg" width="159" height="159" viewBox="0 0 159 159">
  <g fill="none">
    <circle cx="79.5" cy="79.5" r="79.5" fill="#30C8FF"/>
    <path fill="#2BB3E5" d="M158.975467,81.4626562 L122.562914,45.0501035 L124.198875,46.6860645 L122.562914,45.0501035 L113.950207,36.4380176 L108.555387,46.7220879 L116.149811,54.3165117 L92.7501035,75.525 L53.6621895,36.4370859 L51.2374395,48.5161172 L85.9460215,83.2246992 L76.0644199,91.7678437 L36.4370859,122.561982 L72.5707676,158.695664 C74.8548398,158.892861 77.1646875,159 79.5,159 C122.750795,159 157.932961,124.462219 158.975467,81.4626562 Z"/>
    <rect width="86.122" height="68.9" x="36.436" y="53.664" fill="#FFF"/>
    <g fill="#D0D1D3" transform="translate(41.613 53.414)">
      <rect width="43.241" height="68.9" x="37.71" y=".25"/>
      <rect width="75.485" height="54.531" x=".144" y="7.386"/>
    </g>
    <rect width="37.921" height="54.531" x="79.323" y="60.8" fill="#A6A8AA"/>
    <rect width="86.122" height="17.222" x="36.436" y="45.05" fill="#C92F00"/>
    <rect width="43.241" height="17.222" x="79.323" y="45.05" fill="#930000"/>
    <rect width="8.614" height="17.222" x="45.05" y="36.436" fill="#FFEDB5"/>
    <rect width="8.614" height="17.222" x="105.336" y="36.436" fill="#FEE187"/>
    <g fill="#A6A8AA" transform="translate(48.445 70.494)">
      <rect width="8.833" height="8.833" x=".138" y=".173"/>
      <rect width="8.833" height="8.833" x="17.805" y=".173"/>
    </g>
    <g fill="#808183" transform="translate(83.848 70.494)">
      <rect width="8.833" height="8.833" x=".069" y=".173"/>
      <rect width="8.833" height="8.833" x="17.736" y=".173"/>
    </g>
    <g fill="#A6A8AA" transform="translate(48.445 84.158)">
      <rect width="8.833" height="8.833" x=".138" y=".026"/>
      <rect width="8.833" height="8.833" x="17.805" y=".026"/>
    </g>
    <g fill="#808183" transform="translate(83.848 84.158)">
      <rect width="8.833" height="8.833" x=".069" y=".026"/>
      <rect width="8.833" height="8.833" x="17.736" y=".026"/>
    </g>
    <g fill="#A6A8AA" transform="translate(48.445 97.822)">
      <rect width="8.833" height="8.833" x=".138" y=".281"/>
      <rect width="8.833" height="8.833" x="17.805" y=".281"/>
    </g>
    <g fill="#808183" transform="translate(83.848 97.822)">
      <rect width="8.833" height="8.833" x=".069" y=".281"/>
      <rect width="8.833" height="8.833" x="17.736" y=".281"/>
    </g>
    <g fill="#477F3C" transform="translate(65.836 77.947)">
      <path d="M4.83086719 11.7243867C4.80633398 11.7243867 4.78149023 11.7237656 4.75633594 11.7222129 4.37622656 11.7014063 4.02344531 11.5194258 3.78587695 11.2216113L.573890625 7.20655078C.112417969 6.62955469.205582031 5.78735156.783199219 5.32525781 1.3614375 4.86285352 2.20239844 4.95757031 2.66449219 5.53456641L4.94235352 8.38166016 12.7184473.6061875C13.2414082.0832265625 14.0882695.0832265625 14.6109199.6061875 15.1335703 1.12914844 15.1338809 1.97600977 14.6109199 2.49866016L5.77772461 11.3318555C5.52556055 11.5843301 5.18458008 11.7243867 4.83086719 11.7243867zM22.4972578 27.6510938C22.4727246 27.6510938 22.4478809 27.6504727 22.4227266 27.6489199 22.0426172 27.6281133 21.6898359 27.4461328 21.4522676 27.1483184L18.2402812 23.1332578C17.7788086 22.5562617 17.8719727 21.7140586 18.4495898 21.2519648 19.027207 20.7895605 19.8687891 20.8842773 20.3308828 21.4612734L22.6087441 24.3083672 30.3848379 16.5328945C30.9077988 16.0099336 31.7546602 16.0099336 32.2773105 16.5328945 32.7999609 17.0558555 32.8002715 17.9027168 32.2773105 18.4253672L23.4441152 27.2585625C23.1922617 27.5110371 22.8512813 27.6510938 22.4972578 27.6510938z"/>
    </g>
  </g>
</svg>
