<svg xmlns="http://www.w3.org/2000/svg" width="91" height="97" viewBox="0 0 91 97">
  <g fill="#FFF" fill-rule="evenodd">
    <path d="M27.5923928,64.6598846 C31.2270439,68.0684152 33.1061457,72.3039119 33.1061457,77.0079287 L33.1061457,92.2959832 C33.1061457,94.7674736 35.452823,97 37.9187115,97 L54.1119582,97 C56.5778467,97 58.924524,94.7674736 58.924524,92.2959832 L58.9199362,77.0079287 C58.9199362,72.3039119 60.7991554,68.0684152 64.3191714,64.779837 C69.8329243,59.6073002 73,52.1977681 73,44.5537408 C73,36.9097136 69.8329243,29.6196635 64.4336892,24.4417171 C59.0344541,19.2691802 51.9939529,16.6782078 44.6066127,17.0319498 C30.8797239,17.7393869 19.6133262,29.2600415 19.0266569,43.2580194 C18.6737401,51.3705668 21.8407923,59.1340761 27.5929677,64.6601198 L27.5923928,64.6598846 Z M54.2260067,92.1760308 L54.1068424,92.2954658 L38.0332763,92.2954658 C38.0332763,92.2954658 37.914112,92.1760308 37.7995238,92.1760308 L37.7995238,81.711475 L54.2262648,81.711475 L54.2260067,92.1760308 Z M23.7192019,43.491809 C24.1867069,31.8512491 33.4588513,22.3237335 44.8392975,21.7357314 C50.9397198,21.3820129 56.6923645,23.6192197 61.1463581,27.8500124 C65.7250775,32.2002872 68.3056011,38.1997902 68.3056011,44.548096 C68.3056011,50.8966371 65.7251948,57.0160925 61.1463581,61.2461796 C56.5722147,65.4816763 54.2255374,70.8930596 54.2255374,76.8882114 L37.7987963,76.8882114 C37.7987963,70.8887084 35.452119,65.5966895 30.8779756,61.1321072 C26.0654098,56.6623504 23.4850035,50.1943274 23.7187325,43.4920442 L23.7192019,43.491809 Z"/>
    <polygon points="79 48 91 48 91 43 79 43"/>
    <polygon points="0 48 12 48 12 43 0 43"/>
    <polygon points="43 11 48 11 48 0 43 0"/>
    <polygon points="68 19.765 75.765 12 79 15.235 71.235 23"/>
    <polygon points="12 74.765 19.765 67 23 70.235 15.235 78"/>
    <polygon points="12 15.235 15.235 12 23 19.765 19.765 23"/>
    <polygon points="68 70.235 71.235 67 79 74.765 75.765 78"/>
  </g>
</svg>
