<svg xmlns="http://www.w3.org/2000/svg" width="83" height="83" viewBox="0 0 83 83">
  <g fill="none" fill-rule="evenodd">
    <circle cx="41.5" cy="41.5" r="41.5" fill="#1870E6"/>
    <g stroke="#FAFBFC" stroke-linecap="round" stroke-linejoin="round" stroke-width="3" transform="translate(15 11)">
      <polygon points="30.107 44.604 22.894 44.604 26.501 36.491"/>
      <polygon points="21.995 52.64 22.895 44.603 30.107 44.603 31.007 52.631"/>
      <path d="M16.8314529,31.2156521 L16.5842768,31.0825546 L15.6843044,34.6866266 L22.8946119,44.6035937 L26.5008473,36.4911865 C22.7087476,36.4911865 19.2863033,34.35537 16.8317593,31.2160487 L16.8314529,31.2156521 Z"/>
      <path d="M36.1696288,31.2156521 C33.7148144,34.3549734 30.2923701,36.4907899 26.5005408,36.4907899 L30.1067762,44.6031971 L37.3170837,34.68623 L36.4171113,31.082158 L36.1696288,31.2156521 Z"/>
      <path d="M50.4447612 41.6139553C45.4759118 39.0006786 40.7603498 37.010615 36.4148037 36.4908801L36.0049559 36.4908801 30.1065148 44.6032872 31.0064872 52.639618 52.6395729 52.639618 52.6395729 45.2560656C52.6395729 43.7307528 51.7945305 42.3258641 50.4445358 41.6139553L50.4447612 41.6139553zM16.9955038 36.4914209L16.5835467 36.4914209C12.2400738 37.0111197 7.52469209 39.0012194 2.5562934 41.6144962 1.20846167 42.326441.359182821 43.7312936.359182821 45.2566064L.359182821 52.6401588 21.9922688 52.6401588 22.8943685 44.603828 16.9955038 36.4914209zM12.9798622 13.9560552C12.9798622 6.49011681 19.0324391.435376829 26.5005408.435376829 33.9686426.435376829 40.0212194 6.49011681 40.0212194 13.9560552L40.0212194 20.2664263C40.0212194 28.2309173 33.9686426 36.4912406 26.5005408 36.4912406 19.0324391 36.4912406 12.9798622 28.2309173 12.9798622 20.2664263L12.9798622 13.9560552z"/>
    </g>
  </g>
</svg>
