<svg xmlns="http://www.w3.org/2000/svg" width="83" height="83" viewBox="0 0 83 83">
  <g fill="none" fill-rule="evenodd">
    <circle cx="41.5" cy="41.5" r="41.5" fill="#1870E6"/>
    <g fill="#FAFBFC" transform="translate(16 16)">
      <path d="M12.3640859 0C10.7007661 0 9.34065934 1.38443818 9.34065934 3.07751377L9.34065934 7.69230769 15.3846154 7.69230769 15.384611 3.07751377C15.3874472 1.38443818 14.0273332 0 12.3640134 0L12.3640859 0zM40.6221876 7.69230769L40.6221876 10.8272137C40.6221876 12.5518632 39.2159657 13.9621197 37.4962501 13.9621197 35.7765345 13.9621197 34.3703126 12.5518632 34.3703126 10.8272137L34.3703126 7.69230769 15.6236875 7.69230769 15.6236875 10.8272137C15.6236875 12.5518632 14.2174657 13.9621197 12.49775 13.9621197 10.7780344 13.9621197 9.37181256 12.5518632 9.37181256 10.8272137L9.37181256 7.69230769 0 7.69230769 0 50 50 50 49.9970676 7.69230769 40.6221876 7.69230769zM43.748125 43.7331966L6.24887502 43.7331966 6.24887502 17.0940171 43.748125 17.0940171 43.748125 43.7331966zM37.6388134 0C35.9754923 0 34.6153846 1.38443818 34.6153846 3.07751377L34.6153846 7.69230769 40.6593407 7.69230769 40.6593407 3.07751377C40.6593407 1.38443818 39.2992329 0 37.6387409 0L37.6388134 0z"/>
      <polygon points="21.606 40.659 13.187 32.148 17.554 27.732 21.606 31.832 31.896 21.429 36.264 25.841"/>
    </g>
  </g>
</svg>
