<svg xmlns="http://www.w3.org/2000/svg" width="159" height="159" viewBox="0 0 159 159">
  <g fill="none">
    <circle cx="79.38" cy="79.373" r="79.373" fill="#30C8FF"/>
    <path fill="#2BB3E5" d="M45.4444513,33.9000664 L45.4444513,124.855805 L79.3480354,158.759389 C79.3589403,158.759389 79.3694934,158.760093 79.3803982,158.760093 C117.376122,158.760093 149.118431,132.057942 156.911542,96.3997301 L94.4118783,33.9000664 C94.4118783,33.9000664 45.4444513,33.9000664 45.4444513,33.9000664 Z M63.0744558,55.8448805 L63.0779735,55.8498053 L63.0744558,55.8519159 L63.0744558,55.8448805 Z M63.0744558,62.8088695 L63.0698827,62.8042965 L63.074104,62.800427 L63.0783252,62.8042965 L63.0744558,62.8088695 Z M63.0839535,55.8455841 L63.0825465,55.8462876 L63.0839535,55.8445288 L63.0839535,55.8455841 Z"/>
    <polygon fill="#FFF" points="94.405 33.903 45.438 33.903 45.438 124.859 113.323 124.859 113.323 52.821"/>
    <polygon fill="#E1E6E9" points="94.405 52.821 113.323 52.821 94.405 33.903"/>
    <polygon fill="#EBF0F3" points="113.323 52.821 94.405 52.821 113.323 65.935"/>
    <g fill="#F6C358" transform="translate(59.8 51.71)">
      <path d="M3.26583186,5.31102212 L3.27392257,5.31629867 L3.27392257,5.30926327 L3.27744027,5.31418805 L3.2816615,5.31137389 L3.28306858,5.30961504 L3.28306858,5.31067035 L6.26361504,3.31859735 L6.26396681,3.31859735 L6.26396681,0.0172367257 C6.0384823,0.172367257 5.82214381,0.340865044 5.6188208,0.524137168 C4.31094027,1.70643584 3.0280354,1.50381637 3.0280354,1.50381637 C2.24569912,1.5245708 1.13094027,0.722887168 0.655699115,0.349659292 C0.534690265,0.254681416 0.410515487,0.163924779 0.283174779,0.0777411504 L0.283174779,3.31824558 L3.26583186,5.31102212 Z"/>
      <polygon points="3.274 4.142 3.274 4.142 3.274 4.142 3.274 4.142 2.309 5.455 2.309 5.455"/>
    </g>
    <path fill="#64798A" d="M68.0583319,48.2090111 C68.0583319,48.2090111 68.2306991,47.0453562 68.8265973,46.0892456 C68.9711748,45.8570774 69.050323,45.5904358 69.050323,45.3167588 L69.050323,42.3087743 C69.050323,42.3087743 68.8624779,40.8338031 67.4145929,40.4851991 C67.4145929,40.4851991 68.0045111,39.2290288 66.4760708,38.932135 L60.8445863,38.932135 C58.7860288,38.932135 57.1168805,40.6009314 57.1168805,42.6598407 L57.1168805,44.8696593 C57.1168805,45.3484181 57.2772876,45.8141615 57.5769956,46.1877412 C57.8130332,46.481469 58.057865,46.9433429 58.0958562,47.6117058"/>
    <path fill="#FCD462" d="M62.8289204,53.8404956 C62.8289204,53.8404956 64.1118252,54.043115 65.4197058,52.8608164 C65.6230288,52.6771925 65.8393673,52.5090465 66.0648518,52.3539159 C66.0870133,52.3384381 66.108823,52.3226084 66.1313363,52.3074823 C66.7103496,51.9184248 67.8229978,50.84025 68.0586836,48.2090111 L68.0586836,44.7226195 C68.0586836,44.7226195 67.9246593,43.4889624 66.6104469,43.0063341 L64.6574204,42.3207345 C64.2933385,42.193042 63.8958385,42.1979668 63.5349226,42.3348053 C63.1303872,42.4885288 62.5960487,42.6872788 62.2597566,42.7949204 C62.098646,42.8466305 61.9305,42.8723097 61.7612987,42.8723097 L59.9057124,42.8723097 C59.9057124,42.8723097 58.4574757,43.0601549 58.0955044,44.6821659 L58.0955044,47.611354 L58.0955044,48.2892146 C58.0955044,48.2892146 58.1584712,51.1385509 60.0450133,52.3873341 C60.0583805,52.3961283 60.0706925,52.4056261 60.0840597,52.4144204 C60.2114004,52.5002522 60.3355752,52.5913606 60.4565841,52.6863385 C60.9318252,53.0595664 62.0465841,53.86125 62.8289204,53.8404956 Z"/>
    <g fill="#D5D6DB" transform="translate(60.504 55.58)">
      <polygon points="3.535 1.331 2.924 2.207 3.488 5.761 4.901 3.192"/>
      <polygon points="1.699 5.979 2.317 2.084 1.645 1.119 .148 3.158"/>
      <polygon points="1.606 1.586 1.565 1.641 2.57 .278 2.57 .273 2.57 .273"/>
    </g>
    <polygon fill="#E56353" points="2.144 5.428 1.665 2.408 2.184 1.663 2.184 1.663 1.163 .272 1.163 .273 1.163 .278 .158 1.641 .147 1.656 .147 1.656 .147 1.656 .67 2.408 .189 5.442 .189 5.442 1.163 7.213 2.144 5.429" transform="translate(61.912 55.58)"/>
    <g fill="#E1E6E9" transform="translate(58.394 53.82)">
      <polygon points="4.69 2.025 4.688 2.026 4.688 2.026 4.684 2.029 4.681 2.031 4.681 2.031 4.681 2.031 4.681 2.031 4.681 2.031 5.702 3.422 6.863 5.004 9.28 .61 7.671 .033 7.671 .033"/>
      <polygon points="3.664 3.415 3.664 3.415 3.716 3.345 4.681 2.031 4.681 2.031 4.681 2.031 4.673 2.026 1.691 .033 1.691 .033 .082 .61 2.498 5.004"/>
    </g>
    <path fill="#3A556A" d="M0.465391593,8.63067478 L0.468557522,8.63665487 L1.72648673,8.63665487 L11.3343783,8.63665487 C12.0220885,8.63665487 12.5455221,8.01965044 12.4333075,7.34108628 L11.8919336,4.07244027 C11.7459491,3.19090487 11.1352765,2.45676106 10.2948982,2.15283186 L5.05845133,0.258199115" transform="translate(62.615 54.173)"/>
    <polygon fill="#2F4859" points="1.089 6.836 .108 8.62 .108 8.62 .111 8.625 .206 8.537 4.948 4.2 4.358 3.074 6.098 3.047 4.707 .258 2.29 4.652" transform="translate(62.967 54.173)"/>
    <path fill="#3A556A" d="M63.0702345,62.8046482 L63.0688274,62.8032412 L58.4757677,54.4307655 L53.2393208,56.3253982 C52.3989425,56.6293274 51.7882699,57.3634712 51.6422854,58.2450066 L51.1009115,61.5136527 C50.9886969,62.1922168 51.5121305,62.8092212 52.1998407,62.8092212 L61.8168783,62.8092212 L62.5594646,62.8092212 L62.5686106,62.8092212 L63.0744558,62.8092212 L63.0702345,62.8046482 Z"/>
    <polygon fill="#2F4859" points="63.08 62.803 63.078 62.798 63.074 62.792 63.074 62.792 62.1 61.021 60.892 58.824 58.475 54.431 57.085 57.22 58.824 57.246 58.234 58.373 62.976 62.71 63.071 62.798 63.074 62.801 63.074 62.801 63.079 62.805 63.084 62.809"/>
    <g fill="#EBF0F3" transform="translate(50.655 70.002)">
      <rect width="56.784" height="1.653" x=".33" y=".221"/>
      <rect width="56.784" height="1.653" x=".33" y="7.449"/>
      <rect width="56.784" height="1.653" x=".33" y="14.684"/>
      <rect width="56.784" height="1.653" x=".33" y="21.906"/>
      <rect width="56.784" height="1.653" x=".33" y="29.128"/>
      <rect width="56.784" height="1.653" x=".33" y="36.35"/>
      <rect width="46.356" height="1.653" x=".33" y="43.591"/>
    </g>
  </g>
</svg>
