<svg xmlns="http://www.w3.org/2000/svg" width="154" height="154" viewBox="0 0 154 154">
  <g fill="none">
    <circle cx="76.925" cy="76.925" r="76.925" fill="#E9EFF4"/>
    <path fill="#CFDBE6" d="M117.038122,47.279878 L89.8098577,47.279878 L75.3864431,32.8564634 L36.8279106,32.8564634 L46.6357073,47.279878 L36.8116341,47.279878 C34.6321585,47.279878 32.8533333,49.0427398 32.8533333,51.2381789 L32.8533333,117.040939 C32.8533333,118.040374 33.2442805,118.950915 33.8665407,119.64861 L33.8627846,119.652992 L67.4588862,153.249093 C70.5629878,153.630337 73.7174837,153.849443 76.924878,153.849443 C117.621569,153.849443 150.914679,122.24063 153.646614,82.237565 L119.842675,48.433626 C119.121504,47.7124553 118.127703,47.279878 117.038122,47.279878 Z"/>
    <path fill="#64798A" d="M117.039374,47.276748 L36.8103821,47.276748 C34.6249593,47.276748 32.8533333,49.048374 32.8533333,51.2337967 L32.8533333,117.039061 C32.8533333,119.224484 34.6249593,120.99611 36.8103821,120.99611 L117.039061,120.99611 C119.224171,120.99611 120.99611,119.224484 120.99611,117.039061 L120.99611,51.2337967 C120.996423,49.048374 119.224484,47.276748 117.039374,47.276748 Z"/>
    <g fill="#EBF0F3" transform="translate(39.126 52.898)">
      <rect width="75.322" height="50.926" x=".138" y="10.762"/>
      <rect width="53.859" height="4.556" x=".138" y=".068"/>
    </g>
    <rect width="75.322" height="2.409" x="39.264" y="112.177" fill="#D5D6DB"/>
    <circle cx="98.095" cy="55.24" r="2.277" fill="#FCD462"/>
    <circle cx="105.211" cy="55.24" r="2.277" fill="#44C4A1"/>
    <circle cx="112.31" cy="55.24" r="2.277" fill="#E56353"/>
    <rect width="18.242" height="18.241" x="43.334" y="66.891" fill="#FCD462"/>
    <rect width="18.242" height="18.241" x="43.334" y="89.906" fill="#27A2DB"/>
    <rect width="18.242" height="3.574" x="43.334" y="81.56" fill="#F6C358"/>
    <rect width="18.242" height="3.574" x="43.334" y="104.57" fill="#2D93BA"/>
    <g fill="#D5D6DB" transform="translate(67.61 66.67)">
      <rect width="42.248" height="3.205" x=".18" y=".22"/>
      <rect width="42.248" height="3.205" x=".18" y="8.119"/>
      <rect width="22.943" height="3.205" x=".18" y="16.017"/>
      <rect width="42.248" height="3.205" x=".18" y="22.857"/>
      <rect width="42.248" height="3.205" x=".18" y="30.756"/>
      <rect width="22.943" height="3.205" x=".18" y="38.652"/>
    </g>
    <polygon fill="#E56353" points="75.384 32.853 36.822 32.853 51.396 54.284 51.396 75.93 60.81 70.085 60.81 54.284"/>
  </g>
</svg>
