<svg xmlns="http://www.w3.org/2000/svg" width="206" height="83" viewBox="0 0 206 83">
  <path fill-rule="evenodd" d="M1043.60938,2807.53125 L1042.1875,2802.17188 L1020.75,2802.17188 L1018.50781,2820.54688 C1020.00261,2819.45312 1021.78905,2818.55078 1023.86719,2817.83984 C1025.94532,2817.1289 1028.24217,2816.75521 1030.75781,2816.71875 C1038.4141,2816.60937 1044.33852,2818.92446 1048.53125,2823.66406 C1052.72398,2828.40367 1054.82031,2835.00256 1054.82031,2843.46094 C1054.82031,2851.11723 1052.51435,2857.47914 1047.90234,2862.54688 C1043.29034,2867.61461 1036.64588,2870.14844 1027.96875,2870.14844 C1020.67705,2870.14844 1014.42451,2868.15236 1009.21094,2864.16016 C1003.99737,2860.16795 1001.48177,2854.67191 1001.66406,2847.67188 L1001.77344,2847.39844 L1017.08594,2846.63281 C1017.08594,2850.16929 1018.08853,2852.93098 1020.09375,2854.91797 C1022.09897,2856.90496 1024.72394,2857.89844 1027.96875,2857.89844 C1031.68752,2857.89844 1034.4401,2856.56772 1036.22656,2853.90625 C1038.01303,2851.24478 1038.90625,2847.7995 1038.90625,2843.57031 C1038.90625,2838.97654 1037.95834,2835.29428 1036.0625,2832.52344 C1034.16666,2829.75259 1031.34116,2828.36719 1027.58594,2828.36719 C1024.55988,2828.36719 1022.23569,2828.93229 1020.61328,2830.0625 C1018.99088,2831.19271 1017.83334,2832.72395 1017.14062,2834.65625 L1003.03125,2833.72656 L1007.625,2789.375 L1053.45312,2789.375 L1053.45312,2807.53125 L1043.60938,2807.53125 Z M1121.53062,2837.99219 C1121.53062,2848.5287 1119.11528,2856.52211 1114.28453,2861.97266 C1109.45378,2867.4232 1102.91869,2870.14844 1094.67906,2870.14844 C1086.36652,2870.14844 1079.78586,2867.4232 1074.93687,2861.97266 C1070.08789,2856.52211 1067.66344,2848.5287 1067.66344,2837.99219 L1067.66344,2820.4375 C1067.66344,2809.93745 1070.07878,2801.94404 1074.90953,2796.45703 C1079.74028,2790.97002 1086.2936,2788.22656 1094.56969,2788.22656 C1102.80931,2788.22656 1109.36263,2790.97002 1114.22984,2796.45703 C1119.09705,2801.94404 1121.53062,2809.93745 1121.53062,2820.4375 L1121.53062,2837.99219 Z M1105.61656,2818.79688 C1105.61656,2812.48955 1104.66865,2807.8685 1102.77281,2804.93359 C1100.87697,2801.99868 1098.14262,2800.53125 1094.56969,2800.53125 C1090.96029,2800.53125 1088.22595,2801.98957 1086.36656,2804.90625 C1084.50718,2807.82293 1083.5775,2812.45309 1083.5775,2818.79688 L1083.5775,2839.52344 C1083.5775,2845.94014 1084.51629,2850.60676 1086.39391,2853.52344 C1088.27152,2856.44012 1091.03321,2857.89844 1094.67906,2857.89844 C1098.252,2857.89844 1100.96812,2856.44012 1102.8275,2853.52344 C1104.68688,2850.60676 1105.61656,2845.94014 1105.61656,2839.52344 L1105.61656,2818.79688 Z M1133.66281,2804.6875 C1133.66281,2799.98435 1135.18493,2796.06512 1138.22922,2792.92969 C1141.2735,2789.79426 1145.51174,2788.22656 1150.94406,2788.22656 C1156.4493,2788.22656 1160.71488,2789.78514 1163.74094,2792.90234 C1166.76699,2796.01955 1168.28,2799.94789 1168.28,2804.6875 L1168.28,2808.89844 C1168.28,2813.60159 1166.76699,2817.50259 1163.74094,2820.60156 C1160.71488,2823.70054 1156.48576,2825.25 1151.05344,2825.25 C1145.58466,2825.25 1141.31908,2823.70054 1138.25656,2820.60156 C1135.19405,2817.50259 1133.66281,2813.60159 1133.66281,2808.89844 L1133.66281,2804.6875 Z M1144.27219,2808.89844 C1144.27219,2811.01303 1144.85551,2812.79036 1146.02219,2814.23047 C1147.18886,2815.67058 1148.86593,2816.39062 1151.05344,2816.39062 C1153.16803,2816.39062 1154.80864,2815.67058 1155.97531,2814.23047 C1157.14198,2812.79036 1157.72531,2811.01303 1157.72531,2808.89844 L1157.72531,2804.6875 C1157.72531,2802.57291 1157.13287,2800.77735 1155.94797,2799.30078 C1154.76307,2797.82421 1153.09511,2797.08594 1150.94406,2797.08594 C1148.79301,2797.08594 1147.14329,2797.82421 1145.99484,2799.30078 C1144.8464,2800.77735 1144.27219,2802.57291 1144.27219,2804.6875 L1144.27219,2808.89844 Z M1171.72531,2849.47656 C1171.72531,2844.80987 1173.25655,2840.90887 1176.31906,2837.77344 C1179.38158,2834.63801 1183.62893,2833.07031 1189.06125,2833.07031 C1194.53003,2833.07031 1198.78649,2834.62889 1201.83078,2837.74609 C1204.87507,2840.8633 1206.39719,2844.77341 1206.39719,2849.47656 L1206.39719,2853.6875 C1206.39719,2858.42711 1204.88418,2862.34634 1201.85812,2865.44531 C1198.83207,2868.54429 1194.60294,2870.09375 1189.17062,2870.09375 C1183.70185,2870.09375 1179.42715,2868.53517 1176.34641,2865.41797 C1173.26566,2862.30077 1171.72531,2858.39065 1171.72531,2853.6875 L1171.72531,2849.47656 Z M1182.33469,2853.6875 C1182.33469,2855.76564 1182.96359,2857.54296 1184.22141,2859.01953 C1185.47922,2860.4961 1187.12895,2861.23438 1189.17062,2861.23438 C1191.54043,2861.23438 1193.23572,2860.55079 1194.25656,2859.18359 C1195.2774,2857.8164 1195.78781,2855.98439 1195.78781,2853.6875 L1195.78781,2849.47656 C1195.78781,2847.39843 1195.20448,2845.6211 1194.03781,2844.14453 C1192.87114,2842.66796 1191.2123,2841.92969 1189.06125,2841.92969 C1186.87374,2841.92969 1185.20579,2842.66796 1184.05734,2844.14453 C1182.9089,2845.6211 1182.33469,2847.39843 1182.33469,2849.47656 L1182.33469,2853.6875 Z M1155.5925,2863.03906 L1147.82687,2858.9375 L1186.70969,2796.70312 L1194.47531,2800.80469 L1155.5925,2863.03906 Z" transform="translate(-1001 -2788)"/>
</svg>
