<svg xmlns="http://www.w3.org/2000/svg" width="100" height="86" viewBox="0 0 100 86">
  <g fill="#FFF" fill-rule="evenodd">
    <path d="M99.398,0.6016 L0.6990051,0.6016 L0.6990051,64.7036 L29.19901,64.7036 L21.80061,83.805597 L26.90221,85.805597 L30.40221,76.6064 L69.7032,76.6064 L73.2032,85.805597 L78.3048,83.805597 L70.9064,64.7036 L99.4064,64.7036 L99.398,0.6016 Z M67.601,71.1996 L32.499,71.1996 L34.999,64.6996 L65.101,64.6996 L67.601,71.1996 Z M93.999,59.3016 L6.101,59.3016 L6.101,6.0006 L93.999,6.0006 L93.999,59.3016 Z"/>
    <polygon points="66.102 50 72.704 50 72.704 15.398 66.102 15.398"/>
    <polygon points="53.102 50 59.704 50 59.704 30.5 53.102 30.5"/>
    <polygon points="27.301 50 33.903 50 33.903 35.199 27.301 35.199"/>
    <polygon points="40.102 49.903 46.704 49.903 46.704 23.102 40.102 23.102"/>
  </g>
</svg>
