<svg xmlns="http://www.w3.org/2000/svg" width="74" height="74" viewBox="0 0 74 74">
  <path fill="#ECF2F4" fill-rule="evenodd" d="M603,593.626536 L603,584.377682 L592.823153,582.296357 C592.823153,581.832394 592.593341,581.602582 592.593341,581.138585 L600.224867,574.430613 L595.598219,566.335091 L585.885369,569.574188 C585.655557,569.344376 585.421405,569.110224 585.191594,568.880413 L588.430691,559.167562 L580.335168,554.540915 L573.627196,562.172441 C573.163233,562.172441 572.933421,561.942629 572.469425,561.942629 L570.626536,552 L561.377682,552 L559.296357,562.176847 C558.832394,562.176847 558.602582,562.406659 558.138585,562.406659 L551.430613,554.775133 L543.335091,559.401781 L546.574188,569.114631 C546.344376,569.344443 546.110224,569.578595 545.880413,569.808406 L536.167562,566.569309 L531.540915,574.664832 L539.172441,581.372804 C539.172441,581.836767 538.942629,582.066579 538.942629,582.530575 L529,584.373464 L529,593.622318 L539.176847,595.703643 C539.176847,596.167606 539.406659,596.397418 539.406659,596.861415 L531.775133,603.569387 L536.401781,611.664909 L546.114631,608.425812 C546.344443,608.655624 546.578595,608.889776 546.808406,609.119587 L543.569309,618.832438 L551.664832,623.459085 L558.372804,615.827559 C558.836767,615.827559 559.066579,616.057371 559.530575,616.057371 L561.373464,626 L570.622318,626 L572.703643,615.823153 C573.167606,615.823153 573.397418,615.593341 573.861415,615.593341 L580.569387,623.224867 L588.664909,618.598219 L585.425812,608.885369 C585.655624,608.655557 585.889776,608.421405 586.119587,608.191594 L595.832438,611.430691 L600.459085,603.335168 L592.827559,596.627196 C592.827559,596.163233 593.057371,595.933421 593.057371,595.469425 L603,593.626536 Z M580,588.5 C580,595.925 573.7,602 566,602 C558.3,602 552,595.925 552,588.5 C552,581.075 558.3,575 566,575 C573.7,575 580,581.075 580,588.5 Z" opacity=".467" transform="translate(-529 -552)"/>
</svg>
