<svg xmlns="http://www.w3.org/2000/svg" width="78" height="82" viewBox="0 0 78 82">
  <path fill="#ECF2F4" fill-rule="evenodd" d="M552.937395,3072.46617 C550.756249,3076.24354 550.638972,3076.27484 546.859166,3074.0951 L522.260862,3058.55983 L522.260862,3079.51319 L529.851793,3085.18519 C531.860925,3086.34541 532.548881,3091.34939 531.388012,3093.35722 C530.227042,3095.36506 530.168403,3095.38066 528.159271,3094.22052 L513.571602,3087.83371 L511.421777,3087.83371 L496.834108,3094.22052 C494.824977,3095.38074 494.766338,3095.36114 493.605368,3093.35722 C492.444399,3091.34939 493.132395,3086.34541 495.141587,3085.18519 L502.658269,3079.57179 L502.666094,3058.60643 L478.137836,3074.0947 C474.358031,3076.27444 474.244656,3076.24314 472.059603,3072.46577 C469.878459,3068.68841 471.172295,3063.86012 474.952125,3061.68059 L502.665494,3037.38717 L502.665494,3020.69589 C502.665494,3020.48885 502.712395,3020.29744 502.728035,3020.09432 C502.712395,3019.87165 502.661581,3019.65681 502.661581,3019.43025 C502.661581,3014.02395 507.047288,3005 512.457174,3005 C517.86706,3005 522.252767,3014.02355 522.252767,3019.43025 C522.252767,3019.62166 522.205855,3019.79744 522.19804,3019.98885 C522.217583,3020.22713 522.268397,3020.45369 522.268397,3020.69589 L522.268397,3037.32117 L550.052823,3061.68059 C553.828726,3063.86032 555.122583,3068.68851 552.937535,3072.46577 L552.937395,3072.46617 Z M514.924199,3014.61018 L509.952103,3014.61018 C508.599607,3014.61018 507.505181,3015.704 507.505181,3017.05553 C507.505181,3018.40715 508.599707,3019.50087 509.952103,3019.50087 L514.924199,3019.50087 C516.276695,3019.50087 517.371121,3018.40705 517.371121,3017.05553 C517.371121,3015.7039 516.276595,3014.61018 514.924199,3014.61018 Z" opacity=".47" transform="rotate(40 4419.948 902.838)"/>
</svg>
