<svg xmlns="http://www.w3.org/2000/svg" width="83" height="83" viewBox="0 0 83 83">
  <g fill="none" fill-rule="evenodd">
    <circle cx="41.5" cy="41.5" r="41.5" fill="#1870E6"/>
    <path fill="#FAFBFC" d="M34.833885,15 C38.1949663,15 40.9449419,17.7499878 40.9449419,21.111084 C40.9449419,23.4361682 39.6224481,25.484298 37.6984429,26.5156045 L41.0404577,37.0382801 C41.2099417,37.0287285 41.3842046,37.0000858 41.5560781,37.0000858 C44.1246164,37.0000858 46.4210294,38.1578307 47.9916321,39.9601727 L55.8021739,33.1230919 C55.296105,32.2923511 55.0000977,31.3160443 55.0000977,30.2776489 C55.0000977,27.2555346 57.4779479,24.7776733 60.5000488,24.7776733 C63.5221498,24.7776733 66,27.2555346 66,30.2776489 C66,33.2997633 63.5221498,35.7776246 60.5000488,35.7776246 C59.4067196,35.7776246 58.3802454,35.4553626 57.5209086,34.8991562 L49.3473701,42.0417912 C49.8367313,43.1159976 50.1112522,44.3024034 50.1112522,45.5556645 C50.1112522,47.462995 49.4571858,49.2294649 48.3925174,50.6546308 L55.496621,57.758766 C56.5779725,57.0139471 57.8718055,56.5556158 59.2778375,56.5556158 C62.9755157,56.5556158 66,59.5801135 66,63.2778082 C66,66.9755023 62.9755157,70 59.2778375,70 C55.5801592,70 52.5556749,66.9755023 52.5556749,63.2778082 C52.5556749,61.8622367 53.0044587,60.5636313 53.7588198,59.4774473 L46.6736605,52.3922564 C45.2437954,53.4688461 43.4748889,54.1109988 41.5556503,54.1109988 C39.8130214,54.1109988 38.1921858,53.5977655 36.8386478,52.6978107 L33.5157606,56.4408496 C34.3441144,57.4840117 34.8334267,58.7945947 34.8334267,60.2220828 C34.8334267,63.5831791 32.0834511,66.3331669 28.7223698,66.3331669 C25.3612886,66.3331669 22.611313,63.5831791 22.611313,60.2220828 C22.611313,56.8609866 25.3612886,54.1109988 28.7223698,54.1109988 C29.7727383,54.1109988 30.758574,54.3831315 31.6251218,54.8558178 L35.0243972,51.0554568 C33.7711417,49.5658801 33.0001096,47.6442497 33.0001096,45.5554812 C33.0001096,44.7749124 33.1075298,44.0205602 33.3056625,43.302019 L19.8992259,39.1770373 C19.0136116,40.4469816 17.543108,41.2777224 15.8888449,41.2777224 C13.2033416,41.2777224 11,39.074371 11,36.3888552 C11,33.7033393 13.2033416,31.499988 15.8888449,31.499988 C18.5743488,31.499988 20.7776904,33.7033393 20.7776904,36.3888552 C20.7776904,36.5559567 20.7776904,36.7206687 20.7585933,36.8853808 L34.2982509,41.0485567 C35.3032142,39.4396305 36.8262118,38.1959027 38.6333124,37.5346834 L35.3486193,27.2032848 C35.1791353,27.2176092 35.0048724,27.2223819 34.8329989,27.2223819 C31.4719176,27.2223819 28.7219421,24.4723941 28.7219421,21.1112979 C28.7219421,17.7502017 31.4719176,15.0002139 34.8329989,15.0002139 L34.833885,15 Z M34.4666667,17.9333333 C32.4280611,17.9333333 30.8,19.5613944 30.8,21.6 C30.8,23.6386056 32.4280611,25.2666667 34.4666667,25.2666667 C36.5052722,25.2666667 38.1333333,23.6386056 38.1333333,21.6 C38.1333333,19.5613944 36.5052722,17.9333333 34.4666667,17.9333333 Z M60.1333333,27.4666667 C58.4993493,27.4666667 57.2,28.766016 57.2,30.4 C57.2,32.033984 58.4993493,33.3333333 60.1333333,33.3333333 C61.7673173,33.3333333 63.0666667,32.033984 63.0666667,30.4 C63.0666667,28.766016 61.7673173,27.4666667 60.1333333,27.4666667 Z M15.7666667,34.0666667 C14.3329267,34.0666667 13.2,35.1995933 13.2,36.6333333 C13.2,38.0670733 14.3329267,39.2 15.7666667,39.2 C17.2004067,39.2 18.3333333,38.0670733 18.3333333,36.6333333 C18.3333333,35.1995933 17.2004067,34.0666667 15.7666667,34.0666667 Z M41.4333333,39.2 C37.9757657,39.2 35.2,41.9757657 35.2,45.4333333 C35.2,48.890901 37.9757657,51.6666667 41.4333333,51.6666667 C44.890901,51.6666667 47.6666667,48.890901 47.6666667,45.4333333 C47.6666667,41.9757657 44.890901,39.2 41.4333333,39.2 Z M28.6,56.8 C26.5613944,56.8 24.9333333,58.4280611 24.9333333,60.4666667 C24.9333333,62.5052722 26.5613944,64.1333333 28.6,64.1333333 C30.6386056,64.1333333 32.2666667,62.5052722 32.2666667,60.4666667 C32.2666667,58.4280611 30.6386056,56.8 28.6,56.8 Z M59.4,59 C56.95448,59 55,60.95448 55,63.4 C55,65.84552 56.95448,67.8 59.4,67.8 C61.84552,67.8 63.8,65.84552 63.8,63.4 C63.8,60.95448 61.84552,59 59.4,59 Z"/>
  </g>
</svg>
