<svg xmlns="http://www.w3.org/2000/svg" width="154" height="154" viewBox="0 0 154 154">
  <g fill="none">
    <circle cx="77" cy="77" r="77" fill="#E9EFF4"/>
    <g fill="#EAA22F" transform="translate(74 79)">
      <path d="M1.438.8905C1.326.78 1.2285.6835 1.132.589 1.263.718 1.371.824 1.438.8905zM1.181.70975C1.1045.63375 1.0225.55275.936.46825 1.0115.54125 1.0955.62525 1.181.70975zM1.4528.81475C1.4528.81475 1.4208.78275 1.3768.73975 1.4043.76725 1.4243.78625 1.4528.81475zM.479521262.265397665C.154021262-.0561023345.238521262.0278976655.479521262.265397665z"/>
    </g>
    <path fill="#CFDBE6" d="M95.8079962,151 C124.243253,143.713961 146.303221,120.639312 152,91.7293786 L99.011102,39 L74.9621396,79.9500626 L58,87.8509399 L79.1589918,108.906303 L71.350427,126.869849 L95.8079962,151 Z"/>
    <g fill="#EAA22F" transform="translate(74 79)">
      <path d="M.0755.3485C.066.339.0565.3295.047.32.0575.3315.0635.3375.0755.3485zM.671.9365C.408.677.2075.479.0755.3485.2395.5105.46.7285.671.9365z"/>
    </g>
    <path fill="#324A5E" d="M77,129 C73.1339444,129 70,125.73819 70,121.714399 L70,79.2856012 C70,75.2618099 73.1339444,72 77,72 C80.8660556,72 84,75.2618099 84,79.2856012 L84,121.714399 C84,125.73819 80.8660556,129 77,129 Z"/>
    <path fill="#2B3B4E" d="M77.1620619,72 C77.1075707,72 77.0544912,72.0072197 77,72.0087238 L77,128.991276 C77.0544912,128.99278 77.1075707,129 77.1620619,129 C80.9386117,129 84,125.738207 84,121.714437 L84,79.2861644 C84,75.2617927 80.9386117,72 77.1620619,72 Z"/>
    <circle cx="76.5" cy="61.5" r="27.5" fill="#FFF"/>
    <path fill="#E9EFF4" d="M90.6604223,37.4454677 C86.3251111,35.0702593 81.6264956,33.9677491 77,34.0007175 L77,89.0003819 C86.8383648,89.0516744 96.4008708,83.9344472 101.506664,74.8292342 C108.956055,61.5456503 104.100278,44.8084058 90.6604223,37.4454677 Z"/>
    <path fill="#31BAFD" d="M76.9461088,94 C71.7042892,94 66.3942074,92.7115049 61.4936989,89.9928132 C54.0207828,85.8484185 48.6080083,79.0398557 46.25386,70.8223666 C43.8988136,62.6045778 44.8826278,53.9607858 49.0250665,46.4841588 C57.5752083,31.0500785 77.0814356,25.450622 92.5063011,34.0078353 C99.9792172,38.15223 105.391992,44.9607927 107.74614,53.1782819 C110.101186,61.3960707 109.117372,70.0398627 104.974934,77.5164896 C99.1412087,88.0485366 88.2054821,94 76.9461088,94 Z M77.0395202,38.5356928 C68.783385,38.5356928 60.7649699,42.8996799 56.4863062,50.623161 C53.448937,56.1057811 52.7273934,62.4446019 54.4543077,68.4700616 C56.181222,74.4961205 60.1503105,79.4886271 65.6295509,82.5278698 C76.9395221,88.8001838 91.2440489,84.6980299 97.514592,73.3789853 C100.551961,67.8963652 101.273505,61.5575445 99.5465905,55.5320848 C97.8196762,49.5060259 93.8505877,44.5135193 88.3713473,41.4742765 C84.7780004,39.4817676 80.883162,38.5356928 77.0395202,38.5356928 Z"/>
    <path fill="#2B9ED8" d="M108.713614,53.1730345 C106.29891,44.9541894 100.747208,38.1456503 93.0817559,34.0001237 C87.9836363,31.2424317 82.4512813,29.9630591 77,30.0008111 L77,38.5351548 C77.0724749,38.5345556 77.1440286,38.5285632 77.2165035,38.5285632 C81.1596307,38.5285632 85.1543503,39.4747596 88.839516,41.4675247 C94.4597007,44.5071581 98.5308875,49.5003065 100.302224,55.5271399 C102.07356,61.5533742 101.333456,67.8930098 98.2179555,73.3763346 C93.8058909,81.1415568 85.5158037,85.5094006 77,85.46266 L77,93.9985019 C77.0402297,93.9985019 77.0804595,94 77.1206892,94 C88.6696913,94 99.8867214,88.0471724 105.871123,77.5143708 C110.120119,70.0367827 111.129855,61.3918796 108.713614,53.1730345 Z"/>
    <path fill="#FFF" d="M91,77 L63,77 L63,72.2182629 C63,68.8194926 65.1587049,65.8016973 68.3584127,64.7269657 L73.4999624,63 L80.5000376,63 L85.6415873,64.7269657 C88.8418966,65.8016973 91,68.8194926 91,72.2182629 L91,77 Z"/>
    <path fill="#D0D1D3" d="M91,72.2182629 C91,68.8194926 88.8412719,65.8016973 85.6415297,64.7269657 L80.4999248,63 L77,63 L77,77 L91,77 L91,72.2182629 Z"/>
    <polygon fill="#FED8B2" points="80 63.5 76.5 67 73 63.5 73 60 80 60"/>
    <polygon fill="#EFC095" points="81 60 77 60 77 67 81 63.5"/>
    <path fill="#F4E3C3" d="M70,51.8000584 C70,48.0445842 73.1338031,45 77,45 C80.8658961,45 84,48.044292 84,51.8000584 C84,55.5555326 80.8661969,62 77,62 C73.1341039,62 70,55.5558248 70,51.8000584 Z"/>
    <path fill="#FED8B2" d="M84,51.8000584 C84,48.0445842 80.8661969,45 77,45 L77,62 C80.8658961,62 84,55.5558248 84,51.8000584 Z"/>
    <path fill="#59595B" d="M84,52.3648734 C84,48.2974684 80.8661969,45 77,45 C73.1341039,45 70,48.2971519 70,52.3648734 C70,53.9879747 70.5004941,56.0746835 71.3456795,57.996519 C71.147467,56.8901899 71.2004039,55.7588608 71.3047738,54.9053797 C75.7478623,54.5389241 80.0354488,52.3515823 80.0354488,52.3515823 C80.0354488,52.3515823 80.5783526,53.4012658 82.6134147,54.3344937 C82.7574872,55.2056962 82.9000559,56.6224684 82.652215,58 C83.4989043,56.0775316 84,53.989557 84,52.3648734 Z"/>
    <path fill="#272525" d="M84,52.3650527 C84,48.2975486 80.8661969,45 77,45 L77,53.6109691 C78.8136897,52.9742447 80.0354488,52.3514448 80.0354488,52.3514448 C80.0354488,52.3514448 80.5783526,53.4011539 82.6134147,54.3344044 C82.7574872,55.2056282 82.9000559,56.6224348 82.652215,58 C83.4989043,56.0778013 84,53.9897758 84,52.3650527 Z"/>
    <polygon fill="#F4BD76" points="75 77 76 68 77 68 78 77"/>
    <polygon fill="#F9B54C" points="77.667 68 77 68 77 77 79 77"/>
    <path fill="#386895" d="M77,76.8717187 L71.8988098,63 L68.3583552,64.2367959 C65.1580802,65.3544509 63,68.4927732 63,72.0272862 L63,77 L77,77 L77,76.8717187 Z"/>
    <path fill="#273B7A" d="M91,72.0268798 C91,68.4925259 88.8412719,65.3543449 85.6415297,64.2367402 L82.100999,63 L77,76.8710941 L77,77 L91,77 L91,72.0268798 Z"/>
    <polygon fill="#121149" points="82.042 63 83 67.369 81.182 68.342 83 70.579 77 77"/>
    <polygon fill="#273B7A" points="71.959 63 71 67.369 72.818 68.342 71 70.579 77 77"/>
    <polygon fill="#F9B54C" points="79 67 77.667 70 76.333 70 75 67"/>
    <polygon fill="#F4A200" points="79 67 77 67 77 70 77.667 70"/>
    <polygon fill="#B8C9D9" points="79.975 68 82 63.573 80.43 63 77 66.751"/>
    <polygon fill="#CFDBE6" points="74.025 68 72 63.573 73.57 63 77 66.751"/>
  </g>
</svg>
