<svg xmlns="http://www.w3.org/2000/svg" width="159" height="159" viewBox="0 0 159 159">
  <g fill="none">
    <circle cx="79.5" cy="79.484" r="79.484" fill="#30C8FF"/>
    <path fill="#2BB3E5" d="M158.145996,91.1936426 L100.0169,33.0645469 C71.8232812,11.6451973 25.1136152,46.1935371 65.1781992,84.0647285 L38.9525156,122.484035 L75.3719004,158.90342 C76.7591133,158.968014 78.1137188,159 79.5009316,159 C119.436328,159 152.468578,129.548355 158.145996,91.1936426 Z"/>
    <path fill="#EBECEC" d="M119.82327,117.128965 C119.82327,120.967945 116.79109,124.096705 113.049311,124.096705 L43.2427207,124.096705 C39.5332383,124.096705 36.4687617,120.967635 36.4687617,117.128965 L36.4687617,79.741916 C36.4687617,75.9029355 39.5009414,72.7741758 43.2427207,72.7741758 L113.049,72.7741758 C116.758482,72.7741758 119.822959,75.9032461 119.822959,79.741916 L119.822959,117.128965 L119.82327,117.128965 Z"/>
    <path fill="#E3E3E3" d="M119.82327,117.128965 C119.82327,120.967945 116.79109,124.096705 113.049311,124.096705 L43.2427207,124.096705 C41.5977539,124.096705 40.0816641,123.483996 38.9199082,122.451738 L118.2106,75.2579297 C119.210561,76.4836582 119.82358,78.0320449 119.82358,79.741916 L119.82358,117.128965 L119.82327,117.128965 Z"/>
    <g fill="#004F59" transform="translate(36.334 83.848)">
      <rect width="83.321" height="8.806" x=".166" y=".185"/>
      <path d="M6.00535547,14.797248 L42.3278496,14.797248 L42.3278496,17.9906016 L6.00535547,17.9906016 L6.00535547,14.797248 Z M6.00535547,27.1523555 L42.3278496,27.1523555 L42.3278496,30.345709 L6.00535547,30.345709 L6.00535547,27.1523555 Z M6.00535547,20.9588086 L42.3278496,20.9588086 L42.3278496,24.1521621 L6.00535547,24.1521621 L6.00535547,20.9588086 Z"/>
      <circle cx="66.263" cy="22.571" r="6.355"/>
    </g>
    <path fill="#FFD630" d="M88.6297676,39.1935 C86.8233164,38.4193066 84.0492012,37.709707 80.4362988,37.6774102 L80.4362988,34.1291016 L75.9200156,34.1291016 L75.9200156,38.096959 C70.1134102,39.2903906 66.7588828,42.9036035 66.7588828,47.3872793 C66.7588828,51.6451875 70.2429082,54.7422715 75.9200156,56.9033672 L75.9200156,66.6775195 C72.8555391,66.6452227 69.6941719,65.8387324 67.7265469,64.8064746 L66.2427539,70.1935313 C68.081502,71.1611953 71.9844551,72.0645762 75.8557324,72.0645762 L75.9203262,72.0645762 L75.9203262,72.8064727 L80.4366094,72.8064727 L80.4366094,71.6776348 C86.6624531,70.4842031 90.1138711,66.7744102 90.1138711,62.000373 C90.1138711,57.6132773 87.3071484,54.5165039 81.0493184,52.1293301 C80.8235508,52.03275 80.6297695,51.9681563 80.4366094,51.8712656 L80.4366094,43.0650879 C83.4687891,43.1296816 85.7267754,43.903875 87.0493945,44.4845977 L88.6300781,39.2267285 L88.6300781,39.1935 L88.6297676,39.1935 Z M78.178002,23.9999941 C95.2425527,23.9999941 109.048846,37.8062871 109.048846,54.8708379 C109.048846,61.5482168 106.919736,67.7420742 103.307145,72.8064727 L96.1136367,72.8064727 C100.694203,68.2259063 103.533223,61.870875 103.533223,54.8708379 C103.533223,40.8707637 92.1783867,29.5159277 78.1783125,29.5159277 C64.1782383,29.5159277 52.8234023,40.8707637 52.8234023,54.8708379 C52.8234023,61.870875 55.6621113,68.1932988 60.2429883,72.8064727 L53.0171836,72.8064727 C49.4042813,67.7420742 47.2754824,61.5808242 47.2754824,54.8708379 C47.2754824,37.838584 61.0817754,23.9999941 78.1463262,23.9999941 L78.178002,23.9999941 Z M80.4362988,58.9998691 C81.8558086,59.9675332 82.5331113,61.0643848 82.5331113,62.4838945 C82.5331113,63.9034043 81.8235117,65.0645391 80.4362988,65.8067461 L80.4362988,59.0327871 L80.4362988,58.9998691 Z M75.9200156,49.6126582 C74.8231641,48.806168 74.339332,47.9353945 74.339332,46.7416523 C74.339332,45.7416914 74.8554609,44.7740273 75.9200156,44.0644277 L75.9200156,49.6449551 L75.9200156,49.6126582 Z"/>
  </g>
</svg>
