<svg xmlns="http://www.w3.org/2000/svg" width="78" height="82" viewBox="0 0 78 82">
  <path fill="#ECF2F4" fill-rule="evenodd" d="M482.937395,3072.46617 C480.756249,3076.24354 480.638972,3076.27484 476.859166,3074.0951 L452.260862,3058.55983 L452.260862,3079.51319 L459.851793,3085.18519 C461.860925,3086.34541 462.548881,3091.34939 461.388012,3093.35722 C460.227042,3095.36506 460.168403,3095.38066 458.159271,3094.22052 L443.571602,3087.83371 L441.421777,3087.83371 L426.834108,3094.22052 C424.824977,3095.38074 424.766338,3095.36114 423.605368,3093.35722 C422.444399,3091.34939 423.132395,3086.34541 425.141587,3085.18519 L432.658269,3079.57179 L432.666094,3058.60643 L408.137836,3074.0947 C404.358031,3076.27444 404.244656,3076.24314 402.059603,3072.46577 C399.878459,3068.68841 401.172295,3063.86012 404.952125,3061.68059 L432.665494,3037.38717 L432.665494,3020.69589 C432.665494,3020.48885 432.712395,3020.29744 432.728035,3020.09432 C432.712395,3019.87165 432.661581,3019.65681 432.661581,3019.43025 C432.661581,3014.02395 437.047288,3005 442.457174,3005 C447.86706,3005 452.252767,3014.02355 452.252767,3019.43025 C452.252767,3019.62166 452.205855,3019.79744 452.19804,3019.98885 C452.217583,3020.22713 452.268397,3020.45369 452.268397,3020.69589 L452.268397,3037.32117 L480.052823,3061.68059 C483.828726,3063.86032 485.122583,3068.68851 482.937535,3072.46577 L482.937395,3072.46617 Z M444.924199,3014.61018 L439.952103,3014.61018 C438.599607,3014.61018 437.505181,3015.704 437.505181,3017.05553 C437.505181,3018.40715 438.599707,3019.50087 439.952103,3019.50087 L444.924199,3019.50087 C446.276695,3019.50087 447.371121,3018.40705 447.371121,3017.05553 C447.371121,3015.7039 446.276595,3014.61018 444.924199,3014.61018 Z" opacity=".47" transform="rotate(40 4384.948 999)"/>
</svg>
