<svg xmlns="http://www.w3.org/2000/svg" width="208" height="83" viewBox="0 0 208 83">
  <path fill-rule="evenodd" d="M252.953125,2801.67969 C244.421832,2811.66932 238.597672,2820.98433 235.480469,2829.625 C232.363266,2838.26567 230.130215,2848.69265 228.78125,2860.90625 L228.015625,2869 L212.046875,2869 L212.8125,2860.90625 C214.05209,2849.20307 216.713521,2838.45708 220.796875,2828.66797 C224.880229,2818.87886 230.476527,2809.88285 237.585938,2801.67969 L209.53125,2801.67969 L208.929688,2809.55469 L196.679688,2809.55469 L196.679688,2789.375 L252.953125,2789.375 L252.953125,2801.67969 Z M318.350937,2837.99219 C318.350937,2848.5287 315.935596,2856.52211 311.104843,2861.97266 C306.27409,2867.4232 299.738999,2870.14844 291.499374,2870.14844 C283.186833,2870.14844 276.606169,2867.4232 271.757187,2861.97266 C266.908204,2856.52211 264.483749,2848.5287 264.483749,2837.99219 L264.483749,2820.4375 C264.483749,2809.93745 266.89909,2801.94404 271.729843,2796.45703 C276.560596,2790.97002 283.113916,2788.22656 291.389999,2788.22656 C299.629624,2788.22656 306.182944,2790.97002 311.050156,2796.45703 C315.917367,2801.94404 318.350937,2809.93745 318.350937,2820.4375 L318.350937,2837.99219 Z M302.436874,2818.79688 C302.436874,2812.48955 301.488967,2807.8685 299.593124,2804.93359 C297.697282,2801.99868 294.962934,2800.53125 291.389999,2800.53125 C287.780606,2800.53125 285.046259,2801.98957 283.186874,2804.90625 C281.32749,2807.82293 280.397812,2812.45309 280.397812,2818.79688 L280.397812,2839.52344 C280.397812,2845.94014 281.336605,2850.60676 283.214218,2853.52344 C285.091832,2856.44012 287.853523,2857.89844 291.499374,2857.89844 C295.072309,2857.89844 297.788428,2856.44012 299.647812,2853.52344 C301.507196,2850.60676 302.436874,2845.94014 302.436874,2839.52344 L302.436874,2818.79688 Z M330.483124,2804.6875 C330.483124,2799.98435 332.005244,2796.06512 335.04953,2792.92969 C338.093816,2789.79426 342.332055,2788.22656 347.764374,2788.22656 C353.26961,2788.22656 357.535192,2789.78514 360.561249,2792.90234 C363.587306,2796.01955 365.100311,2799.94789 365.100311,2804.6875 L365.100311,2808.89844 C365.100311,2813.60159 363.587306,2817.50259 360.561249,2820.60156 C357.535192,2823.70054 353.306068,2825.25 347.873749,2825.25 C342.404971,2825.25 338.139389,2823.70054 335.076874,2820.60156 C332.014358,2817.50259 330.483124,2813.60159 330.483124,2808.89844 L330.483124,2804.6875 Z M341.092499,2808.89844 C341.092499,2811.01303 341.675826,2812.79036 342.842499,2814.23047 C344.009171,2815.67058 345.686238,2816.39062 347.873749,2816.39062 C349.988343,2816.39062 351.628951,2815.67058 352.795624,2814.23047 C353.962296,2812.79036 354.545624,2811.01303 354.545624,2808.89844 L354.545624,2804.6875 C354.545624,2802.57291 353.953182,2800.77735 352.76828,2799.30078 C351.583378,2797.82421 349.915426,2797.08594 347.764374,2797.08594 C345.613321,2797.08594 343.963598,2797.82421 342.815155,2799.30078 C341.666712,2800.77735 341.092499,2802.57291 341.092499,2804.6875 L341.092499,2808.89844 Z M368.545624,2849.47656 C368.545624,2844.80987 370.076858,2840.90887 373.139374,2837.77344 C376.201889,2834.63801 380.449242,2833.07031 385.881561,2833.07031 C391.350339,2833.07031 395.606806,2834.62889 398.651093,2837.74609 C401.695379,2840.8633 403.217499,2844.77341 403.217499,2849.47656 L403.217499,2853.6875 C403.217499,2858.42711 401.704493,2862.34634 398.678436,2865.44531 C395.652379,2868.54429 391.423255,2870.09375 385.990936,2870.09375 C380.522159,2870.09375 376.247462,2868.53517 373.166718,2865.41797 C370.085973,2862.30077 368.545624,2858.39065 368.545624,2853.6875 L368.545624,2849.47656 Z M379.154999,2853.6875 C379.154999,2855.76564 379.783899,2857.54296 381.041718,2859.01953 C382.299536,2860.4961 383.949259,2861.23438 385.990936,2861.23438 C388.36074,2861.23438 390.056035,2860.55079 391.076874,2859.18359 C392.097712,2857.8164 392.608124,2855.98439 392.608124,2853.6875 L392.608124,2849.47656 C392.608124,2847.39843 392.024796,2845.6211 390.858124,2844.14453 C389.691451,2842.66796 388.032614,2841.92969 385.881561,2841.92969 C383.69405,2841.92969 382.026098,2842.66796 380.877655,2844.14453 C379.729212,2845.6211 379.154999,2847.39843 379.154999,2849.47656 L379.154999,2853.6875 Z M352.412811,2863.03906 L344.647186,2858.9375 L383.529999,2796.70312 L391.295624,2800.80469 L352.412811,2863.03906 Z" transform="translate(-196 -2788)"/>
</svg>
