<svg xmlns="http://www.w3.org/2000/svg" width="81" height="68" viewBox="0 0 81 68">
  <path fill="#ECF2F4" fill-rule="evenodd" d="M629.999413,2484.99268 L629.999413,2470 C622.786769,2471.5999 616.293119,2474.58922 610.514937,2478.96406 C604.705818,2483.37338 600.724727,2488.68221 598.57186,2494.88661 C596.189315,2501.25564 595,2509.32372 595,2519.08792 L595,2538 L630,2538 L630,2496.94626 L621.234727,2496.94626 C621.85809,2491.94746 624.776042,2487.963 630,2484.99307 L629.999413,2484.99268 Z M676,2484.99268 L676,2470 C668.787417,2471.5999 662.309486,2474.58922 656.568555,2478.96406 C650.954504,2483.37338 646.958174,2488.68221 644.575648,2494.88661 C642.193123,2501.25564 641,2509.32372 641,2519.08792 L641,2538 L676,2538 L675.999706,2496.94626 L667.288059,2496.94626 C668.137049,2491.94746 671.039636,2487.963 675.999706,2484.99307 L676,2484.99268 Z" transform="translate(-595 -2470)"/>
</svg>
