<svg xmlns="http://www.w3.org/2000/svg" width="186" height="88" viewBox="0 0 186 88">
  <path fill-rule="evenodd" d="M599.554688,2859.42969 L613.007812,2857.78906 L613.007812,2803.86719 L599.390625,2803.86719 L599.390625,2794.73438 L628.921875,2789.375 L628.921875,2857.78906 L642.375,2859.42969 L642.375,2869 L599.554688,2869 L599.554688,2859.42969 Z M709.304062,2837.99219 C709.304062,2848.5287 706.888721,2856.52211 702.057968,2861.97266 C697.227215,2867.4232 690.692124,2870.14844 682.452499,2870.14844 C674.139958,2870.14844 667.559294,2867.4232 662.710312,2861.97266 C657.861329,2856.52211 655.436874,2848.5287 655.436874,2837.99219 L655.436874,2820.4375 C655.436874,2809.93745 657.852215,2801.94404 662.682968,2796.45703 C667.513721,2790.97002 674.067041,2788.22656 682.343124,2788.22656 C690.582749,2788.22656 697.136069,2790.97002 702.003281,2796.45703 C706.870492,2801.94404 709.304062,2809.93745 709.304062,2820.4375 L709.304062,2837.99219 Z M693.389999,2818.79688 C693.389999,2812.48955 692.442092,2807.8685 690.546249,2804.93359 C688.650407,2801.99868 685.916059,2800.53125 682.343124,2800.53125 C678.733731,2800.53125 675.999384,2801.98957 674.139999,2804.90625 C672.280615,2807.82293 671.350937,2812.45309 671.350937,2818.79688 L671.350937,2839.52344 C671.350937,2845.94014 672.28973,2850.60676 674.167343,2853.52344 C676.044957,2856.44012 678.806648,2857.89844 682.452499,2857.89844 C686.025434,2857.89844 688.741553,2856.44012 690.600937,2853.52344 C692.460321,2850.60676 693.389999,2845.94014 693.389999,2839.52344 L693.389999,2818.79688 Z M720.506561,2793.3125 L720.506561,2783.6875 L744.951874,2783.6875 L744.951874,2833.125 L748.506561,2833.125 L757.694061,2820.16406 L752.498749,2819.45312 L752.498749,2809.82812 L781.592499,2809.82812 L781.592499,2819.45312 L774.592499,2821.03906 L763.928436,2835.69531 L778.858124,2858.17188 L784.928436,2859.42969 L784.928436,2869 L757.584686,2869 L757.584686,2859.42969 L760.865936,2858.88281 L751.787811,2844.22656 L744.951874,2844.22656 L744.951874,2857.78906 L751.842499,2859.42969 L751.842499,2869 L721.326874,2869 L721.326874,2859.42969 L729.037811,2857.78906 L729.037811,2794.95312 L720.506561,2793.3125 Z" transform="translate(-599 -2783)"/>
</svg>
