<svg xmlns="http://www.w3.org/2000/svg" width="159" height="159" viewBox="0 0 159 159">
  <g fill="none">
    <circle cx="79.5" cy="79.5" r="79.5" fill="#E9EFF4"/>
    <path fill="#CFDBE6" d="M88.4651777,158.494119 C123.918451,154.514771 152.315168,127.22267 157.968984,92.3026055 L121.715432,56.0487422 L97.4927754,71.857752 L36.8140898,106.843031 L88.4651777,158.494119 Z"/>
    <path fill="#FFD15D" d="M118.937279,108.141428 L40.0620996,108.141428 C37.4500898,108.141428 35.3327812,106.024119 35.3327812,103.41273 L35.3327812,59.8709531 C35.3327812,57.2589434 37.4500898,55.1416348 40.0620996,55.1416348 L118.937279,55.1416348 C121.549289,55.1416348 123.665977,57.2589434 123.665977,59.8709531 L123.665977,103.41273 C123.666598,106.024119 121.549289,108.141428 118.937279,108.141428 Z"/>
    <path fill="#F9B54C" d="M118.937279,55.1413242 L79.5,55.1413242 L79.5,108.141428 L118.937279,108.141428 C121.549289,108.141428 123.665977,106.024119 123.665977,103.41273 L123.665977,59.8709531 C123.666598,57.2586328 121.549289,55.1413242 118.937279,55.1413242 Z"/>
    <rect width="80.838" height="43.899" x="39.081" y="59.692" fill="#05BEA6"/>
    <rect width="40.419" height="43.899" x="79.5" y="59.692" fill="#2C9984"/>
    <ellipse cx="79.5" cy="81.642" fill="#FFD15D" rx="10.439" ry="17.667"/>
    <path fill="#F9B54C" d="M89.9393437,81.6415312 C89.9393437,71.8847695 85.2656133,63.9748301 79.5,63.9748301 L79.5,99.3082324 C85.2656133,99.3082324 89.9393437,91.398293 89.9393437,81.6415312 Z"/>
    <path fill="#05BEA6" d="M83.8808848,79.1344863 C84.4317949,79.1344863 84.8783613,78.6879199 84.8783613,78.1370098 L84.8783613,77.4553594 C84.8783613,75.3899121 82.9259531,73.706748 80.4974766,73.6409121 L80.4974766,73.3806738 C80.4974766,72.8297637 80.0509102,72.3831973 79.5,72.3831973 C78.9490898,72.3831973 78.5025234,72.8297637 78.5025234,73.3806738 L78.5025234,73.6409121 C76.0740469,73.706127 74.1216387,75.3899121 74.1216387,77.4553594 L74.1216387,78.8183496 C74.1216387,80.8831758 76.0740469,82.5669609 78.5025234,82.6321758 L78.5025234,87.6475078 C77.1951211,87.5906777 76.1165918,86.7817031 76.1165918,85.8273926 L76.1165918,85.1457422 C76.1165918,84.594832 75.6700254,84.1482656 75.1191152,84.1482656 C74.5682051,84.1482656 74.1216387,84.594832 74.1216387,85.1457422 L74.1216387,85.8273926 C74.1216387,87.8922187 76.0740469,89.5760039 78.5025234,89.6412188 L78.5025234,89.9020781 C78.5025234,90.4529883 78.9490898,90.8995547 79.5,90.8995547 C80.0509102,90.8995547 80.4974766,90.4529883 80.4974766,89.9020781 L80.4974766,89.6412188 C82.9259531,89.5760039 84.8783613,87.8922187 84.8783613,85.8273926 L84.8783613,84.4644023 C84.8783613,82.3989551 82.9259531,80.715791 80.4974766,80.6499551 L80.4974766,75.634623 C81.8048789,75.6914531 82.8834082,76.5007383 82.8834082,77.4553594 L82.8834082,78.1370098 C82.8834082,78.6872988 83.3299746,79.1344863 83.8808848,79.1344863 Z M76.1165918,78.8183496 L76.1165918,77.4553594 C76.1165918,76.5007383 77.1954316,75.6914531 78.5025234,75.634623 L78.5025234,80.6381543 C77.1954316,80.5819453 76.1165918,79.7723496 76.1165918,78.8183496 Z M82.8834082,84.4644023 L82.8834082,85.8273926 C82.8834082,86.7820137 81.8045684,87.5909883 80.4974766,87.6475078 L80.4974766,82.6439766 C81.8045684,82.7008066 82.8834082,83.5104023 82.8834082,84.4644023 Z"/>
    <path fill="#2C9984" d="M83.8808848,79.1344863 C84.4317949,79.1344863 84.8783613,78.6879199 84.8783613,78.1370098 L84.8783613,77.4553594 C84.8783613,75.3899121 82.9259531,73.706748 80.4974766,73.6409121 L80.4974766,73.3806738 C80.4974766,72.8297637 80.0509102,72.3831973 79.5,72.3831973 L79.5,90.8989336 C80.0509102,90.8989336 80.4974766,90.4523672 80.4974766,89.901457 L80.4974766,89.6405977 C82.9259531,89.5747617 84.8783613,87.8915977 84.8783613,85.8267715 L84.8783613,84.4637813 C84.8783613,82.398334 82.9259531,80.7151699 80.4974766,80.649334 L80.4974766,75.634002 C81.8048789,75.690832 82.8834082,76.5001172 82.8834082,77.4547383 L82.8834082,78.1363887 C82.8834082,78.6872988 83.3299746,79.1344863 83.8808848,79.1344863 Z M82.8834082,84.4644023 L82.8834082,85.8273926 C82.8834082,86.7820137 81.8045684,87.5909883 80.4974766,87.6475078 L80.4974766,82.6439766 C81.8045684,82.7008066 82.8834082,83.5104023 82.8834082,84.4644023 Z"/>
  </g>
</svg>
