<svg xmlns="http://www.w3.org/2000/svg" width="209" height="83" viewBox="0 0 209 83">
  <path fill-rule="evenodd" d="M197.992188,343 L197.992188,332.554688 L223.75,304.9375 C227.468769,300.671854 230.111971,297.071629 231.679688,294.136719 C233.247404,291.201808 234.03125,288.476575 234.03125,285.960938 C234.03125,282.606754 233.128915,279.863292 231.324219,277.730469 C229.519522,275.597646 226.95835,274.53125 223.640625,274.53125 C219.958315,274.53125 217.160166,275.779935 215.246094,278.277344 C213.332022,280.774752 212.375,284.101542 212.375,288.257812 L196.84375,288.257812 L196.734375,287.929688 C196.552082,280.74736 198.912736,274.667994 203.816406,269.691406 C208.720077,264.714819 215.328083,262.226562 223.640625,262.226562 C231.843791,262.226562 238.296851,264.359354 243,268.625 C247.703149,272.890646 250.054688,278.578089 250.054688,285.6875 C250.054688,290.500024 248.733086,294.947896 246.089844,299.03125 C243.446601,303.114604 239.062531,308.437467 232.9375,315 L218.773438,330.476562 L218.882812,330.75 L239.554688,330.75 L240.210938,322.875 L252.351562,322.875 L252.351562,343 L197.992188,343 Z M319.718124,311.992188 C319.718124,322.528699 317.302784,330.522108 312.472031,335.972656 C307.641277,341.423204 301.106186,344.148438 292.866562,344.148438 C284.55402,344.148438 277.973357,341.423204 273.124374,335.972656 C268.275392,330.522108 265.850937,322.528699 265.850937,311.992188 L265.850937,294.4375 C265.850937,283.937447 268.266277,275.944038 273.097031,270.457031 C277.927784,264.970025 284.481104,262.226562 292.757187,262.226562 C300.996811,262.226562 307.550131,264.970025 312.417343,270.457031 C317.284555,275.944038 319.718124,283.937447 319.718124,294.4375 L319.718124,311.992188 Z M303.804062,292.796875 C303.804062,286.489552 302.856155,281.868504 300.960312,278.933594 C299.064469,275.998683 296.330121,274.53125 292.757187,274.53125 C289.147794,274.53125 286.413446,275.989569 284.554062,278.90625 C282.694678,281.822931 281.764999,286.453093 281.764999,292.796875 L281.764999,313.523438 C281.764999,319.940136 282.703792,324.606756 284.581406,327.523438 C286.459019,330.440119 289.22071,331.898438 292.866562,331.898438 C296.439496,331.898438 299.155615,330.440119 301.014999,327.523438 C302.874384,324.606756 303.804062,319.940136 303.804062,313.523438 L303.804062,292.796875 Z M331.850311,278.6875 C331.850311,273.984351 333.372431,270.06512 336.416718,266.929688 C339.461004,263.794255 343.699242,262.226562 349.131561,262.226562 C354.636797,262.226562 358.902379,263.785141 361.928436,266.902344 C364.954493,270.019547 366.467499,273.947893 366.467499,278.6875 L366.467499,282.898438 C366.467499,287.601586 364.954493,291.502589 361.928436,294.601562 C358.902379,297.700536 354.673255,299.25 349.240936,299.25 C343.772159,299.25 339.506577,297.700536 336.444061,294.601562 C333.381546,291.502589 331.850311,287.601586 331.850311,282.898438 L331.850311,278.6875 Z M342.459686,282.898438 C342.459686,285.013031 343.043014,286.790357 344.209686,288.230469 C345.376359,289.67058 347.053425,290.390625 349.240936,290.390625 C351.35553,290.390625 352.996139,289.67058 354.162811,288.230469 C355.329484,286.790357 355.912811,285.013031 355.912811,282.898438 L355.912811,278.6875 C355.912811,276.572906 355.320369,274.777351 354.135468,273.300781 C352.950566,271.824211 351.282614,271.085938 349.131561,271.085938 C346.980509,271.085938 345.330786,271.824211 344.182343,273.300781 C343.033899,274.777351 342.459686,276.572906 342.459686,278.6875 L342.459686,282.898438 Z M369.912811,323.476562 C369.912811,318.809872 371.444046,314.90887 374.506561,311.773438 C377.569077,308.638005 381.81643,307.070312 387.248749,307.070312 C392.717526,307.070312 396.973994,308.628891 400.01828,311.746094 C403.062566,314.863297 404.584686,318.773414 404.584686,323.476562 L404.584686,327.6875 C404.584686,332.427107 403.071681,336.346339 400.045624,339.445312 C397.019567,342.544286 392.790443,344.09375 387.358124,344.09375 C381.889346,344.09375 377.61465,342.535172 374.533905,339.417969 C371.45316,336.300766 369.912811,332.390649 369.912811,327.6875 L369.912811,323.476562 Z M380.522186,327.6875 C380.522186,329.765635 381.151086,331.542961 382.408905,333.019531 C383.666724,334.496101 385.316447,335.234375 387.358124,335.234375 C389.727927,335.234375 391.423223,334.550788 392.444061,333.183594 C393.4649,331.816399 393.975311,329.984386 393.975311,327.6875 L393.975311,323.476562 C393.975311,321.398427 393.391984,319.621101 392.225311,318.144531 C391.058639,316.667961 389.399801,315.929688 387.248749,315.929688 C385.061238,315.929688 383.393286,316.667961 382.244843,318.144531 C381.096399,319.621101 380.522186,321.398427 380.522186,323.476562 L380.522186,327.6875 Z M353.779999,337.039062 L346.014374,332.9375 L384.897186,270.703125 L392.662811,274.804688 L353.779999,337.039062 Z" transform="translate(-196 -262)"/>
</svg>
