<svg xmlns="http://www.w3.org/2000/svg" width="79" height="80" viewBox="0 0 79 80">
  <path fill="#ECF2F4" fill-rule="evenodd" d="M595.898545,1180.9127 C594.71226,1180.31865 593.439786,1180.06312 592.081124,1180.06312 C590.722461,1180.06312 589.449988,1180.40162 588.177514,1180.99902 L574.435647,1167.31902 C575.114962,1166.38312 575.621932,1165.3643 576.04609,1164.34548 L584.10509,1163.75143 C587.074195,1167.66088 592.674775,1168.51046 596.574483,1165.53692 C600.478093,1162.56337 601.326408,1156.95442 598.357303,1153.04889 C595.388198,1149.13944 589.787618,1148.28986 585.88791,1151.2634 C583.767121,1152.87625 582.494647,1155.34208 582.325663,1157.97375 L577.235768,1158.31226 C577.149613,1151.42927 572.739016,1145.48185 566.207663,1143.44455 L565.697351,1134.94871 C570.025118,1132.65551 571.72175,1127.21614 569.428583,1122.88547 C567.138809,1118.55123 561.707552,1116.85207 557.383347,1119.14866 C553.058888,1121.44186 551.362257,1126.87792 553.652115,1131.2119 C554.924589,1133.59141 557.131567,1135.29058 559.75931,1135.79829 L560.183468,1142.85052 C557.638521,1143.01977 555.262558,1143.86934 553.141769,1145.23003 L538.975744,1130.87377 C541.182722,1126.37029 539.317055,1121.0169 534.906458,1118.89294 C530.492586,1116.76898 525.064299,1118.55443 522.943509,1122.97162 C520.82272,1127.38881 522.605507,1132.74183 527.098899,1134.95245 C529.557658,1136.14051 532.357778,1136.14051 534.81993,1135.03873 L548.81714,1149.22253 C544.999719,1154.48927 544.830734,1161.62815 548.479137,1167.06379 L534.733877,1180.91285 C530.237125,1178.78889 524.978247,1180.7436 522.857457,1185.24709 C520.736668,1189.75056 522.688456,1195.0173 527.185225,1197.14126 C531.681993,1199.26522 536.940855,1197.31052 539.061644,1192.80702 C540.165133,1190.34459 540.165133,1187.45397 538.975489,1185.07445 L552.63507,1171.31205 C557.893949,1174.96594 564.84912,1175.04886 570.194357,1171.4813 L584.022752,1185.1613 C581.901963,1189.57845 583.853751,1194.93151 588.264331,1197.05547 C592.674911,1199.17943 598.019962,1197.22472 600.140751,1192.80755 C602.261541,1188.30408 600.309753,1183.03734 595.899173,1180.91338 L595.898545,1180.9127 Z" transform="translate(-522 -1118)"/>
</svg>
