<svg xmlns="http://www.w3.org/2000/svg" width="66" height="56" viewBox="0 0 66 56">
  <g fill="#ECF2F4" fill-rule="evenodd">
    <path d="M19.812 29.227C25.3628 29.227 29.859 21.2622 29.859 15.141 29.859 9.0238 25.359 4.059 19.812 4.059 14.2612 4.059 9.765 9.0199 9.765 15.141 9.76109 21.2621 14.2611 29.227 19.812 29.227zM19.812 30.918C9.078 30.918.374 41.965.374 55.59L39.249 55.59C39.24509 41.965 30.5459 30.918 19.811 30.918L19.812 30.918zM46.188 25.578C51.7388 25.578 56.239 17.6092 56.239 11.492 56.239 5.3748 51.739.41 46.188.41 40.6411.41 36.141 5.3709 36.141 11.492 36.14491 17.6092 40.641 25.578 46.188 25.578z"/>
    <path d="M46.188,27.27 C40.9614,27.27 36.2192,29.895 32.727,34.1528 C37.3754,38.2973 40.7348,44.6098 41.8793,51.9418 L65.6253013,51.9418 C65.62921,38.3128 56.9261,27.2698 46.1873,27.2698 L46.188,27.27 Z"/>
  </g>
</svg>
