<svg xmlns="http://www.w3.org/2000/svg" width="58" height="58" viewBox="0 0 58 58">
  <path fill="#ECF2F4" fill-rule="evenodd" d="M432,1665 C416.049403,1665 403,1678.0494 403,1694 C403,1709.9506 416.049403,1723 432,1723 C447.950597,1723 461,1709.9506 461,1694 C461,1678.0494 447.950597,1665 432,1665 Z M415.428003,1685.71599 C415.428003,1683.4362 417.292204,1681.572 419.571997,1681.572 C421.85179,1681.572 423.71599,1683.4362 423.71599,1685.71599 C423.71599,1687.99578 421.85179,1689.85998 419.571997,1689.85998 C417.292204,1689.8561 415.428003,1687.99191 415.428003,1685.71599 Z M445.876611,1706.63381 C442.14821,1710.36221 436.971201,1712.43222 432,1712.43222 C427.028799,1712.43222 421.85179,1710.56802 418.123389,1706.63381 C417.296151,1705.80657 417.296151,1704.5638 418.123389,1703.73262 C418.950626,1702.90538 420.193397,1702.90538 421.024582,1703.73262 C427.032776,1709.74081 436.975178,1709.74081 442.979395,1703.73262 C443.806633,1702.90538 445.049403,1702.90538 445.880588,1703.73262 C446.707826,1704.56374 446.707826,1705.8065 445.876701,1706.63381 L445.876611,1706.63381 Z M444.428003,1689.85601 C442.14821,1689.85601 440.28401,1687.99181 440.28401,1685.71201 C440.28401,1683.43222 442.14821,1681.56802 444.428003,1681.56802 C446.707796,1681.56802 448.571997,1683.43222 448.571997,1685.71201 C448.571997,1687.99181 446.707796,1689.85601 444.428003,1689.85601 Z" opacity=".468" transform="translate(-403 -1665)"/>
</svg>
